<?xml version="1.0" standalone="no"?>
<!DOCTYPE svg PUBLIC "-//W3C//DTD SVG 1.1//EN" "http://www.w3.org/Graphics/SVG/1.1/DTD/svg11.dtd" >
<svg xmlns="http://www.w3.org/2000/svg" xmlns:xlink="http://www.w3.org/1999/xlink" version="1.1">
<metadata></metadata>
<defs>
<font id="museo_sans_rounded300" horiz-adv-x="1247" >
<font-face units-per-em="2048" ascent="1536" descent="-512" />
<missing-glyph horiz-adv-x="512" />
<glyph horiz-adv-x="0" />
<glyph horiz-adv-x="682" />
<glyph unicode=" "  horiz-adv-x="512" />
<glyph unicode="&#x09;" horiz-adv-x="512" />
<glyph unicode="&#xa0;" horiz-adv-x="512" />
<glyph unicode="!" horiz-adv-x="509" d="M176 51v60q0 51 49 51h62q49 0 49 -51v-60q0 -51 -49 -51h-62q-49 0 -49 51zM182 1389q0 51 51 51h43q50 0 50 -51l-7 -963q0 -49 -49 -49h-30q-52 0 -52 49z" />
<glyph unicode="&#x22;" horiz-adv-x="624" d="M127 1100v311q0 49 51 49h21q49 0 49 -49v-311q0 -51 -49 -51h-21q-51 0 -51 51zM377 1100v311q0 49 49 49h20q50 0 50 -49v-311q0 -51 -50 -51h-20q-49 0 -49 51z" />
<glyph unicode="#" horiz-adv-x="1449" d="M88 453l2 16q9 45 55 45h244l72 401h-236q-26 0 -38 14.5t-9 39.5l4 16q6 45 54 45h243l64 365q9 45 55 45h23q26 0 39 -14.5t8 -39.5l-64 -356h354l64 365q9 45 55 45h23q26 0 39 -14.5t8 -39.5l-64 -356h232q26 0 38.5 -14t8.5 -39l-2 -16q-9 -46 -55 -46h-240 l-72 -401h232q26 0 38 -14t7 -39l-2 -17q-6 -45 -56 -45h-239l-62 -354q-6 -45 -55 -45h-22q-54 0 -48 53l62 346h-354l-62 -354q-6 -45 -55 -45h-23q-53 0 -47 53l62 346h-234q-27 0 -39.5 14.5t-7.5 39.5zM514 514h354l72 401h-354z" />
<glyph unicode="$" horiz-adv-x="1071" d="M111 1077q0 143 104 251.5t272 129.5v144q0 51 50 51h16q49 0 49 -47v-144q180 -9 305 -108q39 -23 13 -70l-19 -33q-23 -41 -70 -12q-126 90 -272 90q-134 0 -218.5 -74t-84.5 -174q0 -53 25 -96.5t67 -74.5t96 -58.5t114 -53t120.5 -52.5t114.5 -62.5t96 -78.5 t67 -104.5t25 -135.5q0 -152 -102.5 -260t-276.5 -125v-140q0 -51 -49 -51h-16q-50 0 -50 47v144q-123 9 -215.5 53t-148.5 94q-36 29 -6 70l24 30q28 37 70 9q153 -125 338 -125q122 0 204.5 67.5t82.5 181.5q0 71 -40 126.5t-104 93t-141 71t-154.5 71t-141.5 82.5 t-104 114.5t-40 158.5z" />
<glyph unicode="%" horiz-adv-x="1470" d="M100 1180q0 117 84.5 200.5t204.5 83.5q118 0 202.5 -83.5t84.5 -200.5q0 -118 -84 -201.5t-203 -83.5q-120 0 -204.5 83.5t-84.5 201.5zM150.5 17.5q-8.5 17.5 11.5 43.5l1026 1348q22 31 61 31h31q33 0 42 -18t-11 -44l-1026 -1347q-22 -31 -62 -31h-33 q-31 0 -39.5 17.5zM223 1180q0 -71 48 -120.5t118 -49.5t118 49.5t48 120.5q0 70 -48 120t-118 50t-118 -50t-48 -120zM793 258q0 119 84 203t204 84q119 0 204 -84.5t85 -202.5q0 -117 -85 -200t-204 -83q-120 0 -204 83t-84 200zM915 260q0 -71 48 -120.5t118 -49.5 t118 49.5t48 120.5q0 70 -48 120t-118 50t-118 -50t-48 -120z" />
<glyph unicode="&#x26;" horiz-adv-x="1304" d="M104 397q0 129 70.5 235.5t192.5 143.5v4q-4 1 -11 4t-28 14.5t-39.5 26.5t-41.5 41.5t-39.5 58t-28 77.5t-11.5 98q0 166 117 265t313 99h102q50 0 50 -51v-22q0 -52 -50 -52h-100q-126 0 -206.5 -68t-80.5 -179q0 -33 6 -64.5t26 -68.5t52.5 -64t90.5 -45.5t135 -18.5 h303v154q0 49 51 49h39q51 0 51 -45v-158h145q50 0 50 -49v-26q0 -51 -50 -51h-145v-211q0 -253 -127.5 -386t-349.5 -133q-215 0 -350.5 120t-135.5 302zM250 406q0 -127 92.5 -212t247.5 -85q159 0 247.5 94.5t88.5 294.5v207h-303q-183 0 -278 -80t-95 -219z" />
<glyph unicode="'" horiz-adv-x="370" d="M125 1165v246q0 49 49 49h23q49 0 49 -49v-246q0 -49 -49 -49h-23q-49 0 -49 49z" />
<glyph unicode="(" horiz-adv-x="542" d="M115 690q0 409 211 770q18 35 59 35h23q29 0 38.5 -16.5t-4.5 -42.5q-198 -360 -198 -746q0 -440 200 -825q12 -26 3.5 -43t-35.5 -17h-25q-43 0 -59 31q-100 184 -156.5 405.5t-56.5 448.5z" />
<glyph unicode=")" horiz-adv-x="542" d="M92.5 -177q-9.5 18 3.5 44q201 384 201 823q0 384 -199 746q-14 26 -5.5 42.5t36.5 16.5h27q41 0 59 -35q211 -361 211 -770q0 -228 -55.5 -447.5t-155.5 -402.5q-20 -35 -61 -35h-23q-29 0 -38.5 18z" />
<glyph unicode="*" horiz-adv-x="976" d="M109 1153l8 29q15 49 63 30l248 -88l-8 265q-6 51 47 51h37q53 0 47 -51l-8 -265l250 88q47 19 63 -30l8 -29q19 -48 -33 -61l-251 -74v-4l159 -205q30 -45 -10 -72l-22 -16q-45 -31 -72 10l-148 217h-4l-145 -215q-30 -41 -72 -12l-24 16q-42 28 -9 70l160 207v4 l-252 74q-48 12 -32 61z" />
<glyph unicode="+" horiz-adv-x="1241" d="M86 571v19q0 51 51 51h422v471q0 51 49 51h27q49 0 49 -51v-471h420q51 0 51 -51v-19q0 -49 -51 -49h-420v-471q0 -51 -49 -51h-27q-49 0 -49 51v471h-422q-51 0 -51 49z" />
<glyph unicode="," horiz-adv-x="471" d="M59 -209l111 334q11 43 59 43h50q29 0 39.5 -16.5t-1.5 -42.5l-137 -334q-16 -39 -59 -39h-19q-28 0 -39.5 15t-3.5 40z" />
<glyph unicode="-" horiz-adv-x="866" d="M143 567v27q0 51 50 51h481q49 0 49 -51v-27q0 -49 -49 -49h-481q-50 0 -50 49z" />
<glyph unicode="." horiz-adv-x="448" d="M141 51v70q0 49 49 49h68q49 0 49 -49v-70q0 -51 -49 -51h-68q-49 0 -49 51z" />
<glyph unicode="/" horiz-adv-x="788" d="M88 -29l487 1508q14 41 58 41h29q26 0 37.5 -16t2.5 -42l-487 -1507q-14 -41 -57 -41h-29q-27 0 -38.5 15.5t-2.5 41.5z" />
<glyph unicode="0" horiz-adv-x="1269" d="M137 721q0 129 15.5 237t52 203t93 161t142 104t195.5 38t195.5 -38t142 -104t93 -161t52 -203t15.5 -237q0 -130 -15.5 -238.5t-52 -204t-93 -161.5t-142 -104t-195.5 -38t-195.5 38t-142 104t-93 161.5t-52 204t-15.5 238.5zM285 721q0 -137 17 -243t55.5 -191.5 t108.5 -131.5t169 -46t169 46t108.5 131.5t55.5 191.5t17 243q0 107 -10 195t-35 167t-64 132.5t-100 84.5t-141 31t-141 -31t-100 -84.5t-64 -132.5t-35 -167t-10 -195z" />
<glyph unicode="1" horiz-adv-x="915" d="M94 51v25q0 51 51 51h273v1057l2 80h-4q-17 -31 -70 -84l-121 -119q-33 -36 -69 0l-19 20q-39 33 -2 70l264 262q27 27 62 27h47q49 0 49 -51v-1262h266q51 0 51 -51v-25q0 -51 -51 -51h-678q-51 0 -51 51z" />
<glyph unicode="2" horiz-adv-x="1128" d="M106 51v41q0 81 25 153t68 128t98.5 106.5t116.5 94t122 85t116.5 85t98.5 89t68 102t25 118.5q0 120 -82 198t-217 78q-71 0 -135.5 -29.5t-98.5 -60.5t-59 -65q-33 -42 -72 -13l-22 19q-39 28 -13 67q17 25 39 50.5t60.5 57t81 54.5t102.5 39t125 16q201 0 320.5 -115 t119.5 -288q0 -77 -25 -146t-67 -122.5t-97 -102.5t-115.5 -91.5t-121 -83t-115.5 -83.5t-97.5 -88t-68 -100.5t-26.5 -116.5h705q51 0 51 -51v-25q0 -51 -51 -51h-803q-25 0 -40.5 13.5t-15.5 37.5z" />
<glyph unicode="3" horiz-adv-x="1130" d="M104 211l25 31q28 35 70 4q153 -135 329 -135q133 0 231.5 88.5t98.5 222.5q0 97 -52 168.5t-132.5 105t-177.5 33.5h-58q-41 0 -55 37l-6 10q-14 35 12 68l334 391q16 20 35 40t30 30l11 10v4q-41 -6 -117 -6h-489q-52 0 -52 51v25q0 51 52 51h739q51 0 51 -47v-11 q0 -38 -22 -63l-408 -469q58 -3 116.5 -17.5t120 -47t108 -78.5t76.5 -119t30 -162q0 -91 -36 -174t-98.5 -144t-151 -97t-188.5 -36q-226 0 -421 164q-35 32 -5 72z" />
<glyph unicode="4" horiz-adv-x="1204" d="M55 449v8q0 37 19 61l667 891q25 31 62 31h63q49 0 49 -51v-867h156q49 0 49 -49v-24q0 -50 -45 -50h-160v-348q0 -51 -49 -51h-41q-51 0 -51 51v348h-670q-49 0 -49 50zM225 522h549v604q0 27 2 61.5t4 55.5l2 21h-4q-34 -60 -71 -111l-482 -627v-4z" />
<glyph unicode="5" horiz-adv-x="1120" d="M127 143q-35 35 0 70l25 29q34 34 69 0q120 -131 291 -131q151 0 254.5 96t103.5 242q0 147 -104.5 243t-259.5 96q-105 0 -230 -61q-34 -18 -67 -6l-14 4q-40 15 -37 59l67 609q6 47 54 47h598q51 0 51 -51v-25q0 -51 -51 -51h-523l-41 -369l-14 -82h4q10 6 28.5 15.5 t76 25t114.5 15.5q214 0 355 -136t141 -333q0 -131 -66 -240t-181 -171.5t-253 -62.5q-229 0 -391 168z" />
<glyph unicode="6" horiz-adv-x="1198" d="M123 649q0 113 22.5 225t73 219.5t122.5 189t179.5 131.5t235.5 50q117 0 217 -39q47 -17 28 -65l-14 -33q-10 -24 -26 -30t-39 1q-83 33 -164 33q-109 0 -198.5 -50.5t-147 -135t-91.5 -185t-45 -210.5h5q53 78 152.5 125t217.5 47q195 0 320 -128.5t125 -332.5 q0 -219 -129.5 -352.5t-323.5 -133.5q-154 0 -273 88t-183 241t-64 345zM276 545q0 -69 27 -145t73 -141t116.5 -107.5t148.5 -42.5q144 0 227.5 96.5t83.5 251.5q0 153 -89.5 245.5t-239.5 92.5q-141 0 -244 -78t-103 -172z" />
<glyph unicode="7" horiz-adv-x="1030" d="M59 1364v25q0 51 52 51h833q51 0 51 -47v-19q0 -31 -14 -63l-635 -1274q-18 -37 -59 -37h-41q-29 0 -39 16.5t2 42.5l553 1121q17 35 36.5 68t30.5 49l11 16v4q-35 -4 -107 -4h-622q-52 0 -52 51z" />
<glyph unicode="8" horiz-adv-x="1214" d="M121 406q0 69 22.5 134t50 106.5t68.5 81t58.5 52.5t39.5 27q-182 119 -182 293q0 72 27.5 136.5t80 116t137.5 81.5t191 30q199 0 320 -102t121 -268q0 -73 -23.5 -145t-59.5 -126t-57 -80t-38 -43q100 -56 155 -130t55 -181q0 -171 -136 -292.5t-341 -121.5 q-131 0 -242 52.5t-179 152.5t-68 226zM266 416q0 -136 103 -224t239 -88q130 0 232 81.5t102 199.5q0 48 -19.5 88t-47 67t-79 56t-93 47t-113.5 48.5t-117 51.5q-87 -61 -131 -118q-76 -97 -76 -209zM322 1100q0 -35 11 -66t27.5 -55t46 -47.5t55.5 -40t68 -36.5t72.5 -33 t79.5 -33t78 -33q17 17 35 39t48.5 66.5t50 102t19.5 115.5q0 119 -82.5 187.5t-216.5 68.5q-135 0 -213.5 -67t-78.5 -168z" />
<glyph unicode="9" horiz-adv-x="1198" d="M102 981q0 219 129.5 351t323.5 132q154 0 273 -88t183 -240.5t64 -344.5q0 -112 -22.5 -224t-73 -219.5t-122.5 -189.5t-179.5 -132.5t-235.5 -50.5q-112 0 -217 39q-47 17 -26 64l14 37q13 39 63 26q85 -32 164 -32q110 0 199.5 50.5t147 135t91.5 185t44 210.5h-4 q-54 -78 -155 -125t-218 -47q-193 0 -318 130t-125 333zM248 983q0 -153 89.5 -245.5t240.5 -92.5q140 0 242 78t102 172q0 69 -27 145t-73 141t-116.5 107.5t-148.5 42.5q-144 0 -226.5 -96.5t-82.5 -251.5z" />
<glyph unicode=":" horiz-adv-x="448" d="M145 51v62q0 51 52 51h59q49 0 49 -51v-62q0 -51 -49 -51h-59q-52 0 -52 51zM145 918v61q0 51 52 51h59q49 0 49 -51v-61q0 -52 -49 -52h-59q-52 0 -52 52z" />
<glyph unicode=";" horiz-adv-x="552" d="M121 -209l94 334q9 43 57 43h52q27 0 37 -16t1 -43l-120 -334q-14 -39 -60 -39h-18q-27 0 -38 15t-5 40zM217 909v70q0 51 51 51h64q51 0 51 -51v-70q0 -49 -51 -49h-64q-51 0 -51 49z" />
<glyph unicode="&#x3c;" horiz-adv-x="1241" d="M125 571v21q0 43 39 57l829 371q26 12 42 1.5t16 -38.5v-33q0 -43 -39 -57l-713 -309v-4l713 -310q39 -14 39 -57v-33q0 -29 -16 -39.5t-42 0.5l-829 371q-39 17 -39 59z" />
<glyph unicode="=" horiz-adv-x="1241" d="M143 393v19q0 51 52 51h852q51 0 51 -51v-19q0 -49 -51 -49h-852q-52 0 -52 49zM143 750v18q0 51 52 51h852q51 0 51 -51v-18q0 -50 -51 -50h-852q-52 0 -52 50z" />
<glyph unicode="&#x3e;" horiz-adv-x="1241" d="M190 180v33q0 43 39 57l713 310v4l-713 309q-39 14 -39 57v33q0 28 16 38.5t42 -1.5l829 -371q39 -14 39 -57v-21q0 -42 -39 -59l-829 -369q-26 -12 -42 -1.5t-16 38.5z" />
<glyph unicode="?" horiz-adv-x="909" d="M96 1311q-32 43 10 69q128 86 289 86q176 0 293 -102t117 -260q0 -68 -20 -126t-51.5 -100t-70 -80t-77.5 -73t-71.5 -71.5t-53.5 -83.5t-23 -101l-2 -49q-3 -43 -47 -43h-39q-51 0 -51 51v47q0 63 19.5 118t51.5 95.5t70 77.5t76 72.5t70 72t51.5 84.5t19.5 103 q0 100 -75.5 167.5t-192.5 67.5q-110 0 -207 -59q-47 -25 -69 12zM289 51v60q0 51 49 51h61q50 0 50 -51v-60q0 -51 -50 -51h-61q-49 0 -49 51z" />
<glyph unicode="@" horiz-adv-x="1591" d="M117 496q0 205 97.5 378t265.5 273t366 100q134 0 234 -32t157 -87.5t84 -122.5t27 -145v-645h94q49 0 49 -51v-12q0 -52 -49 -52h-500q-176 0 -293 115.5t-117 278.5q0 161 117.5 277t292.5 116h266q-5 104 -93 172.5t-259 68.5q-165 0 -302.5 -86t-215.5 -231t-78 -315 q0 -164 71 -303t199 -225t287 -97q49 -6 49 -51v-23q0 -52 -51 -49q-147 9 -277 71.5t-222 161.5t-145.5 233t-53.5 282zM676 496q0 -118 80 -199.5t198 -81.5h254v563h-250q-120 0 -201 -82.5t-81 -199.5z" />
<glyph unicode="A" d="M39 59l496 1340q11 41 55 41h67q45 0 56 -41l495 -1340q4 -13 4 -23q0 -36 -45 -36h-45q-46 0 -57 41l-154 418h-577l-152 -418q-11 -41 -57 -41h-43q-46 0 -46 37q0 9 3 22zM375 582h495l-190 522q-10 30 -23.5 77t-21.5 79l-8 32h-4q-33 -120 -56 -188z" />
<glyph unicode="B" horiz-adv-x="1251" d="M201 51v1338q0 51 49 51h442q173 0 282 -98.5t109 -264.5q0 -110 -49 -190t-135 -123v-4q110 -31 176 -128.5t66 -228.5q0 -187 -122.5 -295t-309.5 -108h-459q-49 0 -49 51zM342 127h369q130 0 206 76t76 205q0 128 -78.5 206t-205.5 78h-367v-565zM342 815h350 q109 0 176.5 70t67.5 182t-66 179t-180 67h-348v-498z" />
<glyph unicode="C" horiz-adv-x="1454" d="M104 729q0 155 54 291t148 233.5t229.5 154t291.5 56.5q90 0 172.5 -16t143 -42.5t99 -48.5t69.5 -46q19 -15 19 -36q0 -16 -11 -36l-19 -27q-15 -20 -35 -20q-16 0 -34 12q-180 127 -400 127q-171 0 -304 -79.5t-204 -215.5t-71 -305q0 -171 71 -312t206.5 -225.5 t308.5 -84.5q237 0 428 155q19 15 35 15q19 0 34 -21l19 -22q14 -18 14 -35q0 -19 -18 -37q-225 -189 -516 -189q-161 0 -298.5 59t-231.5 160.5t-147 240t-53 294.5z" />
<glyph unicode="D" horiz-adv-x="1497" d="M201 51v1338q0 51 49 51h416q216 0 378.5 -84t253.5 -247.5t91 -387.5q0 -339 -197 -530t-526 -191h-416q-49 0 -49 51zM342 127h309q271 0 430.5 154.5t159.5 439.5q0 282 -160.5 437t-429.5 155h-309v-1186z" />
<glyph unicode="E" horiz-adv-x="1132" d="M201 51v1338q0 51 49 51h711q51 0 51 -51v-25q0 -51 -51 -51h-619v-525h496q51 0 51 -49v-26q0 -51 -51 -51h-496v-535h655q52 0 52 -51v-25q0 -51 -52 -51h-747q-49 0 -49 51z" />
<glyph unicode="F" horiz-adv-x="1019" d="M201 51v1338q0 51 49 51h657q51 0 51 -51v-25q0 -51 -51 -51h-565v-541h479q49 0 49 -49v-27q0 -51 -49 -51h-479v-594q0 -51 -49 -51h-43q-49 0 -49 51z" />
<glyph unicode="G" horiz-adv-x="1531" d="M104 719q0 155 55.5 293t151.5 237.5t231.5 157t288.5 57.5q86 0 167 -14.5t141 -38.5t98.5 -44t67.5 -40q22 -17 22 -36q0 -16 -14 -34l-19 -26q-16 -24 -37 -24q-15 0 -32 12q-175 112 -389 112q-170 0 -304.5 -81t-207 -219.5t-72.5 -307.5q0 -174 74 -314.5 t204.5 -220t292.5 -79.5q81 0 157.5 21.5t128 52.5t91.5 62t59 53l19 21v242h-197q-49 0 -49 51v25q0 51 49 51h281q49 0 49 -51v-586q0 -51 -49 -51h-29q-24 0 -37.5 12t-13.5 33v74l2 53h-4q-7 -8 -19.5 -21.5t-57.5 -47.5t-95 -59.5t-131 -47t-166 -21.5 q-195 0 -357 96.5t-256 267.5t-94 380z" />
<glyph unicode="H" horiz-adv-x="1519" d="M201 51v1338q0 51 49 51h43q49 0 49 -51v-605h836v605q0 51 49 51h41q51 0 51 -51v-1338q0 -51 -51 -51h-41q-49 0 -49 51v606h-836v-606q0 -51 -49 -51h-43q-49 0 -49 51z" />
<glyph unicode="I" horiz-adv-x="542" d="M201 51v1338q0 51 49 51h43q49 0 49 -51v-1338q0 -51 -49 -51h-43q-49 0 -49 51z" />
<glyph unicode="J" horiz-adv-x="1044" d="M53 412q0 49 49 49h45q25 0 35 -11.5t13 -43.5q6 -136 70 -216.5t192 -80.5q111 0 186.5 70.5t75.5 223.5v910h-301q-49 0 -49 51v25q0 51 49 51h393q51 0 51 -51v-986q0 -90 -23 -163.5t-62 -122t-91.5 -81t-109.5 -47t-119 -14.5q-78 0 -147.5 24.5t-128.5 74.5 t-93.5 137t-34.5 201z" />
<glyph unicode="K" horiz-adv-x="1193" d="M201 51v1338q0 51 49 51h43q49 0 49 -51v-574h244l366 590q20 35 60 35h51q31 0 40.5 -18t-5.5 -44l-393 -618v-4l421 -697q17 -25 7.5 -42t-39.5 -17h-58q-39 0 -59 35l-391 653h-244v-637q0 -51 -49 -51h-43q-49 0 -49 51z" />
<glyph unicode="L" horiz-adv-x="1021" d="M201 51v1338q0 51 49 51h43q49 0 49 -51v-1262h616q52 0 52 -51v-25q0 -51 -52 -51h-708q-49 0 -49 51z" />
<glyph unicode="M" horiz-adv-x="1714" d="M150 53l108 1340q3 47 51 47h56q45 0 59 -39l360 -807l72 -176h4q37 102 70 176l360 807q17 39 60 39h55q48 0 51 -47l109 -1340v-6q0 -47 -49 -47h-41q-49 0 -52 47l-75 961l-7 200h-4q-40 -126 -73 -200l-324 -701q-14 -39 -57 -39h-49q-46 0 -60 39l-321 701 q-14 32 -33 83t-31 86l-12 35h-4q0 -126 -6 -204l-76 -961q-3 -47 -51 -47h-41q-49 0 -49 47v6z" />
<glyph unicode="N" horiz-adv-x="1525" d="M201 51v1338q0 51 49 51h49q38 0 61 -33l713 -1004q22 -32 51.5 -80.5t48.5 -80.5l19 -33h4q-12 118 -12 194v986q0 51 51 51h41q49 0 49 -51v-1338q0 -51 -49 -51h-49q-40 0 -60 33l-714 1003q-22 32 -51.5 81t-48.5 81l-19 33h-4q12 -119 12 -195v-985q0 -51 -49 -51 h-43q-49 0 -49 51z" />
<glyph unicode="O" horiz-adv-x="1673" d="M102 729q0 153 56 289t153 234t233.5 155t291.5 57q207 0 375.5 -97t263 -265t94.5 -373q0 -209 -94.5 -381.5t-263 -272.5t-375.5 -100q-155 0 -291.5 59t-233.5 159.5t-153 240t-56 295.5zM250 729q0 -173 76 -315t210.5 -223.5t299.5 -81.5q166 0 300.5 81.5 t209.5 223.5t75 315q0 169 -75 306.5t-209.5 216.5t-300.5 79q-165 0 -299.5 -78.5t-210.5 -216.5t-76 -307z" />
<glyph unicode="P" horiz-adv-x="1206" d="M201 51v1338q0 51 49 51h448q196 0 320.5 -118.5t124.5 -315.5q0 -199 -124.5 -320t-320.5 -121h-356v-514q0 -51 -49 -51h-43q-49 0 -49 51zM342 692h338q146 0 231.5 83.5t85.5 230.5q0 144 -85.5 225.5t-229.5 81.5h-340v-621z" />
<glyph unicode="Q" horiz-adv-x="1673" d="M104 729q0 204 95 372.5t263 265.5t374 97q157 0 294 -57t233.5 -155t152 -234t55.5 -289q0 -142 -47 -270.5t-133 -225.5l141 -143q20 -18 20 -36t-18 -36l-16 -16q-19 -19 -36 -19t-32 17l-143 145q-198 -170 -471 -170q-155 0 -292 59t-233 160t-151.5 240t-55.5 295z M252 729q0 -172 76.5 -314t211 -224t296.5 -82q102 0 200 34.5t172 98.5l-141 145q-19 18 -19 36q0 17 17 34l16 16q18 21 37 21l33 -17l139 -145q63 78 98 181.5t35 215.5q0 127 -45 239t-123 191.5t-187 125.5t-232 46q-122 0 -230 -46t-186 -125.5t-123 -191.5t-45 -239z " />
<glyph unicode="R" d="M201 51v1338q0 51 49 51h389q175 0 262 -41q99 -47 156 -140t57 -221q0 -146 -75 -254.5t-197 -142.5v-4q14 -18 37 -57l280 -521q14 -26 4 -42.5t-39 -16.5h-53q-41 0 -59 35l-307 571h-363v-555q0 -51 -49 -51h-43q-49 0 -49 51zM342 733h342q130 0 207.5 82.5 t77.5 218.5q0 86 -40 153t-112 99q-61 27 -188 27h-287v-580z" />
<glyph unicode="S" horiz-adv-x="1077" d="M115 199l24 30q16 20 36 20q16 0 36 -13q33 -27 72 -51.5t112.5 -49t147.5 -24.5q130 0 211.5 67t81.5 178q0 73 -39.5 130t-103 94.5t-139.5 71t-152.5 70.5t-140 81.5t-103 115t-39.5 160.5q0 173 128.5 279t321.5 106q114 0 205.5 -35t145.5 -77q22 -16 22 -37 q0 -14 -10 -31l-19 -33q-14 -25 -37 -25q-15 0 -34 11q-134 92 -277 92q-128 0 -214.5 -65.5t-86.5 -176.5q0 -70 39.5 -123.5t103 -89t139.5 -68t152.5 -69t140 -82t103 -118t39.5 -166.5q0 -171 -119 -283.5t-319 -112.5q-97 0 -190.5 30t-142.5 59.5t-89 62.5 q-18 18 -18 38q0 16 12 34z" />
<glyph unicode="T" horiz-adv-x="1200" d="M12 1364v25q0 51 51 51h1074q51 0 51 -51v-25q0 -51 -51 -51h-467v-1262q0 -51 -49 -51h-41q-52 0 -52 51v1262h-465q-51 0 -51 51z" />
<glyph unicode="U" horiz-adv-x="1464" d="M180 502v887q0 51 51 51h41q52 0 52 -51v-885q0 -185 110 -290t297 -105q188 0 299 106t111 293v881q0 51 51 51h41q49 0 49 -51v-887q0 -238 -151.5 -382.5t-397.5 -144.5q-247 0 -400 144.5t-153 382.5z" />
<glyph unicode="V" horiz-adv-x="1249" d="M37 1380q-9 28 1.5 44t39.5 16h47q46 0 57 -41l383 -1053q12 -33 26 -79.5t22 -76.5l8 -30h4q30 112 55 186l387 1053q11 41 55 41h49q27 0 38 -16t3 -44l-497 -1339q-14 -41 -58 -41h-67q-44 0 -55 41z" />
<glyph unicode="W" horiz-adv-x="1904" d="M88 1384q-6 26 5.5 41t39.5 15h45q43 0 55 -45l269 -1073l33 -154h4q14 80 34 154l297 1075q12 43 56 43h47q43 0 55 -43l295 -1075q10 -33 19.5 -71.5t13.5 -60.5l4 -22h4q13 80 31 154l280 1073q12 45 56 45h45q27 0 38.5 -15t4.5 -41l-357 -1341q-12 -43 -57 -43h-78 q-45 0 -57 43l-266 971q-12 41 -25 94.5t-20 87.5l-7 33h-6q-24 -123 -51 -215l-268 -971q-12 -43 -56 -43h-79q-44 0 -56 45z" />
<glyph unicode="X" horiz-adv-x="1159" d="M60.5 17q-9.5 17 5.5 42l421 693l-381 628q-17 25 -6.5 42.5t41.5 17.5h56q38 0 59 -35l231 -391l95 -166h4q43 92 88 166l233 391q20 35 60 35h55q31 0 41.5 -17.5t-6.5 -42.5l-385 -628l422 -693q18 -25 8 -42t-41 -17h-51q-40 0 -60 35l-280 463l-90 159h-5 q-43 -85 -88 -161l-276 -461q-20 -35 -59 -35h-52q-30 0 -39.5 17z" />
<glyph unicode="Y" horiz-adv-x="1134" d="M40 1422.5q10 17.5 40 17.5h51q41 0 59 -35l287 -487q19 -34 41 -77t34 -69l13 -27h4q45 97 88 173l287 487q18 35 57 35h54q29 0 39.5 -17.5t-4.5 -42.5l-451 -762v-567q0 -51 -51 -51h-41q-49 0 -49 51v567l-453 762q-15 25 -5 42.5z" />
<glyph unicode="Z" horiz-adv-x="1177" d="M68 51v15q0 34 20 63l725 1053q23 35 48 67.5t39 48.5l13 15v4q-34 -4 -106 -4h-649q-49 0 -49 51v25q0 51 49 51h880q52 0 52 -49v-17q0 -33 -21 -63l-725 -1053q-23 -35 -48 -67.5t-38 -48.5l-14 -15v-4q34 4 106 4h697q49 0 49 -51v-25q0 -51 -49 -51h-928 q-51 0 -51 51z" />
<glyph unicode="[" horiz-adv-x="546" d="M178 -143v1587q0 51 49 51h179q49 0 49 -51v-12q0 -52 -49 -52h-99v-1460h99q49 0 49 -51v-12q0 -52 -49 -52h-179q-49 0 -49 52z" />
<glyph unicode="\" horiz-adv-x="788" d="M86 1462q-8 26 3.5 42t39.5 16h27q43 0 57 -41l487 -1508q9 -26 -2.5 -41.5t-38.5 -15.5h-26q-46 0 -60 41z" />
<glyph unicode="]" horiz-adv-x="546" d="M92 -131q0 51 51 51h97v1460h-97q-51 0 -51 52v12q0 51 51 51h176q50 0 50 -51v-1587q0 -52 -50 -52h-176q-51 0 -51 52v12z" />
<glyph unicode="^" horiz-adv-x="1241" d="M175.5 527.5q-10.5 15.5 0.5 43.5l363 830q17 39 59 39h12q43 0 60 -39l362 -830q11 -28 0.5 -43.5t-39.5 -15.5h-28q-44 0 -58 39l-303 719l-303 -719q-17 -39 -59 -39h-27q-29 0 -39.5 15.5z" />
<glyph unicode="_" horiz-adv-x="1101" d="M23 -51q0 51 49 51h956q51 0 51 -51v-17q0 -51 -51 -51h-956q-49 0 -49 51v17z" />
<glyph unicode="`" horiz-adv-x="1032" d="M398.5 1766q7.5 18 39.5 18h47q40 0 60 -35l90 -152q14 -23 7 -40t-34 -17h-28q-39 0 -62 33l-108 149q-19 26 -11.5 44z" />
<glyph unicode="a" horiz-adv-x="1040" d="M70 276q0 355 628 355h60v33q0 266 -254 266q-133 0 -250 -72q-16 -8 -30 -8q-24 0 -40 24l-12 21q-11 18 -11 33q0 22 25 37q145 90 328 90q185 0 284 -101.5t99 -294.5v-608q0 -51 -49 -51h-33q-51 0 -51 51v82q0 21 1.5 40.5t2.5 28.5l2 9h-4q2 0 -10 -24.5t-38.5 -59 t-65 -69t-100.5 -59t-134 -24.5q-66 0 -127.5 19.5t-111.5 56t-79.5 95t-29.5 130.5zM213 289q0 -79 60.5 -138t168.5 -59q95 0 169 59.5t110.5 146t36.5 179.5v49h-58q-46 0 -79 -1t-87.5 -6t-94 -13.5t-85 -26.5t-74 -42t-48 -62t-19.5 -86z" />
<glyph unicode="b" horiz-adv-x="1189" d="M160 51v1338q0 51 49 51h39q51 0 51 -51v-461q0 -21 -2 -42t-4 -32l-2 -10h4q4 9 11.5 23t37.5 50.5t66.5 64t100.5 50.5t138 23q205 0 327 -149.5t122 -389.5q0 -244 -130 -392.5t-335 -148.5q-70 0 -131 22t-98.5 53.5t-65 63.5t-38.5 54l-11 22h-4q8 -30 8 -75v-68 q0 -47 -51 -47h-33q-49 0 -49 51zM295 514q0 -81 20.5 -154t60 -132t103 -93.5t142.5 -34.5q143 0 238 111.5t95 302.5q0 187 -90.5 300.5t-234.5 113.5q-67 0 -125.5 -24.5t-106 -73t-75 -130t-27.5 -186.5z" />
<glyph unicode="c" horiz-adv-x="1089" d="M88 514q0 156 71.5 280t195 192.5t274.5 68.5q196 0 342 -117q21 -15 21 -34q0 -16 -15 -36l-14 -22q-14 -22 -35 -22q-16 0 -35 12q-121 94 -260 94q-171 0 -286.5 -117t-115.5 -299q0 -181 116 -297.5t288 -116.5q161 0 291 109q17 13 32 13q20 0 35 -25l15 -21 q9 -15 9 -29q0 -22 -22 -41q-161 -131 -366 -131q-152 0 -275.5 67.5t-194.5 191t-71 280.5z" />
<glyph unicode="d" horiz-adv-x="1189" d="M92 516q0 242 129.5 390.5t333.5 148.5q70 0 130.5 -21.5t97 -51.5t63 -60.5t36.5 -51.5l11 -22h4q-6 35 -6 78v463q0 51 51 51h39q49 0 49 -51v-1338q0 -51 -49 -51h-35q-51 0 -51 49v78q0 16 2 32t4 23l2 8h-4q-2 -4 -5.5 -12t-18 -30.5t-32 -42.5t-48 -45t-65.5 -43 t-84.5 -30t-104.5 -12q-205 0 -327 149.5t-122 391.5zM236 516q0 -189 89.5 -302.5t235.5 -113.5q67 0 125.5 24.5t106 73t75 130.5t27.5 188q0 64 -12.5 123.5t-39.5 112t-65 91.5t-92.5 62t-118.5 23q-141 0 -236 -111.5t-95 -300.5z" />
<glyph unicode="e" horiz-adv-x="1114" d="M90 514q0 124 40 227t109.5 171t161.5 105.5t197 37.5q202 0 316 -134t114 -358q0 -22 -15 -36.5t-38 -14.5h-742q3 -127 58.5 -222t144.5 -142.5t197 -47.5q149 0 270 95q18 11 32 11q21 0 36 -24l16 -24q9 -16 9 -29q0 -22 -23 -39q-154 -115 -344 -115 q-232 0 -385.5 151.5t-153.5 387.5zM240 616h647q-6 156 -88.5 240t-204.5 84q-133 0 -231.5 -86t-122.5 -238z" />
<glyph unicode="f" horiz-adv-x="624" d="M63 954v17q0 51 50 51h82v47q0 78 18 141t49 103t67 68.5t77 42.5t73.5 20t61.5 6h22q49 0 49 -51v-25q0 -25 -13 -36t-42 -13q-32 -1 -57.5 -6t-58.5 -21t-54.5 -42t-37 -74.5t-15.5 -114.5v-45h213q49 0 49 -51v-17q0 -49 -49 -49h-213v-854q0 -51 -51 -51h-39 q-49 0 -49 51v854h-82q-50 0 -50 49z" />
<glyph unicode="g" horiz-adv-x="1175" d="M94 541q0 231 121.5 372.5t333.5 141.5q54 0 102 -10.5t81 -27t60.5 -37t44 -40.5t28 -36.5t15.5 -27.5l5 -10h4q-4 15 -4 35v84q0 45 49 45h33q51 0 51 -51v-954q0 -118 -41.5 -208.5t-112 -143t-155.5 -78t-181 -25.5q-162 0 -297 61q-31 14 -31 39q0 12 7 27l12 29 q14 27 40 27q12 0 26 -5q119 -53 239 -53q154 0 254.5 80.5t100.5 242.5v107l6 74h-4q-101 -193 -328 -193q-206 0 -332.5 148t-126.5 387zM238 545q0 -192 91 -303t244 -111q64 0 117.5 21t97.5 66t68.5 124.5t24.5 187.5q0 110 -25 190.5t-71 124.5t-101 64.5t-123 20.5 q-155 0 -239 -102t-84 -283z" />
<glyph unicode="h" horiz-adv-x="1198" d="M160 51v1338q0 51 49 51h39q51 0 51 -51v-515q0 -21 -2 -41.5t-4 -30.5l-2 -11h4q16 40 49 82.5t83 85t124 69.5t156 27q185 0 265.5 -100.5t80.5 -299.5v-604q0 -51 -49 -51h-39q-52 0 -52 51v567q0 55 -4 95t-17.5 82t-37.5 68.5t-66 43.5t-100 17q-164 0 -276.5 -121 t-112.5 -305v-447q0 -51 -51 -51h-39q-49 0 -49 51z" />
<glyph unicode="i" horiz-adv-x="456" d="M154 1315v74q0 51 49 51h51q49 0 49 -51v-74q0 -49 -49 -49h-51q-49 0 -49 49zM158 51v928q0 51 51 51h39q49 0 49 -51v-928q0 -51 -49 -51h-39q-51 0 -51 51z" />
<glyph unicode="j" horiz-adv-x="456" d="M-121 -348q0 46 51 49q32 2 58 7.5t60 22.5t57 44t39 76.5t16 115.5v1012q0 51 49 51h39q51 0 51 -51v-1016q0 -95 -27.5 -168.5t-66.5 -113t-90 -64.5t-89.5 -32t-74.5 -7h-21q-51 0 -51 51v23zM154 1315v74q0 51 49 51h51q49 0 49 -51v-74q0 -49 -49 -49h-51 q-49 0 -49 49z" />
<glyph unicode="k" horiz-adv-x="995" d="M160 51v1338q0 51 49 51h39q51 0 51 -51v-752h166l285 362q25 31 61 31h51q31 0 40 -18t-11 -43l-311 -387v-4l356 -517q17 -26 7 -43.5t-42 -17.5h-53q-40 0 -60 35l-321 479h-168v-463q0 -51 -51 -51h-39q-49 0 -49 51z" />
<glyph unicode="l" horiz-adv-x="499" d="M160 244v1145q0 51 49 51h39q51 0 51 -51v-1121q0 -46 9.5 -76.5t28 -44.5t33 -19.5t36.5 -8.5q43 -3 43 -45v-31q0 -51 -54 -51q-30 0 -57 4.5t-61.5 20t-58.5 41.5t-41 74t-17 112z" />
<glyph unicode="m" horiz-adv-x="1855" d="M158 51v928q0 51 51 51h37q49 0 49 -51v-119q0 -18 -2 -36.5t-4 -27.5l-2 -10h4q39 107 149.5 188t229.5 81q141 0 218 -64.5t99 -193.5h4q46 105 151 181.5t228 76.5q181 0 261.5 -101t80.5 -299v-604q0 -51 -51 -51h-37q-51 0 -51 51v570q0 69 -9 120t-31.5 95.5 t-68 68t-112.5 23.5q-100 0 -180.5 -63.5t-123 -161t-42.5 -205.5v-447q0 -51 -50 -51h-38q-52 0 -52 51v570q0 44 -2.5 77.5t-10 71t-23 64t-38.5 49t-59.5 34t-83.5 11.5q-100 0 -182.5 -64.5t-126 -162t-43.5 -203.5v-447q0 -51 -49 -51h-39q-51 0 -51 51z" />
<glyph unicode="n" horiz-adv-x="1196" d="M158 51v928q0 51 51 51h37q49 0 49 -51v-119q0 -18 -2 -36.5t-4 -27.5l-2 -10h4q13 31 35 64.5t59 71t82 66.5t108 48t132 19q185 0 265.5 -100.5t80.5 -299.5v-604q0 -51 -52 -51h-38q-50 0 -50 51v567q0 55 -4 95t-18 82t-38 68.5t-65.5 43.5t-99.5 17 q-165 0 -278 -120.5t-113 -299.5v-453q0 -51 -49 -51h-39q-51 0 -51 51z" />
<glyph unicode="o" horiz-adv-x="1259" d="M86 520q0 149 73 272.5t197.5 193t272.5 69.5q149 0 274 -69.5t198 -192.5t73 -273q0 -114 -43 -216t-116 -173.5t-173 -113.5t-211 -42t-211.5 42t-174 113.5t-116.5 173.5t-43 216zM229 520q0 -178 117.5 -299t284.5 -121q166 0 282.5 121t116.5 299 q0 173 -116.5 291.5t-282.5 118.5q-167 0 -284.5 -118.5t-117.5 -291.5z" />
<glyph unicode="p" horiz-adv-x="1189" d="M160 -358v1337q0 51 49 51h33q49 0 49 -47v-74q0 -18 -1.5 -35.5t-3.5 -25.5l-1 -8h4q4 9 11.5 23.5t37 51.5t67 65.5t103 51.5t141.5 23q205 0 327 -149.5t122 -391.5t-130 -390.5t-333 -148.5q-51 0 -97.5 11.5t-79.5 30t-61.5 40.5t-46.5 44.5t-31 41t-19 29.5l-5 12 h-4q8 -37 8 -90v-452q0 -52 -51 -52h-39q-49 0 -49 52zM295 512q0 -106 36.5 -198.5t112.5 -153t177 -60.5q143 0 238 111.5t95 302.5q0 187 -90.5 300.5t-234.5 113.5q-67 0 -125.5 -24.5t-106 -73t-75 -130.5t-27.5 -188z" />
<glyph unicode="q" horiz-adv-x="1189" d="M92 516q0 243 129.5 391t335.5 148q51 0 98 -11.5t80.5 -30t62 -41t46.5 -45.5t31 -41.5t19 -29.5l5 -12h4q-6 28 -6 69v72q0 21 13.5 33t37.5 12h33q49 0 49 -51v-1337q0 -52 -49 -52h-39q-51 0 -51 52v456q0 24 2 46.5t4 33.5l2 10h-4q-4 -9 -11 -23t-36.5 -51 t-66.5 -65t-101.5 -51t-140.5 -23q-204 0 -325.5 149.5t-121.5 391.5zM236 516q0 -189 89.5 -302.5t235.5 -113.5q67 0 125.5 24.5t106 73t75 130.5t27.5 188q0 64 -12.5 123.5t-39.5 112t-65 91.5t-92.5 62t-118.5 23q-141 0 -236 -111.5t-95 -300.5z" />
<glyph unicode="r" horiz-adv-x="692" d="M158 51v928q0 51 51 51h37q49 0 49 -51v-139q0 -20 -2 -40.5t-4 -31.5l-2 -10h4q39 120 127 199t205 79q53 0 53 -49v-37q0 -24 -15.5 -37.5t-42.5 -13.5q-78 0 -141 -41.5t-101.5 -109.5t-58.5 -148.5t-20 -163.5v-385q0 -51 -49 -51h-39q-51 0 -51 51z" />
<glyph unicode="s" horiz-adv-x="882" d="M94 164l17 20q15 21 35 21q15 0 34 -12q122 -95 273 -95q90 0 149.5 43.5t59.5 122.5q0 41 -23.5 74t-62.5 54t-88.5 42.5t-101 39.5t-101 45t-88.5 58t-62.5 79.5t-23.5 109.5q0 92 49 158.5t127 98.5t174 32q165 0 282 -84q25 -15 25 -37q0 -14 -10 -31l-15 -22 q-13 -25 -36 -25q-14 0 -33 10q-95 66 -221 66q-88 0 -145.5 -40t-57.5 -120q0 -48 30.5 -84.5t78.5 -60.5t106.5 -45.5t117.5 -47.5t107 -58.5t78.5 -86t30.5 -123.5q0 -128 -97.5 -209.5t-250.5 -81.5q-119 0 -207 37t-142 82q-21 15 -21 35q0 16 13 35z" />
<glyph unicode="t" horiz-adv-x="655" d="M63 954v17q0 51 50 51h88v242q0 51 51 51h37q49 0 49 -51v-242h209q51 0 51 -51v-17q0 -49 -51 -49h-209v-516q0 -259 225 -270q31 -3 43 -14t12 -37v-27q0 -49 -57 -49q-170 0 -266 99.5t-96 279.5v534h-86q-50 0 -50 49z" />
<glyph unicode="u" horiz-adv-x="1187" d="M145 375v604q0 51 50 51h38q52 0 52 -51v-567q0 -55 4 -95t17.5 -82t37 -68.5t65 -43.5t99.5 -17q114 0 202.5 61.5t133.5 159t45 210.5v442q0 51 51 51h39q49 0 49 -51v-928q0 -51 -49 -51h-37q-49 0 -49 51v119l6 74h-4q-16 -41 -49 -85t-82.5 -86.5t-122 -70 t-152.5 -27.5q-180 0 -262 98t-82 302z" />
<glyph unicode="v" horiz-adv-x="978" d="M41 971q-10 27 0.5 43t38.5 16h45q44 0 55 -41l273 -715q8 -23 16.5 -54t12.5 -50l5 -20h5q16 71 36 124l271 715q11 41 55 41h43q46 0 46 -34q0 -11 -5 -25l-358 -932q-12 -39 -56 -39h-67q-44 0 -58 39z" />
<glyph unicode="w" horiz-adv-x="1630" d="M47 973q-8 26 3.5 41.5t39.5 15.5h43q46 0 57 -43l236 -725l31 -110h4q17 61 33 110l239 723q11 41 58 41h49q46 0 57 -41l240 -723l32 -110h5q12 59 30 110l236 725q11 43 57 43h43q27 0 38 -15t3 -42l-315 -930q-11 -43 -58 -43h-63q-47 0 -58 43l-239 690l-31 111h-4 q-15 -60 -33 -111l-237 -690q-11 -43 -58 -43h-63q-46 0 -60 43z" />
<glyph unicode="x" horiz-adv-x="958" d="M60.5 17.5q-9.5 17.5 7.5 43.5l321 476l-291 432q-17 26 -7.5 43.5t40.5 17.5h51q41 0 58 -35l202 -311l35 -59h4q19 32 35 59l201 311q20 35 59 35h51q31 0 40.5 -17.5t-7.5 -43.5l-293 -432l322 -476q17 -26 7.5 -43.5t-40.5 -17.5h-49q-39 0 -59 35l-232 352l-35 57 h-4q-17 -28 -35 -57l-231 -352q-20 -35 -59 -35h-50q-32 0 -41.5 17.5z" />
<glyph unicode="y" horiz-adv-x="1005" d="M19 -365.5q-6 18.5 4 37.5l12 23q14 27 41 27q9 0 20 -3q60 -26 90 -26q119 0 193 170l61 145l-405 963q-10 26 0.5 42.5t38.5 16.5h47q43 0 57 -39l289 -712l37 -109h4q15 58 35 109l282 710q14 41 58 41h45q28 0 39 -15.5t2 -43.5l-486 -1180q-41 -102 -118.5 -161.5 t-178.5 -59.5q-65 0 -141 37q-20 9 -26 27.5z" />
<glyph unicode="z" horiz-adv-x="1005" d="M70 45v14q0 34 20 60l553 694q18 23 38.5 46.5t32.5 35.5l11 12v4q-34 -4 -102 -4h-480q-49 0 -49 49v23q0 51 49 51h721q49 0 49 -45v-14q0 -34 -20 -60l-555 -694q-17 -23 -38 -46.5t-34 -35.5l-12 -12v-4q36 4 104 4h527q49 0 49 -49v-23q0 -51 -49 -51h-766 q-49 0 -49 45z" />
<glyph unicode="{" horiz-adv-x="628" d="M61 641v41q0 20 9.5 31.5t31.5 23.5q51 19 92.5 72t41.5 152v167q0 92 22 162.5t53 108t71 60.5t69 29.5t55 6.5h16q49 0 49 -49v-19q0 -51 -49 -51q-17 0 -33.5 -3.5t-40 -18.5t-41 -40.5t-30 -75.5t-12.5 -118v-196q0 -56 -17 -103.5t-41 -75t-48 -47t-41 -26.5l-17 -8 v-5q7 -2 18 -6.5t39 -25t50 -46.5t39.5 -74.5t17.5 -107.5v-223q0 -68 12.5 -118t30 -75.5t41 -40.5t40 -18.5t33.5 -3.5q49 0 49 -49v-18q0 -52 -49 -52h-16q-26 0 -55 6.5t-69 29.5t-71 60.5t-53 108.5t-22 164v195q0 166 -134 221q-22 12 -31.5 23.5t-9.5 31.5z" />
<glyph unicode="|" horiz-adv-x="479" d="M176 -270v1835q0 49 49 49h29q51 0 51 -49v-1835q0 -52 -51 -52h-29q-49 0 -49 52z" />
<glyph unicode="}" horiz-adv-x="630" d="M57 -129q0 49 52 49q16 0 32 3.5t40 18.5t41 40.5t29.5 76t12.5 117.5v223q0 59 17 107t41 75t48 46t41 25l17 7v5q-7 2 -18 7.5t-39 26.5t-50 47.5t-39.5 74.5t-17.5 104v196q0 67 -12.5 117.5t-29.5 76t-41 40.5t-40 18.5t-32 3.5q-52 0 -52 51v19q0 49 52 49h14 q26 0 55.5 -6.5t69.5 -29.5t70.5 -60.5t52.5 -108t22 -162.5v-167q0 -53 13.5 -95t35.5 -67t43 -39.5t43 -22.5q21 -12 30 -23.5t9 -31.5v-41q0 -20 -9.5 -32t-31.5 -23q-22 -9 -42 -23t-42.5 -39t-35.5 -66t-13 -93v-195q0 -93 -22 -164t-52.5 -108.5t-70.5 -60.5 t-69.5 -29.5t-55.5 -6.5h-14q-52 0 -52 52v18z" />
<glyph unicode="~" horiz-adv-x="1198" d="M137 498q14 127 81.5 187t174.5 60q62 0 111 -22t81 -53.5t61 -62.5t68 -53t87 -22q67 0 100 48t39 110q12 47 53 47h23q53 0 47 -53q-10 -135 -78 -199.5t-178 -64.5q-62 0 -111 22t-81 53t-61 62.5t-68 53.5t-87 22q-47 0 -79.5 -27t-44 -59.5t-15.5 -71.5 q-12 -47 -55 -47h-21q-25 0 -37.5 18.5t-9.5 51.5z" />
<glyph unicode="&#xa1;" horiz-adv-x="501" d="M168 918v59q0 51 49 51h62q49 0 49 -51v-59q0 -52 -49 -52h-62q-49 0 -49 52zM178 -360l6 962q0 49 49 49h31q51 0 51 -49l7 -962q0 -52 -52 -52h-43q-49 0 -49 52z" />
<glyph unicode="&#xa2;" horiz-adv-x="1136" d="M109 721q0 231 113 389.5t317 181.5v121q0 51 49 51h16q49 0 49 -45v-127q117 -12 211 -81t150 -175q21 -44 -27 -65l-37 -15q-26 -7 -39 -1t-26 26q-101 180 -283 180q-171 0 -259.5 -123t-88.5 -319q0 -195 88 -316.5t260 -121.5q184 0 283 180q23 37 65 22l37 -14 q23 -9 30.5 -26.5t-3.5 -39.5q-57 -107 -150 -176.5t-211 -79.5v-122q0 -52 -49 -52h-16q-49 0 -49 52v122q-204 23 -317 182t-113 392z" />
<glyph unicode="&#xa3;" horiz-adv-x="1157" d="M111 51v25q0 51 51 51h80v541h-49q-50 0 -50 49v12q0 51 50 51h49v305q0 162 119.5 270.5t302.5 108.5q155 0 280 -86q43 -29 6 -69l-20 -27q-27 -34 -70 -8q-97 57 -194 57q-130 0 -205.5 -73.5t-75.5 -180.5v-297h342q49 0 49 -51v-12q0 -49 -49 -49h-342v-541h643 q51 0 51 -51v-25q0 -51 -51 -51h-866q-51 0 -51 51z" />
<glyph unicode="&#xa5;" horiz-adv-x="1185" d="M76.5 1422.5q10.5 17.5 40.5 17.5h51q41 0 59 -37l277 -475q19 -36 41 -82t35 -74l12 -27h4q43 101 88 183l277 475q18 37 57 37h53q30 0 40.5 -17.5t-3.5 -42.5l-328 -559h164q51 0 51 -47v-12q0 -45 -51 -45h-223l-55 -101v-79h278q51 0 51 -45v-13q0 -47 -51 -47h-278 v-381q0 -51 -50 -51h-43q-51 0 -51 51v381h-282q-52 0 -52 47v13q0 45 52 45h282v79l-57 101h-225q-52 0 -52 45v12q0 47 48 47h170l-326 559q-14 25 -3.5 42.5z" />
<glyph unicode="&#xa7;" horiz-adv-x="843" d="M135 -39q-3 19 12 39l13 16q23 38 67 15q72 -35 127 -35q98 0 162 60t64 163q0 31 -9 66l-122 823q-5 25 7 40t38 15h20q46 0 55 -45l131 -844q7 -47 7 -71q0 -144 -98 -237t-255 -93q-109 0 -196 57q-20 12 -23 31zM143 1135q0 143 97.5 236t255.5 93q106 0 196 -55 q42 -28 10 -72l-14 -16q-22 -34 -67 -12q-62 32 -125 32q-97 0 -161.5 -59t-64.5 -160q0 -31 6 -61l127 -832q5 -25 -7 -40t-38 -15h-20q-46 0 -55 45l-133 844q-7 44 -7 72z" />
<glyph unicode="&#xa8;" horiz-adv-x="1032" d="M299 1657v76q0 51 49 51h27q49 0 49 -51v-76q0 -49 -49 -49h-27q-49 0 -49 49zM608 1657v76q0 51 49 51h27q51 0 51 -51v-76q0 -49 -51 -49h-27q-49 0 -49 49z" />
<glyph unicode="&#xa9;" horiz-adv-x="1685" d="M115 721q0 152 57.5 290t154.5 237t231 157.5t282 58.5q150 0 285 -58.5t233 -157.5t155.5 -236.5t57.5 -290.5q0 -154 -57.5 -292.5t-155.5 -238t-233 -157.5t-285 -58q-148 0 -282 58.5t-231 157.5t-154.5 237.5t-57.5 292.5zM236 721q0 -176 79 -322t218 -229.5 t307 -83.5q170 0 310.5 83.5t221 229.5t80.5 322q0 175 -80 320t-221 229t-311 84q-168 0 -307 -84t-218 -229t-79 -320zM436 717q0 110 48 204.5t146.5 156t229.5 61.5q103 0 180.5 -46.5t124.5 -101.5q25 -35 -6 -63l-20 -19q-15 -12 -33 -9t-31 20q-90 106 -211 106 q-144 0 -225.5 -90t-81.5 -219q0 -60 20 -114t57 -97t96.5 -68.5t133.5 -25.5q123 0 213 106q31 36 62 8l18 -16q36 -29 8 -64q-130 -147 -305 -147q-99 0 -181 35t-134 93.5t-80.5 133t-28.5 156.5z" />
<glyph unicode="&#xaa;" horiz-adv-x="823" d="M141 586v6q0 45 49 45h441q49 0 49 -45v-6q0 -45 -49 -45h-441q-49 0 -49 45zM145 977q0 227 392 227h24v8q0 152 -143 152q-68 0 -135 -37q-42 -19 -62 14l-6 9q-24 39 21 61q91 49 192 49q120 0 183 -64.5t63 -187.5v-362q0 -51 -47 -51h-11q-47 0 -47 49v57h-4 q-2 -5 -7 -13t-22.5 -28.5t-38 -36t-54.5 -28.5t-72 -13q-92 0 -159 51t-67 144zM260 987q0 -45 32.5 -75.5t92.5 -30.5q79 0 127.5 67t48.5 148v18h-24q-277 0 -277 -127z" />
<glyph unicode="&#xab;" horiz-adv-x="1009" d="M102 543q-30 35 0 69l283 359q22 28 61 28h35q32 0 40.5 -17.5t-11.5 -43.5l-287 -360l287 -359q20 -26 13 -43.5t-38 -17.5h-39q-39 0 -61 28zM471 543q-30 35 0 69l283 359q22 28 61 28h35q32 0 40.5 -17.5t-11.5 -43.5l-287 -360l287 -359q20 -26 13 -43.5t-38 -17.5 h-39q-39 0 -61 28z" />
<glyph unicode="&#xac;" horiz-adv-x="1275" d="M158 750v18q0 51 51 51h854q49 0 49 -51v-395q0 -49 -49 -49h-25q-49 0 -49 49v327h-780q-51 0 -51 50z" />
<glyph unicode="&#xad;" horiz-adv-x="866" d="M143 567v27q0 51 50 51h481q49 0 49 -51v-27q0 -49 -49 -49h-481q-50 0 -50 49z" />
<glyph unicode="&#xae;" horiz-adv-x="1685" d="M115 721q0 152 57.5 290t154.5 237t231 157.5t282 58.5q150 0 285 -58.5t233 -157.5t155.5 -236.5t57.5 -290.5q0 -154 -57.5 -292.5t-155.5 -238t-233 -157.5t-285 -58q-148 0 -282 58.5t-231 157.5t-154.5 237.5t-57.5 292.5zM236 721q0 -176 79 -322t218 -229.5 t307 -83.5q170 0 310.5 83.5t221 229.5t80.5 322q0 175 -80 320t-221 229t-311 84q-168 0 -307 -84t-218 -229t-79 -320zM596 373v696q0 51 49 51h236q106 0 172.5 -65t66.5 -172q0 -84 -44 -140t-105 -71v-4q8 -10 26 -45l125 -242q14 -26 5 -42.5t-37 -16.5h-25 q-43 0 -57 36l-144 287h-151v-272q0 -51 -49 -51h-19q-49 0 -49 51zM713 735h147q65 0 103 39.5t38 108.5q0 67 -37.5 104t-101.5 37h-149v-289z" />
<glyph unicode="&#xaf;" horiz-adv-x="1032" d="M264 1657v14q0 49 51 49h404q49 0 49 -49v-14q0 -49 -49 -49h-404q-51 0 -51 49z" />
<glyph unicode="&#xb0;" horiz-adv-x="761" d="M92 1178q0 117 84.5 200.5t204.5 83.5q118 0 202.5 -83.5t84.5 -200.5q0 -118 -84 -201.5t-203 -83.5q-120 0 -204.5 83.5t-84.5 201.5zM215 1178q0 -71 48 -120.5t118 -49.5t118 49.5t48 120.5q0 70 -48 120t-118 50t-118 -50t-48 -120z" />
<glyph unicode="&#xb1;" horiz-adv-x="1241" d="M86 571v19q0 51 51 51h422v471q0 51 49 51h27q49 0 49 -51v-471h420q51 0 51 -51v-19q0 -49 -51 -49h-420v-471q0 -51 -49 -51h-27q-49 0 -49 51v471h-422q-51 0 -51 49zM123 -264q0 51 51 51h893q51 0 51 -51v-19q0 -49 -51 -49h-893q-51 0 -51 49v19z" />
<glyph unicode="&#xb2;" horiz-adv-x="712" d="M66 928q0 70 24.5 129t63.5 99t86 75t94 66t86 61.5t63.5 70.5t24.5 87q0 66 -47 111.5t-121 45.5q-77 0 -147 -65q-38 -30 -70 -2l-4 4q-39 39 -4 69q99 99 229 99q127 0 204 -74t77 -186q0 -61 -23.5 -112.5t-61.5 -87.5t-84.5 -68.5t-93 -62t-85 -60t-64 -71 t-27.5 -87.5h404q49 0 49 -47v-7q0 -49 -49 -49h-473q-51 0 -51 62z" />
<glyph unicode="&#xb3;" horiz-adv-x="722" d="M74 1014l8 8q26 32 68 4q79 -74 184 -74q73 0 131.5 53t58.5 130q0 78 -59.5 125t-136.5 47h-33q-39 0 -51 30q-14 31 12 64l176 205q9 11 21 24t20 20l8 7v4q-36 -6 -75 -6h-265q-49 0 -49 49v6q0 47 49 47h439q51 0 51 -37v-8q0 -27 -25 -55l-219 -256q46 -6 88.5 -23 t81 -47t61.5 -81t23 -115q0 -119 -88.5 -204t-216.5 -85q-158 0 -258 100q-37 30 -4 68z" />
<glyph unicode="&#xb4;" horiz-adv-x="1032" d="M391.5 1557q-9.5 17 5.5 40l90 152q20 35 60 35h47q32 0 40 -18t-11 -44l-109 -149q-23 -33 -61 -33h-23q-29 0 -38.5 17z" />
<glyph unicode="&#xb5;" horiz-adv-x="1275" d="M188 -358v1337q0 51 50 51h38q52 0 52 -51v-567q0 -54 4 -94t17.5 -82.5t36.5 -69t64.5 -43.5t98.5 -17q87 0 160.5 36t121.5 96t74.5 137.5t26.5 161.5v442q0 51 51 51h39q49 0 49 -51v-928q0 -51 -49 -51h-37q-49 0 -49 51v111l2 74h-4q-7 -16 -18.5 -37t-46.5 -64 t-77 -75.5t-112 -58.5t-150 -26q-46 0 -86.5 9t-64.5 21.5t-41 25t-24 21.5l-7 9h-4q12 -104 12 -155v-264q0 -52 -49 -52h-28q-50 0 -50 52z" />
<glyph unicode="&#xb6;" horiz-adv-x="1155" d="M78 969q0 130 66.5 239t178 170.5t242.5 61.5h441q49 0 49 -51v-25q0 -51 -49 -51h-322v-1364q0 -51 -49 -51h-19q-49 0 -49 51v545q-130 0 -242.5 62.5t-179.5 172.5t-67 240zM811 -51v1190q0 51 51 51h17q51 0 51 -51v-1190q0 -51 -51 -51h-17q-51 0 -51 51z" />
<glyph unicode="&#xb7;" horiz-adv-x="450" d="M143 555v70q0 51 52 51h63q49 0 49 -51v-70q0 -49 -49 -49h-63q-52 0 -52 49z" />
<glyph unicode="&#xb8;" horiz-adv-x="1032" d="M371 -371q0 52 32 52q7 0 23 -3.5t31 -3.5q43 0 71.5 16.5t28.5 53.5q0 32 -27.5 50.5t-72.5 21.5q-18 2 -28.5 15.5t-6.5 37.5l39 166h88l-27 -148q64 -9 104 -47t40 -98q0 -83 -56.5 -122.5t-140.5 -39.5q-98 0 -98 49z" />
<glyph unicode="&#xb9;" horiz-adv-x="591" d="M63 915v7q0 47 48 47h147v592l2 49h-2q-8 -14 -41 -49l-55 -54q-30 -26 -58 2l-12 13q-31 35 6 69l140 142q27 24 63 24h21q49 0 49 -49v-739h139q49 0 49 -47v-7q0 -49 -49 -49h-395q-52 0 -52 49z" />
<glyph unicode="&#xba;" horiz-adv-x="940" d="M127 1126q0 141 99.5 238.5t240.5 97.5q143 0 243.5 -97t100.5 -239q0 -145 -100 -243.5t-242 -98.5t-242 98.5t-100 243.5zM162 586v6q0 45 49 45h520q51 0 51 -45v-6q0 -45 -51 -45h-520q-49 0 -49 45zM240 1126q0 -102 66.5 -169.5t162.5 -67.5t162.5 67.5t66.5 169.5 q0 100 -66.5 167t-162.5 67t-162.5 -67t-66.5 -167z" />
<glyph unicode="&#xbb;" horiz-adv-x="1009" d="M119.5 981.5q7.5 17.5 40.5 17.5h37q36 0 61 -28l283 -359q30 -34 0 -69l-283 -357q-25 -28 -61 -28h-35q-32 0 -40.5 17.5t11.5 43.5l285 359l-285 360q-21 26 -13.5 43.5zM487.5 981.5q7.5 17.5 38.5 17.5h37q39 0 64 -28l282 -359q30 -34 0 -69l-282 -357 q-25 -28 -64 -28h-33q-33 0 -41 17.5t11 43.5l286 359l-286 360q-20 26 -12.5 43.5z" />
<glyph unicode="&#xbc;" horiz-adv-x="1880" d="M109 598v6q0 47 47 47h147v592l2 49h-2q-8 -14 -41 -49l-55 -53q-29 -26 -57 2l-13 12q-31 36 6 70l140 141q28 25 63 25h21q49 0 49 -49v-740h139q49 0 49 -47v-6q0 -49 -49 -49h-395q-51 0 -51 49zM531 16.5q-8 16.5 4 42.5l641 1342q17 39 59 39h18q28 0 36.5 -17 t-5.5 -43l-641 -1341q-14 -39 -57 -39h-21q-26 0 -34 16.5zM1124 272v15q0 24 21 51l391 522q22 31 61 31h23q51 0 51 -49v-506h88q47 0 47 -47v-6q0 -50 -47 -50h-88v-182q0 -51 -51 -51h-12q-49 0 -49 51v182h-383q-52 0 -52 39zM1264 336h295v278l6 127h-4 q-31 -55 -66 -100l-231 -301v-4z" />
<glyph unicode="&#xbd;" horiz-adv-x="1851" d="M104 598v6q0 47 48 47h147v592l2 49h-2q-8 -14 -41 -49l-55 -53q-30 -26 -58 2l-12 12q-31 36 6 70l140 141q28 25 63 25h20q50 0 50 -49v-740h139q49 0 49 -47v-6q0 -49 -49 -49h-395q-52 0 -52 49zM528.5 16.5q-8.5 16.5 3.5 42.5l642 1342q17 39 59 39h18 q28 0 36.5 -17t-5.5 -43l-641 -1341q-14 -39 -57 -39h-21q-26 0 -34.5 16.5zM1182 61q0 70 24.5 129t63.5 99t86 75t94 66t86 61.5t63.5 70.5t24.5 87q0 66 -47 112t-121 46q-76 0 -147 -66q-38 -30 -70 -2l-4 4q-39 39 -4 70q98 98 229 98q127 0 204 -74t77 -186 q0 -61 -23.5 -112.5t-61.5 -87.5t-84 -68.5t-92.5 -62t-85 -60t-64 -71t-27.5 -87.5h403q49 0 49 -47v-6q0 -49 -49 -49h-473q-51 0 -51 61z" />
<glyph unicode="&#xbe;" horiz-adv-x="1918" d="M109 696l8 9q25 32 67 4q79 -74 185 -74q73 0 131.5 52.5t58.5 129.5q0 78 -60 125t-137 47h-32q-39 0 -51 31q-13 31 12 63l176 205q9 11 21 24t20 20l8 7v4q-37 -6 -76 -6h-264q-49 0 -49 49v7q0 47 49 47h438q52 0 52 -37v-8q0 -28 -25 -56l-219 -256q46 -6 88.5 -23 t81 -47t61.5 -81t23 -115q0 -119 -88.5 -204t-216.5 -85q-157 0 -258 101q-37 29 -4 67zM569.5 16.5q-8.5 16.5 3.5 42.5l641 1342q17 39 60 39h18q28 0 36.5 -17t-5.5 -43l-641 -1341q-14 -39 -57 -39h-21q-26 0 -34.5 16.5zM1163 272v15q0 24 21 51l391 522q22 31 61 31 h23q51 0 51 -49v-506h88q47 0 47 -47v-6q0 -50 -47 -50h-88v-182q0 -51 -51 -51h-12q-50 0 -50 51v182h-383q-51 0 -51 39zM1303 336h294v278l7 127h-5q-30 -55 -65 -100l-231 -301v-4z" />
<glyph unicode="&#xbf;" horiz-adv-x="927" d="M145 -76q0 68 20 126t51.5 100t70 80t77.5 73t71.5 71.5t53.5 83.5t23 101l2 49q3 43 47 43h39q51 0 51 -51v-47q0 -63 -19.5 -118t-51.5 -95.5t-70 -77.5t-76 -72.5t-70 -72t-51.5 -84.5t-19.5 -103q0 -100 75.5 -167.5t192.5 -67.5q110 0 207 59q48 25 70 -12l16 -25 q32 -43 -10 -69q-128 -86 -289 -86q-176 0 -293 102t-117 260zM502 918v59q0 51 49 51h61q50 0 50 -51v-59q0 -52 -50 -52h-61q-49 0 -49 52z" />
<glyph unicode="&#xc0;" d="M39 59l496 1340q11 41 55 41h67q45 0 56 -41l495 -1340q16 -59 -41 -59h-45q-46 0 -57 41l-154 418h-577l-152 -418q-11 -41 -57 -41h-43q-59 0 -43 59zM375 582h495l-190 522q-10 30 -23.5 77t-21.5 79l-8 32h-4q-33 -120 -56 -188zM419 1766q8 18 40 18h47q39 0 59 -35 l90 -152q14 -23 7.5 -40t-33.5 -17h-29q-38 0 -61 33l-109 149q-19 26 -11 44z" />
<glyph unicode="&#xc1;" d="M39 59l496 1340q11 41 55 41h67q45 0 56 -41l495 -1340q16 -59 -41 -59h-45q-46 0 -57 41l-154 418h-577l-152 -418q-11 -41 -57 -41h-43q-59 0 -43 59zM375 582h495l-190 522q-10 30 -23.5 77t-21.5 79l-8 32h-4q-33 -120 -56 -188zM584.5 1557q-9.5 17 5.5 40l90 152 q20 35 59 35h47q32 0 40 -18t-11 -44l-108 -149q-23 -33 -62 -33h-22q-29 0 -38.5 17z" />
<glyph unicode="&#xc2;" d="M39 59l496 1340q11 41 55 41h67q45 0 56 -41l495 -1340q16 -59 -41 -59h-45q-46 0 -57 41l-154 418h-577l-152 -418q-11 -41 -57 -41h-43q-59 0 -43 59zM375 582h495l-190 522q-10 30 -23.5 77t-21.5 79l-8 32h-4q-33 -120 -56 -188zM406 1558q-7 18 10 44l106 149 q23 33 62 33h75q38 0 64 -33l104 -149q19 -26 12.5 -44t-34.5 -18h-35q-35 0 -55 35l-90 131h-4l-91 -131q-11 -19 -23.5 -27t-33.5 -8h-31q-29 0 -36 18z" />
<glyph unicode="&#xc3;" d="M39 59l496 1340q11 41 55 41h67q45 0 56 -41l495 -1340q16 -59 -41 -59h-45q-46 0 -57 41l-154 418h-577l-152 -418q-11 -41 -57 -41h-43q-59 0 -43 59zM307 1599q0 82 50.5 134.5t129.5 52.5q39 0 72 -15t56 -37t44 -44t44.5 -37t48.5 -15q37 0 57 30.5t22 72.5 q0 39 48 39h16q43 0 43 -47q0 -89 -48.5 -141t-131.5 -52q-39 0 -72 15t-56 36.5t-43.5 43t-44 36.5t-48.5 15q-38 0 -59 -31t-21 -74q-3 -35 -47 -35h-15q-45 0 -45 53zM375 582h495l-190 522q-10 30 -23.5 77t-21.5 79l-8 32h-4q-33 -120 -56 -188z" />
<glyph unicode="&#xc4;" d="M39 59l496 1340q11 41 55 41h67q45 0 56 -41l495 -1340q16 -59 -41 -59h-45q-46 0 -57 41l-154 418h-577l-152 -418q-11 -41 -57 -41h-43q-59 0 -43 59zM375 582h495l-190 522q-10 30 -23.5 77t-21.5 79l-8 32h-4q-33 -120 -56 -188zM406 1657v76q0 51 49 51h26 q49 0 49 -51v-76q0 -49 -49 -49h-26q-49 0 -49 49zM715 1657v76q0 51 49 51h27q51 0 51 -51v-76q0 -49 -51 -49h-27q-49 0 -49 49z" />
<glyph unicode="&#xc5;" d="M39 59l496 1340q11 41 55 41h67q45 0 56 -41l495 -1340q16 -59 -41 -59h-45q-46 0 -57 41l-154 418h-577l-152 -418q-11 -41 -57 -41h-43q-59 0 -43 59zM375 582h495l-190 522q-10 30 -23.5 77t-21.5 79l-8 32h-4q-33 -120 -56 -188zM469 1663q0 63 45 104t109 41 t109.5 -41t45.5 -104t-45.5 -104t-109.5 -41t-109 41t-45 104zM557 1663q0 -29 18.5 -48.5t47.5 -19.5q30 0 48.5 19t18.5 49q0 31 -18.5 50.5t-48.5 19.5q-29 0 -47.5 -19.5t-18.5 -50.5z" />
<glyph unicode="&#xc6;" horiz-adv-x="1705" d="M31 59l553 1342q14 39 57 39h893q51 0 51 -51v-25q0 -51 -51 -51h-619v-525h498q49 0 49 -49v-26q0 -51 -49 -51h-498v-535h656q51 0 51 -51v-25q0 -51 -51 -51h-746q-51 0 -51 51v613h-348l-254 -625q-14 -39 -57 -39h-45q-28 0 -38.5 16.5t-0.5 42.5zM475 786h299v527 h-84z" />
<glyph unicode="&#xc7;" horiz-adv-x="1458" d="M106 729q0 155 54 291t148 233.5t229.5 154t291.5 56.5q90 0 172.5 -16t143 -42.5t99 -48.5t69.5 -46q34 -27 8 -72l-18 -27q-27 -37 -70 -8q-180 127 -399 127q-171 0 -304.5 -79.5t-204.5 -215.5t-71 -305q0 -171 71 -312t206.5 -225.5t308.5 -84.5q237 0 428 155 q41 32 69 -6l19 -22q30 -38 -4 -72q-32 -28 -71.5 -54t-102.5 -58.5t-147 -53.5t-175 -23l-16 -88q64 -9 103.5 -47t39.5 -98q0 -83 -56.5 -122.5t-140.5 -39.5q-98 0 -98 49q0 22 8.5 37t24.5 15q7 0 22.5 -3.5t30.5 -3.5q43 0 71.5 16.5t28.5 53.5q0 32 -27.5 50.5 t-72.5 21.5q-18 2 -28.5 15.5t-6.5 37.5l25 111q-195 16 -345.5 119.5t-231.5 267.5t-81 362z" />
<glyph unicode="&#xc8;" horiz-adv-x="1132" d="M201 51v1338q0 51 49 51h711q51 0 51 -51v-25q0 -51 -51 -51h-619v-525h496q51 0 51 -49v-26q0 -51 -51 -51h-496v-535h655q52 0 52 -51v-25q0 -51 -52 -51h-747q-49 0 -49 51zM425 1766q8 18 40 18h47q39 0 59 -35l91 -152q14 -23 7 -40t-34 -17h-29q-38 0 -61 33 l-109 149q-19 26 -11 44z" />
<glyph unicode="&#xc9;" horiz-adv-x="1132" d="M201 51v1338q0 51 49 51h711q51 0 51 -51v-25q0 -51 -51 -51h-619v-525h496q51 0 51 -49v-26q0 -51 -51 -51h-496v-535h655q52 0 52 -51v-25q0 -51 -52 -51h-747q-49 0 -49 51zM588.5 1557q-9.5 17 5.5 40l90 152q20 35 59 35h48q32 0 39.5 -18t-11.5 -44l-108 -149 q-23 -33 -62 -33h-22q-29 0 -38.5 17z" />
<glyph unicode="&#xca;" horiz-adv-x="1132" d="M201 51v1338q0 51 49 51h711q51 0 51 -51v-25q0 -51 -51 -51h-619v-525h496q51 0 51 -49v-26q0 -51 -51 -51h-496v-535h655q52 0 52 -51v-25q0 -51 -52 -51h-747q-49 0 -49 51zM412.5 1558q-7.5 18 9.5 44l106 149q23 33 62 33h76q37 0 63 -33l105 -149q19 -26 12 -44 t-35 -18h-35q-35 0 -55 35l-90 131h-4l-90 -131q-20 -35 -58 -35h-30q-29 0 -36.5 18z" />
<glyph unicode="&#xcb;" horiz-adv-x="1132" d="M201 51v1338q0 51 49 51h711q51 0 51 -51v-25q0 -51 -51 -51h-619v-525h496q51 0 51 -49v-26q0 -51 -51 -51h-496v-535h655q52 0 52 -51v-25q0 -51 -52 -51h-747q-49 0 -49 51zM412 1657v76q0 51 49 51h26q50 0 50 -51v-76q0 -49 -50 -49h-26q-49 0 -49 49zM721 1657v76 q0 51 49 51h27q51 0 51 -51v-76q0 -49 -51 -49h-27q-49 0 -49 49z" />
<glyph unicode="&#xcc;" horiz-adv-x="542" d="M69 1766q8 18 40 18h47q39 0 59 -35l90 -152q14 -23 7.5 -40t-33.5 -17h-29q-39 0 -62 33l-108 149q-19 26 -11 44zM201 51v1338q0 51 49 51h43q49 0 49 -51v-1338q0 -51 -49 -51h-43q-49 0 -49 51z" />
<glyph unicode="&#xcd;" horiz-adv-x="542" d="M201 51v1338q0 51 49 51h43q49 0 49 -51v-1338q0 -51 -49 -51h-43q-49 0 -49 51zM234 1557q-9 17 6 40l90 152q20 35 59 35h47q32 0 40 -18t-11 -44l-109 -149q-23 -33 -61 -33h-23q-29 0 -38 17z" />
<glyph unicode="&#xce;" horiz-adv-x="542" d="M58 1558q-7 18 10 44l106 149q23 33 62 33h75q38 0 64 -33l104 -149q19 -26 12.5 -44t-34.5 -18h-35q-35 0 -55 35l-91 131h-4l-90 -131q-11 -19 -23.5 -27t-33.5 -8h-31q-29 0 -36 18zM201 51v1338q0 51 49 51h43q49 0 49 -51v-1338q0 -51 -49 -51h-43q-49 0 -49 51z " />
<glyph unicode="&#xcf;" horiz-adv-x="542" d="M57 1657v76q0 51 49 51h27q49 0 49 -51v-76q0 -49 -49 -49h-27q-49 0 -49 49zM201 51v1338q0 51 49 51h43q49 0 49 -51v-1338q0 -51 -49 -51h-43q-49 0 -49 51zM367 1657v76q0 51 49 51h26q52 0 52 -51v-76q0 -49 -52 -49h-26q-49 0 -49 49z" />
<glyph unicode="&#xd0;" horiz-adv-x="1497" d="M80 713v22q0 49 39 49h82v605q0 51 51 51h414q216 0 378.5 -84t253.5 -247.5t91 -387.5q0 -339 -197 -530t-526 -191h-414q-51 0 -51 51v611h-72q-49 0 -49 51zM342 127h309q271 0 430.5 154.5t159.5 439.5q0 282 -159.5 437t-430.5 155h-309v-529h293q51 0 51 -49v-22 q0 -51 -49 -51h-295v-535z" />
<glyph unicode="&#xd1;" horiz-adv-x="1525" d="M201 51v1338q0 51 49 51h49q38 0 61 -33l713 -1004q22 -32 51.5 -80.5t48.5 -80.5l19 -33h4q-12 118 -12 194v986q0 51 51 51h41q49 0 49 -51v-1338q0 -51 -49 -51h-49q-40 0 -60 33l-714 1003q-22 32 -51.5 81t-48.5 81l-19 33h-4q12 -119 12 -195v-985q0 -51 -49 -51 h-43q-49 0 -49 51zM446 1599q0 82 51 134.5t130 52.5q39 0 72 -15t56 -37t43.5 -44t44 -37t48.5 -15q37 0 57.5 30.5t22.5 72.5q0 39 47 39h16q43 0 43 -47q0 -89 -48.5 -141t-131.5 -52q-39 0 -72 15t-56 36.5t-43.5 43t-44 36.5t-48.5 15q-38 0 -59 -31t-21 -74 q-3 -35 -47 -35h-14q-46 0 -46 53z" />
<glyph unicode="&#xd2;" horiz-adv-x="1673" d="M102 729q0 153 56 289t153 234t233.5 155t291.5 57q207 0 375.5 -97t263 -265t94.5 -373q0 -209 -94.5 -381.5t-263 -272.5t-375.5 -100q-155 0 -291.5 59t-233.5 159.5t-153 240t-56 295.5zM250 729q0 -173 76 -315t210.5 -223.5t299.5 -81.5q166 0 300.5 81.5 t209.5 223.5t75 315q0 169 -75 306.5t-209.5 216.5t-300.5 79q-165 0 -299.5 -78.5t-210.5 -216.5t-76 -307zM632 1766q8 18 40 18h47q39 0 59 -35l90 -152q14 -23 7.5 -40t-33.5 -17h-29q-38 0 -61 33l-109 149q-19 26 -11 44z" />
<glyph unicode="&#xd3;" horiz-adv-x="1673" d="M102 729q0 153 56 289t153 234t233.5 155t291.5 57q207 0 375.5 -97t263 -265t94.5 -373q0 -209 -94.5 -381.5t-263 -272.5t-375.5 -100q-155 0 -291.5 59t-233.5 159.5t-153 240t-56 295.5zM250 729q0 -173 76 -315t210.5 -223.5t299.5 -81.5q166 0 300.5 81.5 t209.5 223.5t75 315q0 169 -75 306.5t-209.5 216.5t-300.5 79q-165 0 -299.5 -78.5t-210.5 -216.5t-76 -307zM795.5 1557q-9.5 17 5.5 40l90 152q20 35 59 35h47q32 0 40 -18t-11 -44l-108 -149q-23 -33 -62 -33h-22q-29 0 -38.5 17z" />
<glyph unicode="&#xd4;" horiz-adv-x="1673" d="M102 729q0 153 56 289t153 234t233.5 155t291.5 57q207 0 375.5 -97t263 -265t94.5 -373q0 -209 -94.5 -381.5t-263 -272.5t-375.5 -100q-155 0 -291.5 59t-233.5 159.5t-153 240t-56 295.5zM250 729q0 -173 76 -315t210.5 -223.5t299.5 -81.5q166 0 300.5 81.5 t209.5 223.5t75 315q0 169 -75 306.5t-209.5 216.5t-300.5 79q-165 0 -299.5 -78.5t-210.5 -216.5t-76 -307zM619 1558q-7 18 10 44l106 149q23 33 62 33h75q38 0 64 -33l104 -149q19 -26 12.5 -44t-34.5 -18h-35q-35 0 -55 35l-90 131h-4l-91 -131q-11 -19 -23.5 -27 t-33.5 -8h-31q-29 0 -36 18z" />
<glyph unicode="&#xd5;" horiz-adv-x="1673" d="M102 729q0 153 56 289t153 234t233.5 155t291.5 57q207 0 375.5 -97t263 -265t94.5 -373q0 -209 -94.5 -381.5t-263 -272.5t-375.5 -100q-155 0 -291.5 59t-233.5 159.5t-153 240t-56 295.5zM250 729q0 -173 76 -315t210.5 -223.5t299.5 -81.5q166 0 300.5 81.5 t209.5 223.5t75 315q0 169 -75 306.5t-209.5 216.5t-300.5 79q-165 0 -299.5 -78.5t-210.5 -216.5t-76 -307zM520 1599q0 82 50.5 134.5t129.5 52.5q39 0 72 -15t56 -37t44 -44t44.5 -37t48.5 -15q37 0 57 30.5t22 72.5q0 39 48 39h16q43 0 43 -47q0 -89 -48.5 -141 t-131.5 -52q-39 0 -72 15t-56 36.5t-43.5 43t-44 36.5t-48.5 15q-38 0 -59 -31t-21 -74q-3 -35 -47 -35h-15q-45 0 -45 53z" />
<glyph unicode="&#xd6;" horiz-adv-x="1673" d="M102 729q0 153 56 289t153 234t233.5 155t291.5 57q207 0 375.5 -97t263 -265t94.5 -373q0 -209 -94.5 -381.5t-263 -272.5t-375.5 -100q-155 0 -291.5 59t-233.5 159.5t-153 240t-56 295.5zM250 729q0 -173 76 -315t210.5 -223.5t299.5 -81.5q166 0 300.5 81.5 t209.5 223.5t75 315q0 169 -75 306.5t-209.5 216.5t-300.5 79q-165 0 -299.5 -78.5t-210.5 -216.5t-76 -307zM618 1657v76q0 51 50 51h26q49 0 49 -51v-76q0 -49 -49 -49h-26q-50 0 -50 49zM928 1657v76q0 51 49 51h27q51 0 51 -51v-76q0 -49 -51 -49h-27q-49 0 -49 49z" />
<glyph unicode="&#xd7;" horiz-adv-x="1241" d="M129 121l410 461l-410 460q-32 40 2 70l14 14q37 37 72 -2l404 -452l403 452q32 39 72 2l14 -14q34 -30 2 -70l-412 -460l412 -461q31 -39 -2 -72l-14 -12q-40 -37 -72 2l-403 453l-404 -453q-35 -39 -72 -2l-14 12q-33 33 -2 72z" />
<glyph unicode="&#xd8;" horiz-adv-x="1671" d="M102 729q0 204 98 373.5t266.5 265.5t369.5 96q209 0 387 -110l67 96q31 42 74 10q39 -34 16 -63l-71 -103q122 -102 191 -248.5t69 -316.5q0 -208 -97 -381t-265.5 -273t-370.5 -100q-213 0 -392 115l-69 -98q-30 -40 -74 -12q-39 31 -16 67l75 105q-121 105 -189.5 255 t-68.5 322zM250 729q0 -138 52 -259t142 -202l699 975q-136 88 -307 88q-160 0 -294.5 -78.5t-213 -217t-78.5 -306.5zM522 201q140 -92 314 -92q161 0 295 81t212 223t78 314q0 137 -51.5 254.5t-144.5 200.5z" />
<glyph unicode="&#xd9;" horiz-adv-x="1464" d="M180 502v887q0 51 51 51h41q52 0 52 -51v-885q0 -185 110 -290t297 -105q188 0 299 106t111 293v881q0 51 51 51h41q49 0 49 -51v-887q0 -238 -151.5 -382.5t-397.5 -144.5q-247 0 -400 144.5t-153 382.5zM525.5 1766q7.5 18 39.5 18h47q40 0 60 -35l90 -152 q14 -23 7 -40t-34 -17h-28q-39 0 -62 33l-108 149q-19 26 -11.5 44z" />
<glyph unicode="&#xda;" horiz-adv-x="1464" d="M180 502v887q0 51 51 51h41q52 0 52 -51v-885q0 -185 110 -290t297 -105q188 0 299 106t111 293v881q0 51 51 51h41q49 0 49 -51v-887q0 -238 -151.5 -382.5t-397.5 -144.5q-247 0 -400 144.5t-153 382.5zM690.5 1557q-9.5 17 5.5 40l90 152q20 35 60 35h47q32 0 40 -18 t-11 -44l-109 -149q-23 -33 -61 -33h-23q-29 0 -38.5 17z" />
<glyph unicode="&#xdb;" horiz-adv-x="1464" d="M180 502v887q0 51 51 51h41q52 0 52 -51v-885q0 -185 110 -290t297 -105q188 0 299 106t111 293v881q0 51 51 51h41q49 0 49 -51v-887q0 -238 -151.5 -382.5t-397.5 -144.5q-247 0 -400 144.5t-153 382.5zM514.5 1558q-7.5 18 9.5 44l107 149q23 33 61 33h76q37 0 63 -33 l105 -149q19 -26 12 -44t-35 -18h-34q-36 0 -56 35l-90 131h-4l-90 -131q-11 -19 -23.5 -27t-33.5 -8h-31q-29 0 -36.5 18z" />
<glyph unicode="&#xdc;" horiz-adv-x="1464" d="M180 502v887q0 51 51 51h41q52 0 52 -51v-885q0 -185 110 -290t297 -105q188 0 299 106t111 293v881q0 51 51 51h41q49 0 49 -51v-887q0 -238 -151.5 -382.5t-397.5 -144.5q-247 0 -400 144.5t-153 382.5zM514 1657v76q0 51 49 51h27q49 0 49 -51v-76q0 -49 -49 -49h-27 q-49 0 -49 49zM823 1657v76q0 51 49 51h27q51 0 51 -51v-76q0 -49 -51 -49h-27q-49 0 -49 49z" />
<glyph unicode="&#xdd;" horiz-adv-x="1134" d="M40 1422.5q10 17.5 40 17.5h51q41 0 59 -35l287 -487q19 -34 41 -77t34 -69l13 -27h4q45 97 88 173l287 487q18 35 57 35h54q29 0 39.5 -17.5t-4.5 -42.5l-451 -762v-567q0 -51 -51 -51h-41q-49 0 -49 51v567l-453 762q-15 25 -5 42.5zM526.5 1557q-9.5 17 5.5 40l91 152 q20 35 59 35h47q32 0 40 -18t-11 -44l-109 -149q-23 -33 -61 -33h-23q-29 0 -38.5 17z" />
<glyph unicode="&#xde;" horiz-adv-x="1210" d="M201 51v1338q0 51 49 51h43q49 0 49 -49v-207h356q196 0 320.5 -119t124.5 -317t-125 -318.5t-322 -120.5h-354v-258q0 -51 -49 -51h-43q-49 0 -49 51zM342 436h338q146 0 231.5 83.5t85.5 228.5q0 146 -85.5 227.5t-229.5 81.5h-340v-621z" />
<glyph unicode="&#xdf;" horiz-adv-x="1161" d="M160 51v1036q0 89 35 162t93.5 119t131.5 71t151 25q159 0 259 -90t100 -215q0 -58 -23.5 -109.5t-57 -87.5t-67 -68.5t-57 -67.5t-23.5 -70q0 -28 22 -56t57.5 -54t78 -54t85 -60.5t78 -68.5t57.5 -83.5t22 -100.5q0 -94 -48 -162.5t-121.5 -99.5t-162.5 -31 q-142 0 -264 51q-39 12 -39 57v29q0 58 53 39q115 -51 240 -51q85 0 143 43.5t58 128.5q0 53 -41.5 101t-100.5 86t-118 77.5t-100.5 92t-41.5 112.5q0 49 23.5 93.5t56.5 79t66.5 68.5t57 76t23.5 88q0 71 -59 126.5t-162 55.5q-107 0 -186.5 -70.5t-79.5 -191.5v-1026 q0 -51 -51 -51h-39q-49 0 -49 51z" />
<glyph unicode="&#xe0;" horiz-adv-x="1040" d="M70 276q0 355 628 355h60v33q0 266 -254 266q-133 0 -250 -72q-45 -22 -70 16l-12 21q-27 46 14 70q145 90 328 90q185 0 284 -101.5t99 -294.5v-608q0 -51 -49 -51h-33q-51 0 -51 51v82q0 21 1.5 40.5t2.5 28.5l2 9h-4q2 0 -10 -24.5t-38.5 -59t-65 -69t-100.5 -59 t-134 -24.5q-66 0 -127.5 19.5t-111.5 56t-79.5 95t-29.5 130.5zM213 289q0 -79 60.5 -138t168.5 -59q95 0 169 59.5t110.5 146t36.5 179.5v49h-58q-46 0 -79 -1t-87.5 -6t-94 -13.5t-85 -26.5t-74 -42t-48 -62t-19.5 -86zM312.5 1424q7.5 18 39.5 18h47q40 0 60 -35 l90 -152q14 -23 7 -40t-34 -17h-28q-39 0 -62 33l-108 149q-19 26 -11.5 44z" />
<glyph unicode="&#xe1;" horiz-adv-x="1040" d="M70 276q0 355 628 355h60v33q0 266 -254 266q-133 0 -250 -72q-45 -22 -70 16l-12 21q-27 46 14 70q145 90 328 90q185 0 284 -101.5t99 -294.5v-608q0 -51 -49 -51h-33q-51 0 -51 51v82q0 21 1.5 40.5t2.5 28.5l2 9h-4q2 0 -10 -24.5t-38.5 -59t-65 -69t-100.5 -59 t-134 -24.5q-66 0 -127.5 19.5t-111.5 56t-79.5 95t-29.5 130.5zM213 289q0 -79 60.5 -138t168.5 -59q95 0 169 59.5t110.5 146t36.5 179.5v49h-58q-46 0 -79 -1t-87.5 -6t-94 -13.5t-85 -26.5t-74 -42t-48 -62t-19.5 -86zM473.5 1215q-9.5 17 5.5 40l90 152q20 35 60 35h47 q32 0 40 -18t-11 -44l-109 -149q-23 -33 -61 -33h-23q-29 0 -38.5 17z" />
<glyph unicode="&#xe2;" horiz-adv-x="1040" d="M70 276q0 355 628 355h60v33q0 266 -254 266q-133 0 -250 -72q-45 -22 -70 16l-12 21q-27 46 14 70q145 90 328 90q185 0 284 -101.5t99 -294.5v-608q0 -51 -49 -51h-33q-51 0 -51 51v82q0 21 1.5 40.5t2.5 28.5l2 9h-4q2 0 -10 -24.5t-38.5 -59t-65 -69t-100.5 -59 t-134 -24.5q-66 0 -127.5 19.5t-111.5 56t-79.5 95t-29.5 130.5zM213 289q0 -79 60.5 -138t168.5 -59q95 0 169 59.5t110.5 146t36.5 179.5v49h-58q-46 0 -79 -1t-87.5 -6t-94 -13.5t-85 -26.5t-74 -42t-48 -62t-19.5 -86zM299.5 1216q-7.5 18 9.5 44l107 149q23 33 61 33 h76q37 0 63 -33l105 -149q19 -26 12 -44t-35 -18h-34q-36 0 -56 35l-90 131h-4l-90 -131q-11 -19 -23.5 -27t-33.5 -8h-31q-29 0 -36.5 18z" />
<glyph unicode="&#xe3;" horiz-adv-x="1040" d="M70 276q0 355 628 355h60v33q0 266 -254 266q-133 0 -250 -72q-45 -22 -70 16l-12 21q-27 46 14 70q145 90 328 90q185 0 284 -101.5t99 -294.5v-608q0 -51 -49 -51h-33q-51 0 -51 51v82q0 21 1.5 40.5t2.5 28.5l2 9h-4q2 0 -10 -24.5t-38.5 -59t-65 -69t-100.5 -59 t-134 -24.5q-66 0 -127.5 19.5t-111.5 56t-79.5 95t-29.5 130.5zM201 1257q0 82 50.5 134.5t129.5 52.5q39 0 72 -15t56 -37t43.5 -44t44 -37t48.5 -15q37 0 57.5 30.5t22.5 72.5q0 39 47 39h16q43 0 43 -47q0 -89 -48.5 -141t-131.5 -52q-39 0 -72 15t-56 36t-43.5 42.5 t-44 36.5t-48.5 15q-38 0 -59 -30.5t-21 -73.5q-3 -35 -47 -35h-14q-45 0 -45 53zM213 289q0 -79 60.5 -138t168.5 -59q95 0 169 59.5t110.5 146t36.5 179.5v49h-58q-46 0 -79 -1t-87.5 -6t-94 -13.5t-85 -26.5t-74 -42t-48 -62t-19.5 -86z" />
<glyph unicode="&#xe4;" horiz-adv-x="1040" d="M70 276q0 355 628 355h60v33q0 266 -254 266q-133 0 -250 -72q-45 -22 -70 16l-12 21q-27 46 14 70q145 90 328 90q185 0 284 -101.5t99 -294.5v-608q0 -51 -49 -51h-33q-51 0 -51 51v82q0 21 1.5 40.5t2.5 28.5l2 9h-4q2 0 -10 -24.5t-38.5 -59t-65 -69t-100.5 -59 t-134 -24.5q-66 0 -127.5 19.5t-111.5 56t-79.5 95t-29.5 130.5zM213 289q0 -79 60.5 -138t168.5 -59q95 0 169 59.5t110.5 146t36.5 179.5v49h-58q-46 0 -79 -1t-87.5 -6t-94 -13.5t-85 -26.5t-74 -42t-48 -62t-19.5 -86zM299 1315v76q0 51 49 51h27q49 0 49 -51v-76 q0 -49 -49 -49h-27q-49 0 -49 49zM608 1315v76q0 51 49 51h27q51 0 51 -51v-76q0 -49 -51 -49h-27q-49 0 -49 49z" />
<glyph unicode="&#xe5;" horiz-adv-x="1040" d="M70 276q0 355 628 355h60v33q0 266 -254 266q-133 0 -250 -72q-45 -22 -70 16l-12 21q-27 46 14 70q145 90 328 90q185 0 284 -101.5t99 -294.5v-608q0 -51 -49 -51h-33q-51 0 -51 51v82q0 21 1.5 40.5t2.5 28.5l2 9h-4q2 0 -10 -24.5t-38.5 -59t-65 -69t-100.5 -59 t-134 -24.5q-66 0 -127.5 19.5t-111.5 56t-79.5 95t-29.5 130.5zM213 289q0 -79 60.5 -138t168.5 -59q95 0 169 59.5t110.5 146t36.5 179.5v49h-58q-46 0 -79 -1t-87.5 -6t-94 -13.5t-85 -26.5t-74 -42t-48 -62t-19.5 -86zM362 1321q0 63 45 104t109 41q65 0 110.5 -41 t45.5 -104t-45.5 -104t-110.5 -41q-64 0 -109 41t-45 104zM451 1321q0 -30 18 -49t47 -19q30 0 49 19t19 49q0 31 -18.5 50.5t-49.5 19.5q-29 0 -47 -19.5t-18 -50.5z" />
<glyph unicode="&#xe6;" horiz-adv-x="1759" d="M74 281q0 54 14 99t37 78t59 59.5t72 43.5t84.5 29.5t88.5 19t93 10t88 4.5t82 1h66v39q0 142 -68.5 204t-193.5 62q-130 0 -242 -72q-45 -22 -70 16l-12 21q-27 46 14 70q145 90 320 90q277 0 348 -213h4q61 105 161 159t226 54q200 0 314 -133t114 -351q0 -23 -15 -37 t-38 -14h-725q3 -198 110.5 -309t272.5 -111q149 0 270 95q47 26 70 -15l12 -20q24 -44 -12 -70q-154 -115 -346 -115q-157 0 -275.5 76t-177.5 211h-4q-4 -17 -15 -40t-31 -57.5t-51.5 -66.5t-71.5 -60.5t-97.5 -45.5t-122.5 -17q-149 0 -250.5 81.5t-101.5 224.5zM215 289 q0 -81 61.5 -139t169.5 -58q95 0 168.5 60t109.5 147t36 180v41h-121q-42 0 -78 -1.5t-81 -7.5t-80.5 -15.5t-71.5 -27t-59.5 -41.5t-38.5 -59t-15 -79zM903 625h627q-6 152 -88.5 231.5t-200.5 79.5q-132 0 -223 -80.5t-115 -230.5z" />
<glyph unicode="&#xe7;" horiz-adv-x="1093" d="M90 514q0 156 71.5 280t195 192.5t274.5 68.5q196 0 342 -117q38 -27 6 -70l-14 -22q-24 -39 -70 -10q-121 94 -260 94q-171 0 -286.5 -117t-115.5 -299q0 -181 116 -297.5t288 -116.5q161 0 291 109q41 30 67 -12l15 -21q23 -39 -13 -70q-156 -127 -352 -131l-16 -88 q64 -9 103.5 -47t39.5 -98q0 -83 -56.5 -122.5t-140.5 -39.5q-98 0 -98 49q0 22 8.5 37t24.5 15q7 0 22.5 -3.5t30.5 -3.5q43 0 72 16.5t29 53.5q0 32 -28 50.5t-73 21.5q-18 2 -28.5 15.5t-6.5 37.5l27 113q-205 24 -335 169.5t-130 362.5z" />
<glyph unicode="&#xe8;" horiz-adv-x="1114" d="M90 514q0 124 40 227t109.5 171t161.5 105.5t197 37.5q202 0 316 -134t114 -358q0 -22 -15 -36.5t-38 -14.5h-742q3 -127 58.5 -222t144.5 -142.5t197 -47.5q149 0 270 95q44 27 68 -13l16 -24q23 -41 -14 -68q-154 -115 -344 -115q-232 0 -385.5 151.5t-153.5 387.5z M240 616h647q-6 156 -88.5 240t-204.5 84q-133 0 -231.5 -86t-122.5 -238zM398.5 1424q7.5 18 39.5 18h47q40 0 60 -35l90 -152q14 -23 7 -40t-34 -17h-28q-39 0 -62 33l-108 149q-19 26 -11.5 44z" />
<glyph unicode="&#xe9;" horiz-adv-x="1114" d="M90 514q0 124 40 227t109.5 171t161.5 105.5t197 37.5q202 0 316 -134t114 -358q0 -22 -15 -36.5t-38 -14.5h-742q3 -127 58.5 -222t144.5 -142.5t197 -47.5q149 0 270 95q44 27 68 -13l16 -24q23 -41 -14 -68q-154 -115 -344 -115q-232 0 -385.5 151.5t-153.5 387.5z M240 616h647q-6 156 -88.5 240t-204.5 84q-133 0 -231.5 -86t-122.5 -238zM557.5 1215q-9.5 17 5.5 40l90 152q20 35 60 35h47q32 0 39.5 -18t-11.5 -44l-108 -149q-23 -33 -62 -33h-22q-29 0 -38.5 17z" />
<glyph unicode="&#xea;" horiz-adv-x="1114" d="M90 514q0 124 40 227t109.5 171t161.5 105.5t197 37.5q202 0 316 -134t114 -358q0 -22 -15 -36.5t-38 -14.5h-742q3 -127 58.5 -222t144.5 -142.5t197 -47.5q149 0 270 95q44 27 68 -13l16 -24q23 -41 -14 -68q-154 -115 -344 -115q-232 0 -385.5 151.5t-153.5 387.5z M240 616h647q-6 156 -88.5 240t-204.5 84q-133 0 -231.5 -86t-122.5 -238zM381.5 1216q-7.5 18 9.5 44l107 149q23 33 61 33h76q37 0 63 -33l105 -149q19 -26 12 -44t-35 -18h-35q-35 0 -55 35l-90 131h-4l-90 -131q-11 -19 -23.5 -27t-33.5 -8h-31q-29 0 -36.5 18z" />
<glyph unicode="&#xeb;" horiz-adv-x="1114" d="M90 514q0 124 40 227t109.5 171t161.5 105.5t197 37.5q202 0 316 -134t114 -358q0 -22 -15 -36.5t-38 -14.5h-742q3 -127 58.5 -222t144.5 -142.5t197 -47.5q149 0 270 95q44 27 68 -13l16 -24q23 -41 -14 -68q-154 -115 -344 -115q-232 0 -385.5 151.5t-153.5 387.5z M240 616h647q-6 156 -88.5 240t-204.5 84q-133 0 -231.5 -86t-122.5 -238zM381 1315v76q0 51 49 51h27q49 0 49 -51v-76q0 -49 -49 -49h-27q-49 0 -49 49zM690 1315v76q0 51 49 51h27q51 0 51 -51v-76q0 -49 -51 -49h-27q-49 0 -49 49z" />
<glyph unicode="&#xec;" horiz-adv-x="456" d="M26 1424q8 18 40 18h47q39 0 59 -35l90 -152q14 -23 7.5 -40t-33.5 -17h-29q-39 0 -62 33l-108 149q-19 26 -11 44zM158 51v928q0 51 51 51h39q49 0 49 -51v-928q0 -51 -49 -51h-39q-51 0 -51 51z" />
<glyph unicode="&#xed;" horiz-adv-x="456" d="M158 51v928q0 51 51 51h39q49 0 49 -51v-928q0 -51 -49 -51h-39q-51 0 -51 51zM191 1215q-9 17 6 40l90 152q20 35 59 35h47q32 0 40 -18t-11 -44l-109 -149q-23 -33 -61 -33h-23q-29 0 -38 17z" />
<glyph unicode="&#xee;" horiz-adv-x="456" d="M15 1216q-7 18 10 44l106 149q23 33 62 33h75q38 0 64 -33l104 -149q19 -26 12.5 -44t-34.5 -18h-35q-35 0 -55 35l-91 131h-4l-90 -131q-11 -19 -23.5 -27t-33.5 -8h-31q-29 0 -36 18zM158 51v928q0 51 51 51h39q49 0 49 -51v-928q0 -51 -49 -51h-39q-51 0 -51 51z" />
<glyph unicode="&#xef;" horiz-adv-x="456" d="M14 1315v76q0 51 49 51h27q49 0 49 -51v-76q0 -49 -49 -49h-27q-49 0 -49 49zM158 51v928q0 51 51 51h39q49 0 49 -51v-928q0 -51 -49 -51h-39q-51 0 -51 51zM324 1315v76q0 51 49 51h26q52 0 52 -51v-76q0 -49 -52 -49h-26q-49 0 -49 49z" />
<glyph unicode="&#xf0;" horiz-adv-x="1183" d="M92 475q0 74 19.5 143.5t60 131t97.5 107.5t138 72.5t175 26.5q56 0 107.5 -11.5t84.5 -28.5t58 -34t36 -28l11 -12h4q-70 202 -256 329l-312 -141q-42 -19 -59 19l-8 16q-16 37 26 59l240 111q-93 49 -240 92q-47 15 -32 64l6 20q15 47 63 35q210 -59 357 -146l217 99 q45 20 59 -19l8 -18q16 -40 -26 -55l-162 -76q141 -111 224 -280.5t83 -391.5q0 -85 -18 -166.5t-58 -157.5t-97.5 -133.5t-143.5 -92t-189 -34.5q-110 0 -201 42.5t-149.5 113t-90.5 159.5t-32 185zM236 473q0 -97 37.5 -180.5t115 -138t180.5 -54.5q90 0 161.5 39.5 t113 103.5t63 138t21.5 151q0 134 -92 220t-242 86q-89 0 -159 -31t-112.5 -83.5t-64.5 -116.5t-22 -134z" />
<glyph unicode="&#xf1;" horiz-adv-x="1196" d="M158 51v928q0 51 51 51h37q49 0 49 -51v-119q0 -18 -2 -36.5t-4 -27.5l-2 -10h4q13 31 35 64.5t59 71t82 66.5t108 48t132 19q185 0 265.5 -100.5t80.5 -299.5v-604q0 -51 -52 -51h-38q-50 0 -50 51v567q0 55 -4 95t-18 82t-38 68.5t-65.5 43.5t-99.5 17 q-165 0 -278 -120.5t-113 -299.5v-453q0 -51 -49 -51h-39q-51 0 -51 51zM309 1257q0 82 50.5 134.5t129.5 52.5q39 0 72 -15t56 -37t44 -44t44.5 -37t48.5 -15q37 0 57.5 30.5t22.5 72.5q0 39 47 39h16q43 0 43 -47q0 -89 -48.5 -141t-131.5 -52q-39 0 -72 15t-56 36 t-43.5 42.5t-44 36.5t-48.5 15q-38 0 -59 -30.5t-21 -73.5q-3 -35 -47 -35h-15q-45 0 -45 53z" />
<glyph unicode="&#xf2;" horiz-adv-x="1259" d="M86 520q0 149 73 272.5t197.5 193t272.5 69.5q149 0 274 -69.5t198 -192.5t73 -273q0 -114 -43 -216t-116 -173.5t-173 -113.5t-211 -42t-211.5 42t-174 113.5t-116.5 173.5t-43 216zM229 520q0 -178 117.5 -299t284.5 -121q166 0 282.5 121t116.5 299 q0 173 -116.5 291.5t-282.5 118.5q-167 0 -284.5 -118.5t-117.5 -291.5zM425 1424q8 18 40 18h47q39 0 59 -35l91 -152q14 -23 7 -40t-34 -17h-29q-38 0 -61 33l-109 149q-19 26 -11 44z" />
<glyph unicode="&#xf3;" horiz-adv-x="1259" d="M86 520q0 149 73 272.5t197.5 193t272.5 69.5q149 0 274 -69.5t198 -192.5t73 -273q0 -114 -43 -216t-116 -173.5t-173 -113.5t-211 -42t-211.5 42t-174 113.5t-116.5 173.5t-43 216zM229 520q0 -178 117.5 -299t284.5 -121q166 0 282.5 121t116.5 299 q0 173 -116.5 291.5t-282.5 118.5q-167 0 -284.5 -118.5t-117.5 -291.5zM590.5 1215q-9.5 17 5.5 40l90 152q20 35 59 35h48q32 0 39.5 -18t-11.5 -44l-108 -149q-23 -33 -62 -33h-22q-29 0 -38.5 17z" />
<glyph unicode="&#xf4;" horiz-adv-x="1259" d="M86 520q0 149 73 272.5t197.5 193t272.5 69.5q149 0 274 -69.5t198 -192.5t73 -273q0 -114 -43 -216t-116 -173.5t-173 -113.5t-211 -42t-211.5 42t-174 113.5t-116.5 173.5t-43 216zM229 520q0 -178 117.5 -299t284.5 -121q166 0 282.5 121t116.5 299 q0 173 -116.5 291.5t-282.5 118.5q-167 0 -284.5 -118.5t-117.5 -291.5zM412.5 1216q-7.5 18 9.5 44l106 149q23 33 62 33h76q37 0 63 -33l105 -149q19 -26 12 -44t-35 -18h-35q-35 0 -55 35l-90 131h-4l-90 -131q-20 -35 -58 -35h-30q-29 0 -36.5 18z" />
<glyph unicode="&#xf5;" horiz-adv-x="1259" d="M86 520q0 149 73 272.5t197.5 193t272.5 69.5q149 0 274 -69.5t198 -192.5t73 -273q0 -114 -43 -216t-116 -173.5t-173 -113.5t-211 -42t-211.5 42t-174 113.5t-116.5 173.5t-43 216zM229 520q0 -178 117.5 -299t284.5 -121q166 0 282.5 121t116.5 299 q0 173 -116.5 291.5t-282.5 118.5q-167 0 -284.5 -118.5t-117.5 -291.5zM313 1257q0 82 51 134.5t130 52.5q39 0 72 -15t56 -37t43.5 -44t44 -37t48.5 -15q37 0 57.5 30.5t22.5 72.5q0 39 47 39h16q43 0 43 -47q0 -89 -48.5 -141t-131.5 -52q-39 0 -72 15t-56 36t-43.5 42.5 t-44 36.5t-48.5 15q-38 0 -59 -30.5t-21 -73.5q-3 -35 -47 -35h-15q-45 0 -45 53z" />
<glyph unicode="&#xf6;" horiz-adv-x="1259" d="M86 520q0 149 73 272.5t197.5 193t272.5 69.5q149 0 274 -69.5t198 -192.5t73 -273q0 -114 -43 -216t-116 -173.5t-173 -113.5t-211 -42t-211.5 42t-174 113.5t-116.5 173.5t-43 216zM229 520q0 -178 117.5 -299t284.5 -121q166 0 282.5 121t116.5 299 q0 173 -116.5 291.5t-282.5 118.5q-167 0 -284.5 -118.5t-117.5 -291.5zM412 1315v76q0 51 49 51h26q50 0 50 -51v-76q0 -49 -50 -49h-26q-49 0 -49 49zM721 1315v76q0 51 49 51h27q51 0 51 -51v-76q0 -49 -51 -49h-27q-49 0 -49 49z" />
<glyph unicode="&#xf7;" horiz-adv-x="1241" d="M119 571v19q0 51 51 51h901q51 0 51 -51v-19q0 -49 -51 -49h-901q-51 0 -51 49zM543 174v51q0 51 51 51h51q51 0 51 -51v-51q0 -49 -51 -49h-51q-51 0 -51 49zM543 936v51q0 51 51 51h51q51 0 51 -51v-51q0 -49 -51 -49h-51q-51 0 -51 49z" />
<glyph unicode="&#xf8;" horiz-adv-x="1261" d="M88 520q0 149 73 272.5t197.5 193t272.5 69.5q151 0 280 -74l50 70q27 40 73 10q43 -29 15 -64l-54 -77q85 -74 133 -177.5t48 -222.5q0 -114 -43 -216t-116 -173.5t-173 -113.5t-211 -42q-146 0 -264 68l-50 -70q-27 -40 -71 -10q-41 32 -17 66l52 71q-92 73 -143.5 182 t-51.5 238zM231 520q0 -185 129 -311l476 663q-98 58 -203 58q-167 0 -284.5 -118.5t-117.5 -291.5zM444 150q89 -50 189 -50q166 0 282.5 121t116.5 299q0 171 -119 287z" />
<glyph unicode="&#xf9;" horiz-adv-x="1187" d="M145 375v604q0 51 50 51h38q52 0 52 -51v-567q0 -55 4 -95t17.5 -82t37 -68.5t65 -43.5t99.5 -17q114 0 202.5 61.5t133.5 159t45 210.5v442q0 51 51 51h39q49 0 49 -51v-928q0 -51 -49 -51h-37q-49 0 -49 51v119l6 74h-4q-16 -41 -49 -85t-82.5 -86.5t-122 -70 t-152.5 -27.5q-180 0 -262 98t-82 302zM384 1424q8 18 40 18h47q39 0 59 -35l91 -152q14 -23 7 -40t-34 -17h-29q-38 0 -61 33l-109 149q-19 26 -11 44z" />
<glyph unicode="&#xfa;" horiz-adv-x="1187" d="M145 375v604q0 51 50 51h38q52 0 52 -51v-567q0 -55 4 -95t17.5 -82t37 -68.5t65 -43.5t99.5 -17q114 0 202.5 61.5t133.5 159t45 210.5v442q0 51 51 51h39q49 0 49 -51v-928q0 -51 -49 -51h-37q-49 0 -49 51v119l6 74h-4q-16 -41 -49 -85t-82.5 -86.5t-122 -70 t-152.5 -27.5q-180 0 -262 98t-82 302zM545.5 1215q-9.5 17 5.5 40l90 152q20 35 59 35h48q32 0 39.5 -18t-11.5 -44l-108 -149q-23 -33 -62 -33h-22q-29 0 -38.5 17z" />
<glyph unicode="&#xfb;" horiz-adv-x="1187" d="M145 375v604q0 51 50 51h38q52 0 52 -51v-567q0 -55 4 -95t17.5 -82t37 -68.5t65 -43.5t99.5 -17q114 0 202.5 61.5t133.5 159t45 210.5v442q0 51 51 51h39q49 0 49 -51v-928q0 -51 -49 -51h-37q-49 0 -49 51v119l6 74h-4q-16 -41 -49 -85t-82.5 -86.5t-122 -70 t-152.5 -27.5q-180 0 -262 98t-82 302zM369.5 1216q-7.5 18 9.5 44l106 149q23 33 62 33h76q37 0 63 -33l105 -149q19 -26 12 -44t-35 -18h-35q-35 0 -55 35l-90 131h-4l-90 -131q-20 -35 -58 -35h-30q-29 0 -36.5 18z" />
<glyph unicode="&#xfc;" horiz-adv-x="1187" d="M145 375v604q0 51 50 51h38q52 0 52 -51v-567q0 -55 4 -95t17.5 -82t37 -68.5t65 -43.5t99.5 -17q114 0 202.5 61.5t133.5 159t45 210.5v442q0 51 51 51h39q49 0 49 -51v-928q0 -51 -49 -51h-37q-49 0 -49 51v119l6 74h-4q-16 -41 -49 -85t-82.5 -86.5t-122 -70 t-152.5 -27.5q-180 0 -262 98t-82 302zM369 1315v76q0 51 49 51h26q50 0 50 -51v-76q0 -49 -50 -49h-26q-49 0 -49 49zM678 1315v76q0 51 49 51h27q51 0 51 -51v-76q0 -49 -51 -49h-27q-49 0 -49 49z" />
<glyph unicode="&#xfd;" horiz-adv-x="1005" d="M19 -365.5q-6 18.5 4 37.5l12 23q19 37 61 24q60 -26 90 -26q119 0 193 170l61 145l-405 963q-10 26 0.5 42.5t38.5 16.5h47q43 0 57 -39l289 -712l37 -109h4q15 58 35 109l282 710q14 41 58 41h45q28 0 39 -15.5t2 -43.5l-486 -1180q-41 -102 -118.5 -161.5 t-178.5 -59.5q-65 0 -141 37q-20 9 -26 27.5zM465.5 1213q-9.5 17 5.5 40l90 152q20 35 60 35h47q32 0 39.5 -18t-11.5 -44l-108 -149q-23 -33 -62 -33h-22q-29 0 -38.5 17z" />
<glyph unicode="&#xfe;" horiz-adv-x="1191" d="M162 -358v1747q0 51 49 51h39q51 0 51 -51v-449l-4 -82h4q1 1 16 24.5t40 50.5t62.5 55.5t98 47.5t131.5 19q205 0 328 -150t123 -389q0 -241 -129.5 -391t-331.5 -150q-71 0 -132 20.5t-97.5 49.5t-62.5 57.5t-36 49.5l-10 20h-4q4 -37 4 -90v-440q0 -52 -51 -52h-39 q-49 0 -49 52zM297 514q0 -112 38 -205t114 -151t176 -58q142 0 236.5 113.5t94.5 302.5q0 186 -90 300t-235 114q-67 0 -125.5 -24t-106 -72.5t-75 -130.5t-27.5 -189z" />
<glyph unicode="&#xff;" horiz-adv-x="1005" d="M19 -365.5q-6 18.5 4 37.5l12 23q19 37 61 24q60 -26 90 -26q119 0 193 170l61 145l-405 963q-10 26 0.5 42.5t38.5 16.5h47q43 0 57 -39l289 -712l37 -109h4q15 58 35 109l282 710q14 41 58 41h45q28 0 39 -15.5t2 -43.5l-486 -1180q-41 -102 -118.5 -161.5 t-178.5 -59.5q-65 0 -141 37q-20 9 -26 27.5zM291 1313v76q0 51 49 51h27q49 0 49 -51v-76q0 -49 -49 -49h-27q-49 0 -49 49zM600 1313v76q0 51 49 51h27q51 0 51 -51v-76q0 -49 -51 -49h-27q-49 0 -49 49z" />
<glyph unicode="&#x100;" d="M39 59l496 1340q11 41 55 41h67q45 0 56 -41l495 -1340q16 -59 -41 -59h-45q-46 0 -57 41l-154 418h-577l-152 -418q-11 -41 -57 -41h-43q-59 0 -43 59zM371 1657v14q0 49 51 49h403q49 0 49 -49v-14q0 -49 -49 -49h-403q-51 0 -51 49zM375 582h495l-190 522 q-10 30 -23.5 77t-21.5 79l-8 32h-4q-33 -120 -56 -188z" />
<glyph unicode="&#x101;" horiz-adv-x="1040" d="M70 276q0 355 628 355h60v33q0 266 -254 266q-133 0 -250 -72q-45 -22 -70 16l-12 21q-27 46 14 70q145 90 328 90q185 0 284 -101.5t99 -294.5v-608q0 -51 -49 -51h-33q-51 0 -51 51v82q0 21 1.5 40.5t2.5 28.5l2 9h-4q2 0 -10 -24.5t-38.5 -59t-65 -69t-100.5 -59 t-134 -24.5q-66 0 -127.5 19.5t-111.5 56t-79.5 95t-29.5 130.5zM213 289q0 -79 60.5 -138t168.5 -59q95 0 169 59.5t110.5 146t36.5 179.5v49h-58q-46 0 -79 -1t-87.5 -6t-94 -13.5t-85 -26.5t-74 -42t-48 -62t-19.5 -86zM264 1315v14q0 49 51 49h404q49 0 49 -49v-14 q0 -49 -49 -49h-404q-51 0 -51 49z" />
<glyph unicode="&#x102;" d="M39 59l496 1340q11 41 55 41h67q45 0 56 -41l495 -1340q16 -59 -41 -59h-45q-46 0 -57 41l-154 418h-577l-152 -418q-11 -41 -57 -41h-43q-59 0 -43 59zM375 582h495l-190 522q-10 30 -23.5 77t-21.5 79l-8 32h-4q-33 -120 -56 -188zM387 1745q0 39 47 39h21q41 0 47 -37 q6 -60 38.5 -88.5t82.5 -28.5t83 28.5t39 88.5q7 37 48 37h20q47 0 47 -39q0 -88 -70.5 -149.5t-166.5 -61.5q-93 0 -164.5 60t-71.5 151z" />
<glyph unicode="&#x103;" horiz-adv-x="1040" d="M70 276q0 355 628 355h60v33q0 266 -254 266q-133 0 -250 -72q-45 -22 -70 16l-12 21q-27 46 14 70q145 90 328 90q185 0 284 -101.5t99 -294.5v-608q0 -51 -49 -51h-33q-51 0 -51 51v82q0 21 1.5 40.5t2.5 28.5l2 9h-4q2 0 -10 -24.5t-38.5 -59t-65 -69t-100.5 -59 t-134 -24.5q-66 0 -127.5 19.5t-111.5 56t-79.5 95t-29.5 130.5zM213 289q0 -79 60.5 -138t168.5 -59q95 0 169 59.5t110.5 146t36.5 179.5v49h-58q-46 0 -79 -1t-87.5 -6t-94 -13.5t-85 -26.5t-74 -42t-48 -62t-19.5 -86zM281 1403q0 39 47 39h20q41 0 47 -37 q6 -60 38.5 -88.5t82.5 -28.5q51 0 84 28.5t39 88.5q7 37 47 37h21q47 0 47 -39q0 -88 -70.5 -149.5t-167.5 -61.5q-93 0 -164 60t-71 151z" />
<glyph unicode="&#x104;" d="M39 59l496 1340q14 41 55 41h67q42 0 56 -41l495 -1340q9 -23 8.5 -43t-16.5 -34q-131 -110 -131 -187q0 -69 94 -98q36 -11 27 -51l-2 -23q-3 -21 -17.5 -30.5t-35.5 -6.5q-30 5 -59.5 16.5t-61.5 31.5t-52 56t-20 81q0 74 48 137.5t108 107.5q-31 12 -41 47l-146 396 h-577l-152 -418q-11 -41 -57 -41h-43q-59 0 -43 59zM375 582h495l-190 522q-10 30 -23.5 77t-21.5 79l-8 32h-4q-33 -120 -56 -188z" />
<glyph unicode="&#x105;" horiz-adv-x="1044" d="M70 276q0 355 628 355h60v33q0 266 -254 266q-133 0 -250 -72q-45 -22 -70 16l-12 21q-27 46 14 70q145 90 328 90q185 0 284 -101.5t99 -294.5v-608q0 -22 -16 -45t-39 -44.5t-46 -45t-39 -55t-16 -66.5q0 -69 95 -98q35 -11 26 -51l-2 -23q-9 -44 -53 -37 q-30 5 -59.5 16.5t-61.5 31.5t-52 56t-20 81q0 74 50 138.5t110 106.5q-10 8 -10 35v82q0 21 1.5 40.5t2.5 28.5l2 9h-4q2 0 -10 -24.5t-38.5 -59t-65 -69t-100.5 -59t-134 -24.5q-66 0 -127.5 19.5t-111.5 56t-79.5 95t-29.5 130.5zM213 289q0 -79 60.5 -138t168.5 -59 q95 0 169 59.5t110.5 146t36.5 179.5v49h-58q-46 0 -79 -1t-87.5 -6t-94 -13.5t-85 -26.5t-74 -42t-48 -62t-19.5 -86z" />
<glyph unicode="&#x106;" horiz-adv-x="1454" d="M104 729q0 155 54 291t148 233.5t229.5 154t291.5 56.5q90 0 172.5 -16t143 -42.5t99 -48.5t69.5 -46q34 -27 8 -72l-19 -27q-26 -36 -69 -8q-180 127 -400 127q-171 0 -304 -79.5t-204 -215.5t-71 -305q0 -171 71 -312t206.5 -225.5t308.5 -84.5q237 0 428 155 q41 32 69 -6l19 -22q30 -38 -4 -72q-225 -189 -516 -189q-161 0 -298.5 59t-231.5 160.5t-147 240t-53 294.5zM774.5 1557q-9.5 17 5.5 40l90 152q20 35 60 35h47q32 0 40 -18t-11 -44l-109 -149q-23 -33 -61 -33h-23q-29 0 -38.5 17z" />
<glyph unicode="&#x107;" horiz-adv-x="1089" d="M88 514q0 156 71.5 280t195 192.5t274.5 68.5q196 0 342 -117q38 -27 6 -70l-14 -22q-24 -39 -70 -10q-121 94 -260 94q-171 0 -286.5 -117t-115.5 -299q0 -181 116 -297.5t288 -116.5q161 0 291 109q41 30 67 -12l15 -21q23 -39 -13 -70q-161 -131 -366 -131 q-152 0 -275.5 67.5t-194.5 191t-71 280.5zM549.5 1215q-9.5 17 5.5 40l90 152q20 35 60 35h47q32 0 39.5 -18t-11.5 -44l-108 -149q-23 -33 -62 -33h-22q-29 0 -38.5 17z" />
<glyph unicode="&#x108;" horiz-adv-x="1454" d="M104 729q0 155 54 291t148 233.5t229.5 154t291.5 56.5q90 0 172.5 -16t143 -42.5t99 -48.5t69.5 -46q34 -27 8 -72l-19 -27q-26 -36 -69 -8q-180 127 -400 127q-171 0 -304 -79.5t-204 -215.5t-71 -305q0 -171 71 -312t206.5 -225.5t308.5 -84.5q237 0 428 155 q41 32 69 -6l19 -22q30 -38 -4 -72q-225 -189 -516 -189q-161 0 -298.5 59t-231.5 160.5t-147 240t-53 294.5zM596.5 1558q-7.5 18 9.5 44l107 149q23 33 61 33h76q37 0 63 -33l105 -149q19 -26 12 -44t-35 -18h-34q-36 0 -56 35l-90 131h-4l-90 -131q-11 -19 -23.5 -27 t-33.5 -8h-31q-29 0 -36.5 18z" />
<glyph unicode="&#x109;" horiz-adv-x="1089" d="M88 514q0 156 71.5 280t195 192.5t274.5 68.5q196 0 342 -117q38 -27 6 -70l-14 -22q-24 -39 -70 -10q-121 94 -260 94q-171 0 -286.5 -117t-115.5 -299q0 -181 116 -297.5t288 -116.5q161 0 291 109q41 30 67 -12l15 -21q23 -39 -13 -70q-161 -131 -366 -131 q-152 0 -275.5 67.5t-194.5 191t-71 280.5zM373.5 1216q-7.5 18 9.5 44l106 149q23 33 62 33h76q37 0 63 -33l105 -149q19 -26 12 -44t-35 -18h-35q-35 0 -55 35l-90 131h-4l-90 -131q-20 -35 -58 -35h-30q-29 0 -36.5 18z" />
<glyph unicode="&#x10a;" horiz-adv-x="1454" d="M104 729q0 155 54 291t148 233.5t229.5 154t291.5 56.5q90 0 172.5 -16t143 -42.5t99 -48.5t69.5 -46q34 -27 8 -72l-19 -27q-26 -36 -69 -8q-180 127 -400 127q-171 0 -304 -79.5t-204 -215.5t-71 -305q0 -171 71 -312t206.5 -225.5t308.5 -84.5q237 0 428 155 q41 32 69 -6l19 -22q30 -38 -4 -72q-225 -189 -516 -189q-161 0 -298.5 59t-231.5 160.5t-147 240t-53 294.5zM748 1661v72q0 51 49 51h34q50 0 50 -51v-72q0 -51 -50 -51h-34q-49 0 -49 51z" />
<glyph unicode="&#x10b;" horiz-adv-x="1089" d="M88 514q0 156 71.5 280t195 192.5t274.5 68.5q196 0 342 -117q38 -27 6 -70l-14 -22q-24 -39 -70 -10q-121 94 -260 94q-171 0 -286.5 -117t-115.5 -299q0 -181 116 -297.5t288 -116.5q161 0 291 109q41 30 67 -12l15 -21q23 -39 -13 -70q-161 -131 -366 -131 q-152 0 -275.5 67.5t-194.5 191t-71 280.5zM522 1319v72q0 51 49 51h35q49 0 49 -51v-72q0 -51 -49 -51h-35q-49 0 -49 51z" />
<glyph unicode="&#x10c;" horiz-adv-x="1454" d="M104 729q0 155 54 291t148 233.5t229.5 154t291.5 56.5q90 0 172.5 -16t143 -42.5t99 -48.5t69.5 -46q34 -27 8 -72l-19 -27q-26 -36 -69 -8q-180 127 -400 127q-171 0 -304 -79.5t-204 -215.5t-71 -305q0 -171 71 -312t206.5 -225.5t308.5 -84.5q237 0 428 155 q41 32 69 -6l19 -22q30 -38 -4 -72q-225 -189 -516 -189q-161 0 -298.5 59t-231.5 160.5t-147 240t-53 294.5zM596.5 1766q7.5 18 36.5 18h31q37 0 57 -33l90 -131h4l90 131q20 33 56 33h32q29 0 36.5 -18t-11.5 -44l-105 -149q-26 -33 -63 -33h-76q-38 0 -61 33l-107 149 q-17 26 -9.5 44z" />
<glyph unicode="&#x10d;" horiz-adv-x="1089" d="M88 514q0 156 71.5 280t195 192.5t274.5 68.5q196 0 342 -117q38 -27 6 -70l-14 -22q-24 -39 -70 -10q-121 94 -260 94q-171 0 -286.5 -117t-115.5 -299q0 -181 116 -297.5t288 -116.5q161 0 291 109q41 30 67 -12l15 -21q23 -39 -13 -70q-161 -131 -366 -131 q-152 0 -275.5 67.5t-194.5 191t-71 280.5zM373.5 1424q7.5 18 36.5 18h30q38 0 58 -33l90 -131h4l90 131q20 33 55 33h33q29 0 36.5 -18t-11.5 -44l-105 -149q-26 -33 -63 -33h-76q-39 0 -62 33l-106 149q-17 26 -9.5 44z" />
<glyph unicode="&#x10e;" horiz-adv-x="1497" d="M201 51v1338q0 51 49 51h416q216 0 378.5 -84t253.5 -247.5t91 -387.5q0 -339 -197 -530t-526 -191h-416q-49 0 -49 51zM342 127h309q271 0 430.5 154.5t159.5 439.5q0 282 -160.5 437t-429.5 155h-309v-1186zM473.5 1766q7.5 18 36.5 18h31q37 0 57 -33l90 -131h4 l90 131q20 33 56 33h32q29 0 36.5 -18t-11.5 -44l-104 -149q-26 -33 -64 -33h-76q-38 0 -61 33l-107 149q-17 26 -9.5 44z" />
<glyph unicode="&#x10f;" horiz-adv-x="1189" d="M92 516q0 242 129.5 390.5t333.5 148.5q70 0 130.5 -21.5t97 -51.5t63 -60.5t36.5 -51.5l11 -22h4q-6 35 -6 78v463q0 51 51 51h39q49 0 49 -51v-1338q0 -51 -49 -51h-35q-51 0 -51 49v78q0 16 2 32t4 23l2 8h-4q-2 -4 -5.5 -12t-18 -30.5t-32 -42.5t-48 -45t-65.5 -43 t-84.5 -30t-104.5 -12q-205 0 -327 149.5t-122 391.5zM236 516q0 -189 89.5 -302.5t235.5 -113.5q67 0 125.5 24.5t106 73t75 130.5t27.5 188q0 64 -12.5 123.5t-39.5 112t-65 91.5t-92.5 62t-118.5 23q-141 0 -236 -111.5t-95 -300.5zM1149 1178q0 5 10 42.5t10 86.5 q0 33 -4 57t-4 39q0 35 45 35h31q59 0 59 -105q0 -64 -25 -126t-65 -62h-12q-45 0 -45 33z" />
<glyph unicode="&#x110;" horiz-adv-x="1497" d="M80 713v22q0 49 39 49h82v605q0 51 51 51h414q216 0 378.5 -84t253.5 -247.5t91 -387.5q0 -339 -197 -530t-526 -191h-414q-51 0 -51 51v611h-72q-49 0 -49 51zM342 127h309q271 0 430.5 154.5t159.5 439.5q0 282 -159.5 437t-430.5 155h-309v-529h293q51 0 51 -49v-22 q0 -51 -49 -51h-295v-535z" />
<glyph unicode="&#x111;" horiz-adv-x="1189" d="M92 516q0 242 129.5 390.5t333.5 148.5q51 0 97 -11t79 -28.5t61 -38.5t45.5 -42.5t30 -39t18.5 -28.5l5 -11h4q-4 35 -4 78v225h-219q-51 0 -51 47v13q0 45 51 45h219v125q0 51 51 51h39q49 0 49 -51v-125h113q51 0 51 -45v-13q0 -47 -41 -47h-123v-1108q0 -51 -49 -51 h-35q-51 0 -51 49v70l4 63h-4q-3 -8 -10.5 -22t-36.5 -50t-65.5 -63t-101 -49.5t-140.5 -22.5q-205 0 -327 149.5t-122 391.5zM236 516q0 -189 89.5 -302.5t235.5 -113.5q67 0 125.5 24.5t106 73t75 130.5t27.5 188q0 80 -20.5 153t-60 132t-103.5 94t-144 35 q-141 0 -236 -112.5t-95 -301.5z" />
<glyph unicode="&#x112;" horiz-adv-x="1132" d="M201 51v1338q0 51 49 51h711q51 0 51 -51v-25q0 -51 -51 -51h-619v-525h496q51 0 51 -49v-26q0 -51 -51 -51h-496v-535h655q52 0 52 -51v-25q0 -51 -52 -51h-747q-49 0 -49 51zM377 1657v14q0 49 51 49h403q50 0 50 -49v-14q0 -49 -50 -49h-403q-51 0 -51 49z" />
<glyph unicode="&#x113;" horiz-adv-x="1114" d="M90 514q0 124 40 227t109.5 171t161.5 105.5t197 37.5q202 0 316 -134t114 -358q0 -22 -15 -36.5t-38 -14.5h-742q3 -127 58.5 -222t144.5 -142.5t197 -47.5q149 0 270 95q44 27 68 -13l16 -24q23 -41 -14 -68q-154 -115 -344 -115q-232 0 -385.5 151.5t-153.5 387.5z M240 616h647q-6 156 -88.5 240t-204.5 84q-133 0 -231.5 -86t-122.5 -238zM346 1315v14q0 49 51 49h404q49 0 49 -49v-14q0 -49 -49 -49h-404q-51 0 -51 49z" />
<glyph unicode="&#x114;" horiz-adv-x="1132" d="M201 51v1338q0 51 49 51h711q51 0 51 -51v-25q0 -51 -51 -51h-619v-525h496q51 0 51 -49v-26q0 -51 -51 -51h-496v-535h655q52 0 52 -51v-25q0 -51 -52 -51h-747q-49 0 -49 51zM391 1745q0 39 47 39h21q41 0 47 -37q6 -60 38.5 -88.5t82.5 -28.5q51 0 84 28.5t39 88.5 q7 37 47 37h20q47 0 47 -39q0 -88 -70.5 -149.5t-166.5 -61.5q-93 0 -164.5 60t-71.5 151z" />
<glyph unicode="&#x115;" horiz-adv-x="1114" d="M90 514q0 124 40 227t109.5 171t161.5 105.5t197 37.5q202 0 316 -134t114 -358q0 -22 -15 -36.5t-38 -14.5h-742q3 -127 58.5 -222t144.5 -142.5t197 -47.5q149 0 270 95q44 27 68 -13l16 -24q23 -41 -14 -68q-154 -115 -344 -115q-232 0 -385.5 151.5t-153.5 387.5z M240 616h647q-6 156 -88.5 240t-204.5 84q-133 0 -231.5 -86t-122.5 -238zM360 1403q0 39 48 39h20q41 0 47 -37q6 -60 38.5 -88.5t82.5 -28.5q51 0 84 28.5t39 88.5q7 37 47 37h20q48 0 48 -39q0 -88 -70.5 -149.5t-167.5 -61.5q-93 0 -164.5 60t-71.5 151z" />
<glyph unicode="&#x116;" horiz-adv-x="1132" d="M201 51v1338q0 51 49 51h711q51 0 51 -51v-25q0 -51 -51 -51h-619v-525h496q51 0 51 -49v-26q0 -51 -51 -51h-496v-535h655q52 0 52 -51v-25q0 -51 -52 -51h-747q-49 0 -49 51zM561 1661v72q0 51 49 51h35q49 0 49 -51v-72q0 -51 -49 -51h-35q-49 0 -49 51z" />
<glyph unicode="&#x117;" horiz-adv-x="1114" d="M90 514q0 124 40 227t109.5 171t161.5 105.5t197 37.5q202 0 316 -134t114 -358q0 -22 -15 -36.5t-38 -14.5h-742q3 -127 58.5 -222t144.5 -142.5t197 -47.5q149 0 270 95q44 27 68 -13l16 -24q23 -41 -14 -68q-154 -115 -344 -115q-232 0 -385.5 151.5t-153.5 387.5z M240 616h647q-6 156 -88.5 240t-204.5 84q-133 0 -231.5 -86t-122.5 -238zM530 1319v72q0 51 50 51h34q50 0 50 -51v-72q0 -51 -50 -51h-34q-50 0 -50 51z" />
<glyph unicode="&#x118;" horiz-adv-x="1132" d="M201 51v1338q0 51 49 51h711q51 0 51 -51v-25q0 -51 -51 -51h-619v-525h496q51 0 51 -49v-26q0 -51 -51 -51h-496v-535h655q52 0 52 -51v-29q0 -18 -17 -39.5t-41 -43.5t-48 -46t-41 -56.5t-17 -66.5q0 -69 94 -98q35 -11 29 -51l-4 -23q-3 -21 -18 -30.5t-36 -6.5 q-23 4 -46 11.5t-50.5 22t-48 34t-34 50t-13.5 67.5q0 119 133 229h-641q-49 0 -49 51z" />
<glyph unicode="&#x119;" horiz-adv-x="1114" d="M90 514q0 124 40 227t109.5 171t161.5 105.5t197 37.5q204 0 317 -138.5t113 -355.5q0 -22 -14 -35.5t-37 -13.5h-744q3 -127 58.5 -222t144.5 -142.5t197 -47.5q149 0 270 95q46 29 70 -15l12 -20q23 -41 -10 -70q-18 -15 -61 -46.5t-72.5 -55.5t-62.5 -56.5t-50.5 -67 t-17.5 -69.5q0 -69 94 -98q38 -12 29 -51l-5 -23q-9 -44 -53 -37q-29 4 -59 15.5t-61.5 32t-51.5 56t-20 79.5q0 109 114 215q-52 -9 -69 -9q-232 0 -385.5 151.5t-153.5 387.5zM240 616h647q-6 156 -88.5 239t-204.5 83q-134 0 -232 -85t-122 -237z" />
<glyph unicode="&#x11a;" horiz-adv-x="1132" d="M201 51v1338q0 51 49 51h711q51 0 51 -51v-25q0 -51 -51 -51h-619v-525h496q51 0 51 -49v-26q0 -51 -51 -51h-496v-535h655q52 0 52 -51v-25q0 -51 -52 -51h-747q-49 0 -49 51zM412.5 1766q7.5 18 36.5 18h30q38 0 58 -33l90 -131h4l90 131q20 33 55 33h33q29 0 36.5 -18 t-11.5 -44l-105 -149q-26 -33 -63 -33h-76q-39 0 -62 33l-106 149q-17 26 -9.5 44z" />
<glyph unicode="&#x11b;" horiz-adv-x="1114" d="M90 514q0 124 40 227t109.5 171t161.5 105.5t197 37.5q202 0 316 -134t114 -358q0 -22 -15 -36.5t-38 -14.5h-742q3 -127 58.5 -222t144.5 -142.5t197 -47.5q149 0 270 95q44 27 68 -13l16 -24q23 -41 -14 -68q-154 -115 -344 -115q-232 0 -385.5 151.5t-153.5 387.5z M240 616h647q-6 156 -88.5 240t-204.5 84q-133 0 -231.5 -86t-122.5 -238zM381.5 1424q7.5 18 36.5 18h31q37 0 57 -33l90 -131h4l90 131q20 33 55 33h33q29 0 36.5 -18t-11.5 -44l-105 -149q-26 -33 -63 -33h-76q-38 0 -61 33l-107 149q-17 26 -9.5 44z" />
<glyph unicode="&#x11c;" horiz-adv-x="1531" d="M104 719q0 155 55.5 293t151.5 237.5t231.5 157t288.5 57.5q86 0 167 -14.5t141 -38.5t98.5 -44t67.5 -40q40 -30 8 -70l-19 -26q-27 -40 -69 -12q-175 112 -389 112q-170 0 -304.5 -81t-207 -219.5t-72.5 -307.5q0 -174 74 -314.5t204.5 -220t292.5 -79.5 q81 0 157.5 21.5t128 52.5t91.5 62t59 53l19 21v242h-197q-49 0 -49 51v25q0 51 49 51h281q49 0 49 -51v-586q0 -51 -49 -51h-29q-24 0 -37.5 12t-13.5 33v74l2 53h-4q-7 -8 -19.5 -21.5t-57.5 -47.5t-95 -59.5t-131 -47t-166 -21.5q-195 0 -357 96.5t-256 267.5t-94 380z M590.5 1558q-7.5 18 9.5 44l107 149q23 33 61 33h76q37 0 63 -33l105 -149q19 -26 12 -44t-35 -18h-35q-35 0 -55 35l-90 131h-4l-90 -131q-20 -35 -58 -35h-30q-29 0 -36.5 18z" />
<glyph unicode="&#x11d;" horiz-adv-x="1175" d="M94 541q0 231 121.5 372.5t333.5 141.5q54 0 102 -10.5t81 -27t60.5 -37t44 -40.5t28 -36.5t15.5 -27.5l5 -10h4q-4 15 -4 35v84q0 45 49 45h33q51 0 51 -51v-954q0 -118 -41.5 -208.5t-112 -143t-155.5 -78t-181 -25.5q-162 0 -297 61q-45 20 -24 66l12 29q20 39 66 22 q119 -53 239 -53q154 0 254.5 80.5t100.5 242.5v107l6 74h-4q-101 -193 -328 -193q-206 0 -332.5 148t-126.5 387zM238 545q0 -192 91 -303t244 -111q64 0 117.5 21t97.5 66t68.5 124.5t24.5 187.5q0 110 -25 190.5t-71 124.5t-101 64.5t-123 20.5q-155 0 -239 -102 t-84 -283zM357 1216q-7 18 10 44l106 149q23 33 62 33h75q38 0 64 -33l104 -149q19 -26 12.5 -44t-34.5 -18h-35q-35 0 -55 35l-91 131h-4l-90 -131q-11 -19 -23.5 -27t-33.5 -8h-31q-29 0 -36 18z" />
<glyph unicode="&#x11e;" horiz-adv-x="1531" d="M104 719q0 155 55.5 293t151.5 237.5t231.5 157t288.5 57.5q86 0 167 -14.5t141 -38.5t98.5 -44t67.5 -40q40 -30 8 -70l-19 -26q-27 -40 -69 -12q-175 112 -389 112q-170 0 -304.5 -81t-207 -219.5t-72.5 -307.5q0 -174 74 -314.5t204.5 -220t292.5 -79.5 q81 0 157.5 21.5t128 52.5t91.5 62t59 53l19 21v242h-197q-49 0 -49 51v25q0 51 49 51h281q49 0 49 -51v-586q0 -51 -49 -51h-29q-24 0 -37.5 12t-13.5 33v74l2 53h-4q-7 -8 -19.5 -21.5t-57.5 -47.5t-95 -59.5t-131 -47t-166 -21.5q-195 0 -357 96.5t-256 267.5t-94 380z M571 1745q0 39 47 39h21q41 0 47 -37q6 -60 38.5 -88.5t82.5 -28.5q51 0 84 28.5t39 88.5q7 37 47 37h20q47 0 47 -39q0 -88 -70.5 -149.5t-166.5 -61.5q-93 0 -164.5 60t-71.5 151z" />
<glyph unicode="&#x11f;" horiz-adv-x="1175" d="M94 541q0 231 121.5 372.5t333.5 141.5q54 0 102 -10.5t81 -27t60.5 -37t44 -40.5t28 -36.5t15.5 -27.5l5 -10h4q-4 15 -4 35v84q0 45 49 45h33q51 0 51 -51v-954q0 -118 -41.5 -208.5t-112 -143t-155.5 -78t-181 -25.5q-162 0 -297 61q-45 20 -24 66l12 29q20 39 66 22 q119 -53 239 -53q154 0 254.5 80.5t100.5 242.5v107l6 74h-4q-101 -193 -328 -193q-206 0 -332.5 148t-126.5 387zM238 545q0 -192 91 -303t244 -111q64 0 117.5 21t97.5 66t68.5 124.5t24.5 187.5q0 110 -25 190.5t-71 124.5t-101 64.5t-123 20.5q-155 0 -239 -102 t-84 -283zM336 1403q0 39 47 39h20q42 0 48 -37q11 -117 120 -117q51 0 84 28.5t39 88.5q7 37 47 37h21q47 0 47 -39q0 -88 -70.5 -149.5t-167.5 -61.5q-93 0 -164 60t-71 151z" />
<glyph unicode="&#x120;" horiz-adv-x="1531" d="M104 719q0 155 55.5 293t151.5 237.5t231.5 157t288.5 57.5q86 0 167 -14.5t141 -38.5t98.5 -44t67.5 -40q40 -30 8 -70l-19 -26q-27 -40 -69 -12q-175 112 -389 112q-170 0 -304.5 -81t-207 -219.5t-72.5 -307.5q0 -174 74 -314.5t204.5 -220t292.5 -79.5 q81 0 157.5 21.5t128 52.5t91.5 62t59 53l19 21v242h-197q-49 0 -49 51v25q0 51 49 51h281q49 0 49 -51v-586q0 -51 -49 -51h-29q-24 0 -37.5 12t-13.5 33v74l2 53h-4q-7 -8 -19.5 -21.5t-57.5 -47.5t-95 -59.5t-131 -47t-166 -21.5q-195 0 -357 96.5t-256 267.5t-94 380z M741 1661v72q0 51 50 51h34q49 0 49 -51v-72q0 -51 -49 -51h-34q-50 0 -50 51z" />
<glyph unicode="&#x121;" horiz-adv-x="1175" d="M94 541q0 231 121.5 372.5t333.5 141.5q54 0 102 -10.5t81 -27t60.5 -37t44 -40.5t28 -36.5t15.5 -27.5l5 -10h4q-4 15 -4 35v84q0 45 49 45h33q51 0 51 -51v-954q0 -118 -41.5 -208.5t-112 -143t-155.5 -78t-181 -25.5q-162 0 -297 61q-45 20 -24 66l12 29q20 39 66 22 q119 -53 239 -53q154 0 254.5 80.5t100.5 242.5v107l6 74h-4q-101 -193 -328 -193q-206 0 -332.5 148t-126.5 387zM238 545q0 -192 91 -303t244 -111q64 0 117.5 21t97.5 66t68.5 124.5t24.5 187.5q0 110 -25 190.5t-71 124.5t-101 64.5t-123 20.5q-155 0 -239 -102 t-84 -283zM506 1319v72q0 51 49 51h35q49 0 49 -51v-72q0 -51 -49 -51h-35q-49 0 -49 51z" />
<glyph unicode="&#x122;" horiz-adv-x="1531" d="M104 719q0 155 55.5 293t151.5 237.5t231.5 157t288.5 57.5q86 0 167 -14.5t141 -38.5t98.5 -44t67.5 -40q40 -30 8 -70l-19 -26q-27 -40 -69 -12q-175 112 -389 112q-170 0 -304.5 -81t-207 -219.5t-72.5 -307.5q0 -174 74 -314.5t204.5 -220t292.5 -79.5 q81 0 157.5 21.5t128 52.5t91.5 62t59 53l19 21v242h-197q-49 0 -49 51v25q0 51 49 51h281q49 0 49 -51v-586q0 -51 -49 -51h-29q-24 0 -37.5 12t-13.5 33v74l2 53h-4q-7 -8 -19.5 -21.5t-57.5 -47.5t-95 -59.5t-131 -47t-166 -21.5q-195 0 -357 96.5t-256 267.5t-94 380z M731 -389q0 5 10.5 42.5t10.5 86.5q0 34 -4.5 57t-4.5 39q0 35 45 35h31q60 0 60 -104q0 -63 -25.5 -126t-65.5 -63h-12q-45 0 -45 33z" />
<glyph unicode="&#x123;" horiz-adv-x="1175" d="M94 541q0 231 121.5 372.5t333.5 141.5q54 0 102 -10.5t81 -27t60.5 -37t44 -40.5t28 -36.5t15.5 -27.5l5 -10h4q-4 15 -4 35v84q0 45 49 45h33q51 0 51 -51v-954q0 -118 -41.5 -208.5t-112 -143t-155.5 -78t-181 -25.5q-162 0 -297 61q-45 20 -24 66l12 29q20 39 66 22 q119 -53 239 -53q154 0 254.5 80.5t100.5 242.5v107l6 74h-4q-101 -193 -328 -193q-206 0 -332.5 148t-126.5 387zM238 545q0 -192 91 -303t244 -111q64 0 117.5 21t97.5 66t68.5 124.5t24.5 187.5q0 110 -25 190.5t-71 124.5t-101 64.5t-123 20.5q-155 0 -239 -102 t-84 -283zM506 1264q0 64 25 126t65 62h12q45 0 45 -33q0 -5 -10 -42.5t-10 -86.5q0 -34 4 -57t4 -39q0 -35 -45 -35h-31q-59 0 -59 105z" />
<glyph unicode="&#x124;" horiz-adv-x="1519" d="M201 51v1338q0 51 49 51h43q49 0 49 -51v-605h836v605q0 51 49 51h41q51 0 51 -51v-1338q0 -51 -51 -51h-41q-49 0 -49 51v606h-836v-606q0 -51 -49 -51h-43q-49 0 -49 51zM541.5 1558q-7.5 18 9.5 44l106 149q23 33 62 33h76q37 0 63 -33l105 -149q19 -26 12 -44 t-35 -18h-35q-35 0 -55 35l-90 131h-4l-90 -131q-20 -35 -58 -35h-30q-29 0 -36.5 18z" />
<glyph unicode="&#x125;" horiz-adv-x="1198" d="M15 1558q-7 18 10 44l106 149q23 33 62 33h75q38 0 64 -33l104 -149q19 -26 12.5 -44t-34.5 -18h-35q-35 0 -55 35l-91 131h-4l-90 -131q-11 -19 -23.5 -27t-33.5 -8h-31q-29 0 -36 18zM160 51v1338q0 51 49 51h39q51 0 51 -51v-515q0 -21 -2 -41.5t-4 -30.5l-2 -11h4 q16 40 49 82.5t83 85t124 69.5t156 27q185 0 265.5 -100.5t80.5 -299.5v-604q0 -51 -49 -51h-39q-52 0 -52 51v567q0 55 -4 95t-17.5 82t-37.5 68.5t-66 43.5t-100 17q-164 0 -276.5 -121t-112.5 -305v-447q0 -51 -51 -51h-39q-49 0 -49 51z" />
<glyph unicode="&#x126;" horiz-adv-x="1517" d="M68 1098v12q0 47 51 47h84v232q0 51 49 51h43q51 0 51 -47v-236h828v232q0 51 49 51h43q51 0 51 -47v-236h82q51 0 51 -47v-12q0 -49 -51 -49h-82v-998q0 -51 -51 -51h-43q-49 0 -49 51v606h-828v-606q0 -51 -51 -51h-43q-49 0 -49 51v998h-84q-51 0 -51 49zM346 784h828 v265h-828v-265z" />
<glyph unicode="&#x127;" horiz-adv-x="1198" d="M2 1206v13q0 45 51 45h107v125q0 51 49 51h39q51 0 51 -41v-135h221q51 0 51 -45v-13q0 -47 -51 -47h-221v-276l-4 -84h4q16 40 48.5 81.5t81.5 82t122.5 66.5t155.5 26q185 0 265.5 -100.5t80.5 -299.5v-604q0 -51 -49 -51h-39q-52 0 -52 51v567q0 55 -4 95t-17.5 82 t-37.5 68.5t-66 43.5t-100 17q-167 0 -278 -123.5t-111 -296.5v-453q0 -51 -51 -51h-39q-49 0 -49 51v1108h-107q-51 0 -51 47z" />
<glyph unicode="&#x128;" horiz-adv-x="542" d="M-41 1599q0 82 50.5 134.5t129.5 52.5q39 0 72 -15t56 -37t43.5 -44t44 -37t48.5 -15q37 0 57.5 30.5t22.5 72.5q0 39 47 39h17q43 0 43 -47q0 -89 -48.5 -141t-131.5 -52q-48 0 -88 23t-63 50t-53.5 50t-60.5 23q-38 0 -58.5 -31t-20.5 -74q-3 -35 -48 -35h-14 q-45 0 -45 53zM201 51v1338q0 51 49 51h43q49 0 49 -51v-1338q0 -51 -49 -51h-43q-49 0 -49 51z" />
<glyph unicode="&#x129;" horiz-adv-x="456" d="M-84 1257q0 82 50.5 134.5t129.5 52.5q39 0 72 -15t56 -37t43.5 -44t44 -37t48.5 -15q37 0 57.5 30.5t22.5 72.5q0 39 47 39h17q43 0 43 -47q0 -89 -48.5 -141t-131.5 -52q-39 0 -72 15t-56 36t-44 42.5t-44.5 36.5t-48.5 15q-38 0 -58.5 -30.5t-20.5 -73.5 q-3 -35 -48 -35h-14q-45 0 -45 53zM158 51v928q0 51 51 51h39q49 0 49 -51v-928q0 -51 -49 -51h-39q-51 0 -51 51z" />
<glyph unicode="&#x12a;" horiz-adv-x="542" d="M23 1657v14q0 49 51 49h403q49 0 49 -49v-14q0 -49 -49 -49h-403q-51 0 -51 49zM201 51v1338q0 51 49 51h43q49 0 49 -51v-1338q0 -51 -49 -51h-43q-49 0 -49 51z" />
<glyph unicode="&#x12b;" horiz-adv-x="456" d="M-20 1315v14q0 49 51 49h403q49 0 49 -49v-14q0 -49 -49 -49h-403q-51 0 -51 49zM158 51v928q0 51 51 51h39q49 0 49 -51v-928q0 -51 -49 -51h-39q-51 0 -51 51z" />
<glyph unicode="&#x12c;" horiz-adv-x="542" d="M37 1745q0 39 47 39h20q42 0 48 -37q11 -117 120 -117q51 0 84 28.5t39 88.5q7 37 47 37h21q47 0 47 -39q0 -88 -70.5 -149.5t-167.5 -61.5q-93 0 -164 60t-71 151zM201 51v1338q0 51 49 51h43q49 0 49 -51v-1338q0 -51 -49 -51h-43q-49 0 -49 51z" />
<glyph unicode="&#x12d;" horiz-adv-x="456" d="M-6 1403q0 39 47 39h20q42 0 48 -37q11 -117 120 -117q51 0 84 28.5t39 88.5q7 37 47 37h21q47 0 47 -39q0 -88 -70.5 -149.5t-167.5 -61.5q-93 0 -164 60t-71 151zM158 51v928q0 51 51 51h39q49 0 49 -51v-928q0 -51 -49 -51h-39q-51 0 -51 51z" />
<glyph unicode="&#x12e;" horiz-adv-x="542" d="M59 -229q0 73 50.5 137.5t109.5 103.5q-18 10 -18 39v1338q0 51 49 51h43q49 0 49 -51v-1338q0 -21 -16.5 -44t-39.5 -45t-46 -45.5t-39.5 -55.5t-16.5 -66q0 -67 95 -98q37 -12 28 -51l-4 -23q-9 -44 -51 -37q-30 5 -59.5 16.5t-61.5 31.5t-52 56t-20 81z" />
<glyph unicode="&#x12f;" horiz-adv-x="458" d="M16 -229q0 73 50.5 137.5t109.5 103.5q-16 11 -16 39v928q0 51 51 51h39q49 0 49 -51v-928q0 -26 -24.5 -56t-53.5 -55t-53.5 -64.5t-24.5 -80.5q0 -68 93 -98q37 -12 28 -51l-2 -23q-9 -44 -53 -37q-30 5 -59.5 16.5t-61.5 31.5t-52 56t-20 81zM154 1315v74q0 51 51 51 h51q49 0 49 -51v-74q0 -49 -49 -49h-51q-51 0 -51 49z" />
<glyph unicode="&#x130;" horiz-adv-x="542" d="M201 51v1338q0 51 49 51h43q49 0 49 -51v-1338q0 -51 -49 -51h-43q-49 0 -49 51zM207 1661v72q0 51 49 51h35q49 0 49 -51v-72q0 -51 -49 -51h-35q-49 0 -49 51z" />
<glyph unicode="&#x131;" horiz-adv-x="456" d="M158 51v928q0 51 51 51h39q49 0 49 -51v-928q0 -51 -49 -51h-39q-51 0 -51 51z" />
<glyph unicode="&#x132;" horiz-adv-x="1175" d="M201 51v1338q0 51 49 51h43q49 0 49 -51v-1338q0 -51 -49 -51h-43q-49 0 -49 51zM549 43v33q0 44 47 53q51 5 91.5 21.5t79 52t60 103t21.5 161.5v922q0 51 51 51h43q49 0 49 -51v-926q0 -106 -24.5 -189.5t-63 -134.5t-91 -85t-104.5 -47t-108 -13q-51 0 -51 49z" />
<glyph unicode="&#x133;" horiz-adv-x="931" d="M154 1315v74q0 51 49 51h51q49 0 49 -51v-74q0 -49 -49 -49h-51q-49 0 -49 49zM158 51v928q0 51 51 51h39q49 0 49 -51v-928q0 -51 -49 -51h-39q-51 0 -51 51zM352 -348q0 46 51 49q32 2 58 7.5t60 22.5t57 44t39 76.5t16 115.5v1012q0 51 49 51h39q51 0 51 -51v-1016 q0 -95 -27.5 -168.5t-66.5 -113t-90 -64.5t-89.5 -32t-74.5 -7h-21q-51 0 -51 51v23zM627 1315v74q0 51 49 51h51q49 0 49 -51v-74q0 -49 -49 -49h-51q-49 0 -49 49z" />
<glyph unicode="&#x134;" horiz-adv-x="1046" d="M53 412q0 49 49 49h45q25 0 35 -11.5t13 -43.5q6 -136 70 -216.5t192 -80.5q111 0 186.5 70.5t75.5 223.5v910h-301q-49 0 -49 51v25q0 51 49 51h393q51 0 51 -51v-986q0 -90 -23 -163.5t-62 -122t-91.5 -81t-109.5 -47t-119 -14.5q-78 0 -147.5 24.5t-128.5 74.5 t-93.5 137t-34.5 201zM396 1558q-7 18 10 44l106 149q23 33 61 33h76q38 0 64 -33l104 -149q19 -26 12.5 -44t-34.5 -18h-35q-35 0 -55 35l-91 131h-4l-90 -131q-11 -19 -23.5 -27t-33.5 -8h-31q-29 0 -36 18z" />
<glyph unicode="&#x135;" horiz-adv-x="456" d="M-121 -348q0 46 51 49q33 2 59 7.5t60 22.5t56.5 44t38.5 76.5t16 115.5v1012q0 51 49 51h39q51 0 51 -51v-1016q0 -95 -27.5 -168.5t-66.5 -113t-90 -64.5t-89.5 -32t-74.5 -7h-21q-51 0 -51 51v23zM6.5 1213.5q-7.5 17.5 9.5 43.5l107 150q23 33 61 33h76q39 0 62 -33 l106 -150q17 -26 10 -43.5t-35 -17.5h-32q-36 0 -56 35l-90 131h-4l-92 -131q-11 -20 -22.5 -27.5t-32.5 -7.5h-31q-29 0 -36.5 17.5z" />
<glyph unicode="&#x136;" horiz-adv-x="1193" d="M201 51v1338q0 51 49 51h43q49 0 49 -51v-574h244l366 590q20 35 60 35h51q31 0 40.5 -18t-5.5 -44l-393 -618v-4l421 -697q17 -25 7.5 -42t-39.5 -17h-58q-39 0 -59 35l-391 653h-244v-637q0 -51 -49 -51h-43q-49 0 -49 51zM547 -389q0 5 10 42.5t10 86.5q0 34 -4 57 t-4 39q0 35 45 35h31q59 0 59 -104q0 -64 -25 -126.5t-65 -62.5h-12q-45 0 -45 33z" />
<glyph unicode="&#x137;" horiz-adv-x="995" d="M160 51v1338q0 51 49 51h39q51 0 51 -51v-752h166l285 362q25 31 61 31h51q31 0 40 -18t-11 -43l-311 -387v-4l356 -517q17 -26 7 -43.5t-42 -17.5h-53q-40 0 -60 35l-321 479h-168v-463q0 -51 -51 -51h-39q-49 0 -49 51zM446 -389q0 5 10.5 42.5t10.5 86.5q0 34 -4 57 t-4 39q0 35 45 35h31q59 0 59 -104q0 -64 -25 -126.5t-65 -62.5h-12q-46 0 -46 33z" />
<glyph unicode="&#x138;" horiz-adv-x="993" d="M158 51v928q0 51 51 51h39q49 0 49 -51v-371h162l305 389q23 33 61 33h54q32 0 41.5 -18t-9.5 -43l-331 -416v-4l335 -488q17 -26 8 -43.5t-40 -17.5h-60q-39 0 -59 35l-303 452h-164v-436q0 -51 -49 -51h-39q-51 0 -51 51z" />
<glyph unicode="&#x139;" horiz-adv-x="1021" d="M201 51v1338q0 51 49 51h43q49 0 49 -51v-1262h616q52 0 52 -51v-25q0 -51 -52 -51h-708q-49 0 -49 51zM234 1557q-9 17 6 40l90 152q20 35 59 35h47q32 0 40 -18t-11 -44l-109 -149q-23 -33 -61 -33h-23q-29 0 -38 17z" />
<glyph unicode="&#x13a;" horiz-adv-x="499" d="M160 244v1145q0 51 49 51h39q51 0 51 -51v-1121q0 -46 9.5 -76.5t28 -44.5t33 -19.5t36.5 -8.5q43 -3 43 -45v-31q0 -51 -54 -51q-30 0 -57 4.5t-61.5 20t-58.5 41.5t-41 74t-17 112zM195 1557q-9 17 6 40l90 152q20 35 59 35h47q32 0 40 -18t-11 -44l-109 -149 q-23 -33 -61 -33h-23q-29 0 -38 17z" />
<glyph unicode="&#x13b;" horiz-adv-x="1021" d="M201 51v1338q0 51 49 51h43q49 0 49 -51v-1262h616q52 0 52 -51v-25q0 -51 -52 -51h-708q-49 0 -49 51zM539 -389q0 5 10 42.5t10 86.5q0 34 -4 57t-4 39q0 35 45 35h31q59 0 59 -104q0 -64 -25 -126.5t-65 -62.5h-12q-45 0 -45 33z" />
<glyph unicode="&#x13c;" horiz-adv-x="499" d="M160 244v1145q0 51 49 51h39q51 0 51 -51v-1121q0 -46 9.5 -76.5t28 -44.5t33 -19.5t36.5 -8.5q43 -3 43 -45v-31q0 -51 -54 -51q-30 0 -57 4.5t-61.5 20t-58.5 41.5t-41 74t-17 112zM221 -389q0 5 10.5 42.5t10.5 86.5q0 34 -4.5 57t-4.5 39q0 35 46 35h30q60 0 60 -104 q0 -64 -25 -126.5t-65 -62.5h-13q-45 0 -45 33z" />
<glyph unicode="&#x13d;" horiz-adv-x="1021" d="M201 51v1338q0 51 49 51h43q49 0 49 -51v-1262h616q52 0 52 -51v-25q0 -51 -52 -51h-708q-49 0 -49 51zM520 1178q0 5 10.5 42.5t10.5 86.5q0 33 -4.5 57t-4.5 39q0 35 46 35h30q60 0 60 -105q0 -64 -25 -126t-65 -62h-13q-45 0 -45 33z" />
<glyph unicode="&#x13e;" horiz-adv-x="499" d="M160 244v1145q0 51 49 51h39q51 0 51 -51v-1121q0 -46 9.5 -76.5t28 -44.5t33 -19.5t36.5 -8.5q43 -3 43 -45v-31q0 -51 -54 -51q-30 0 -57 4.5t-61.5 20t-58.5 41.5t-41 74t-17 112zM420 1178q0 5 10 42.5t10 86.5q0 33 -4 57t-4 39q0 35 45 35h31q59 0 59 -105 q0 -64 -25 -126t-65 -62h-12q-45 0 -45 33z" />
<glyph unicode="&#x13f;" horiz-adv-x="1021" d="M201 51v1338q0 51 49 51h43q49 0 49 -51v-1262h616q52 0 52 -51v-25q0 -51 -52 -51h-708q-49 0 -49 51zM598 725v70q0 51 51 51h64q49 0 49 -51v-70q0 -49 -49 -49h-64q-51 0 -51 49z" />
<glyph unicode="&#x140;" horiz-adv-x="567" d="M160 244v1145q0 51 49 51h39q51 0 51 -51v-1121q0 -46 9.5 -76.5t28 -44.5t33 -19.5t36.5 -8.5q43 -3 43 -45v-31q0 -51 -54 -51q-30 0 -57 4.5t-61.5 20t-58.5 41.5t-41 74t-17 112zM430 725v70q0 51 51 51h64q49 0 49 -51v-70q0 -49 -49 -49h-64q-51 0 -51 49z" />
<glyph unicode="&#x141;" horiz-adv-x="1021" d="M74 686v35q0 41 30 59l97 56v553q0 51 51 51h41q49 0 49 -51v-471l172 98q25 15 42 5.5t17 -40.5v-35q0 -40 -34 -61l-197 -113v-645h619q49 0 49 -51v-25q0 -51 -49 -51h-709q-51 0 -51 51v639l-76 -41q-20 -13 -35.5 -2.5t-15.5 39.5z" />
<glyph unicode="&#x142;" horiz-adv-x="518" d="M8 694v35q0 42 29 59l137 78v523q0 51 49 51h39q51 0 51 -51v-441l119 68q26 15 43 5.5t17 -40.5v-35q0 -41 -33 -61l-146 -84v-533q0 -46 9.5 -76.5t28 -44.5t33 -19.5t36.5 -8.5q43 -3 43 -45v-31q0 -51 -53 -51q-30 0 -57.5 4.5t-61.5 20t-58.5 41.5t-41.5 74t-17 112 v477l-115 -64q-22 -13 -36.5 -2.5t-14.5 39.5z" />
<glyph unicode="&#x143;" horiz-adv-x="1525" d="M201 51v1338q0 51 49 51h49q38 0 61 -33l713 -1004q22 -32 51.5 -80.5t48.5 -80.5l19 -33h4q-12 118 -12 194v986q0 51 51 51h41q49 0 49 -51v-1338q0 -51 -49 -51h-49q-40 0 -60 33l-714 1003q-22 32 -51.5 81t-48.5 81l-19 33h-4q12 -119 12 -195v-985q0 -51 -49 -51 h-43q-49 0 -49 51zM723.5 1557q-9.5 17 5.5 40l90 152q20 35 60 35h47q32 0 39.5 -18t-11.5 -44l-108 -149q-23 -33 -62 -33h-22q-29 0 -38.5 17z" />
<glyph unicode="&#x144;" horiz-adv-x="1196" d="M158 51v928q0 51 51 51h37q49 0 49 -51v-119q0 -18 -2 -36.5t-4 -27.5l-2 -10h4q13 31 35 64.5t59 71t82 66.5t108 48t132 19q185 0 265.5 -100.5t80.5 -299.5v-604q0 -51 -52 -51h-38q-50 0 -50 51v567q0 55 -4 95t-18 82t-38 68.5t-65.5 43.5t-99.5 17 q-165 0 -278 -120.5t-113 -299.5v-453q0 -51 -49 -51h-39q-51 0 -51 51zM586.5 1215q-9.5 17 5.5 40l90 152q20 35 59 35h47q32 0 40 -18t-11 -44l-108 -149q-23 -33 -62 -33h-22q-29 0 -38.5 17z" />
<glyph unicode="&#x145;" horiz-adv-x="1525" d="M201 51v1338q0 51 49 51h49q38 0 61 -33l713 -1004q22 -32 51.5 -80.5t48.5 -80.5l19 -33h4q-12 118 -12 194v986q0 51 51 51h41q49 0 49 -51v-1338q0 -51 -49 -51h-49q-40 0 -60 33l-714 1003q-22 32 -51.5 81t-48.5 81l-19 33h-4q12 -119 12 -195v-985q0 -51 -49 -51 h-43q-49 0 -49 51zM682 -389q0 5 10 42.5t10 86.5q0 34 -4 57t-4 39q0 35 45 35h31q59 0 59 -104q0 -64 -25 -126.5t-65 -62.5h-12q-45 0 -45 33z" />
<glyph unicode="&#x146;" horiz-adv-x="1196" d="M158 51v928q0 51 51 51h37q49 0 49 -51v-119q0 -18 -2 -36.5t-4 -27.5l-2 -10h4q13 31 35 64.5t59 71t82 66.5t108 48t132 19q185 0 265.5 -100.5t80.5 -299.5v-604q0 -51 -52 -51h-38q-50 0 -50 51v567q0 55 -4 95t-18 82t-38 68.5t-65.5 43.5t-99.5 17 q-165 0 -278 -120.5t-113 -299.5v-453q0 -51 -49 -51h-39q-51 0 -51 51zM524 -389q0 5 10.5 42.5t10.5 86.5q0 34 -4 57t-4 39q0 35 45 35h30q60 0 60 -104q0 -64 -25 -126.5t-65 -62.5h-13q-45 0 -45 33z" />
<glyph unicode="&#x147;" horiz-adv-x="1525" d="M201 51v1338q0 51 49 51h49q38 0 61 -33l713 -1004q22 -32 51.5 -80.5t48.5 -80.5l19 -33h4q-12 118 -12 194v986q0 51 51 51h41q49 0 49 -51v-1338q0 -51 -49 -51h-49q-40 0 -60 33l-714 1003q-22 32 -51.5 81t-48.5 81l-19 33h-4q12 -119 12 -195v-985q0 -51 -49 -51 h-43q-49 0 -49 51zM545.5 1766q7.5 18 36.5 18h30q38 0 58 -33l90 -131h4l90 131q20 33 55 33h33q29 0 36.5 -18t-11.5 -44l-105 -149q-26 -33 -63 -33h-76q-38 0 -61 33l-107 149q-17 26 -9.5 44z" />
<glyph unicode="&#x148;" horiz-adv-x="1196" d="M158 51v928q0 51 51 51h37q49 0 49 -51v-119q0 -18 -2 -36.5t-4 -27.5l-2 -10h4q13 31 35 64.5t59 71t82 66.5t108 48t132 19q185 0 265.5 -100.5t80.5 -299.5v-604q0 -51 -52 -51h-38q-50 0 -50 51v567q0 55 -4 95t-18 82t-38 68.5t-65.5 43.5t-99.5 17 q-165 0 -278 -120.5t-113 -299.5v-453q0 -51 -49 -51h-39q-51 0 -51 51zM408 1424q7 18 36 18h31q37 0 57 -33l91 -131h4l90 131q20 33 55 33h33q29 0 36 -18t-12 -44l-104 -149q-26 -33 -63 -33h-76q-39 0 -62 33l-106 149q-17 26 -10 44z" />
<glyph unicode="&#x149;" horiz-adv-x="1196" d="M20 1178q0 5 10.5 42.5t10.5 86.5q0 33 -4 57t-4 39q0 35 45 35h31q59 0 59 -105q0 -64 -25 -126t-65 -62h-12q-46 0 -46 33zM158 51v928q0 51 51 51h37q49 0 49 -51v-119q0 -18 -2 -36.5t-4 -27.5l-2 -10h4q13 31 35 64.5t59 71t82 66.5t108 48t132 19 q185 0 265.5 -100.5t80.5 -299.5v-604q0 -51 -52 -51h-38q-50 0 -50 51v567q0 55 -4 95t-18 82t-38 68.5t-65.5 43.5t-99.5 17q-165 0 -278 -120.5t-113 -299.5v-453q0 -51 -49 -51h-39q-51 0 -51 51z" />
<glyph unicode="&#x14a;" horiz-adv-x="1525" d="M201 51v1338q0 51 49 51h49q38 0 61 -33l713 -1004q22 -32 51.5 -80.5t48.5 -80.5l19 -33h4q-12 118 -12 194v986q0 51 51 51h41q49 0 49 -51v-1395q0 -87 -21 -157t-56 -116t-83.5 -77.5t-100.5 -46t-110 -17.5q-53 -3 -53 49v29q0 48 49 51q113 10 174.5 79t61.5 218 l-733 1030q-22 32 -51.5 81t-48.5 81l-19 33h-4q12 -119 12 -195v-985q0 -51 -49 -51h-43q-49 0 -49 51z" />
<glyph unicode="&#x14b;" horiz-adv-x="1200" d="M158 51v928q0 51 51 51h37q49 0 49 -51v-119q0 -18 -2 -36.5t-4 -27.5l-2 -10h4q13 31 35 64.5t59 71t82 66.5t108 48t132 19q185 0 265.5 -100.5t80.5 -299.5v-692q0 -95 -27.5 -168.5t-66.5 -113t-90 -64.5t-89.5 -32t-74.5 -7h-21q-51 0 -51 51v23q0 46 51 49 q33 2 59 7.5t59.5 22.5t56 44t38.5 76.5t16 115.5v651q0 55 -4 95t-18 82t-38 68.5t-65.5 43.5t-99.5 17q-165 0 -278 -120.5t-113 -299.5v-453q0 -51 -49 -51h-39q-51 0 -51 51z" />
<glyph unicode="&#x14c;" horiz-adv-x="1673" d="M102 729q0 153 56 289t153 234t233.5 155t291.5 57q207 0 375.5 -97t263 -265t94.5 -373q0 -209 -94.5 -381.5t-263 -272.5t-375.5 -100q-155 0 -291.5 59t-233.5 159.5t-153 240t-56 295.5zM250 729q0 -173 76 -315t210.5 -223.5t299.5 -81.5q166 0 300.5 81.5 t209.5 223.5t75 315q0 169 -75 306.5t-209.5 216.5t-300.5 79q-165 0 -299.5 -78.5t-210.5 -216.5t-76 -307zM584 1657v14q0 49 51 49h403q49 0 49 -49v-14q0 -49 -49 -49h-403q-51 0 -51 49z" />
<glyph unicode="&#x14d;" horiz-adv-x="1259" d="M86 520q0 149 73 272.5t197.5 193t272.5 69.5q149 0 274 -69.5t198 -192.5t73 -273q0 -114 -43 -216t-116 -173.5t-173 -113.5t-211 -42t-211.5 42t-174 113.5t-116.5 173.5t-43 216zM229 520q0 -178 117.5 -299t284.5 -121q166 0 282.5 121t116.5 299 q0 173 -116.5 291.5t-282.5 118.5q-167 0 -284.5 -118.5t-117.5 -291.5zM377 1315v14q0 49 51 49h403q50 0 50 -49v-14q0 -49 -50 -49h-403q-51 0 -51 49z" />
<glyph unicode="&#x14e;" horiz-adv-x="1673" d="M102 729q0 153 56 289t153 234t233.5 155t291.5 57q207 0 375.5 -97t263 -265t94.5 -373q0 -209 -94.5 -381.5t-263 -272.5t-375.5 -100q-155 0 -291.5 59t-233.5 159.5t-153 240t-56 295.5zM250 729q0 -173 76 -315t210.5 -223.5t299.5 -81.5q166 0 300.5 81.5 t209.5 223.5t75 315q0 169 -75 306.5t-209.5 216.5t-300.5 79q-165 0 -299.5 -78.5t-210.5 -216.5t-76 -307zM598 1745q0 39 47 39h21q41 0 47 -37q6 -60 38.5 -88.5t82.5 -28.5t83 28.5t39 88.5q7 37 48 37h20q47 0 47 -39q0 -88 -70.5 -149.5t-166.5 -61.5 q-93 0 -164.5 60t-71.5 151z" />
<glyph unicode="&#x14f;" horiz-adv-x="1259" d="M86 520q0 149 73 272.5t197.5 193t272.5 69.5q149 0 274 -69.5t198 -192.5t73 -273q0 -114 -43 -216t-116 -173.5t-173 -113.5t-211 -42t-211.5 42t-174 113.5t-116.5 173.5t-43 216zM229 520q0 -178 117.5 -299t284.5 -121q166 0 282.5 121t116.5 299 q0 173 -116.5 291.5t-282.5 118.5q-167 0 -284.5 -118.5t-117.5 -291.5zM393 1403q0 39 47 39h21q41 0 47 -37q6 -60 38.5 -88.5t82.5 -28.5q51 0 84 28.5t39 88.5q7 37 47 37h20q47 0 47 -39q0 -88 -70.5 -149.5t-166.5 -61.5q-93 0 -164.5 60t-71.5 151z" />
<glyph unicode="&#x150;" horiz-adv-x="1673" d="M102 729q0 153 56 289t153 234t233.5 155t291.5 57q207 0 375.5 -97t263 -265t94.5 -373q0 -209 -94.5 -381.5t-263 -272.5t-375.5 -100q-155 0 -291.5 59t-233.5 159.5t-153 240t-56 295.5zM250 729q0 -173 76 -315t210.5 -223.5t299.5 -81.5q166 0 300.5 81.5 t209.5 223.5t75 315q0 169 -75 306.5t-209.5 216.5t-300.5 79q-165 0 -299.5 -78.5t-210.5 -216.5t-76 -307zM633 1557q-10 17 4 42l82 148q18 37 59 37h31q30 0 39 -17.5t-6 -42.5l-84 -147q-21 -37 -60 -37h-26q-29 0 -39 17zM906.5 1557q-9.5 17 4.5 42l90 150 q20 35 60 35h45q31 0 38.5 -18t-11.5 -44l-107 -149q-26 -33 -61 -33h-19q-30 0 -39.5 17z" />
<glyph unicode="&#x151;" horiz-adv-x="1259" d="M86 520q0 149 73 272.5t197.5 193t272.5 69.5q149 0 274 -69.5t198 -192.5t73 -273q0 -114 -43 -216t-116 -173.5t-173 -113.5t-211 -42t-211.5 42t-174 113.5t-116.5 173.5t-43 216zM229 520q0 -178 117.5 -299t284.5 -121q166 0 282.5 121t116.5 299 q0 173 -116.5 291.5t-282.5 118.5q-167 0 -284.5 -118.5t-117.5 -291.5zM426 1215q-10 17 4 42l82 148q18 37 59 37h31q30 0 39 -17.5t-6 -42.5l-84 -147q-21 -37 -59 -37h-27q-29 0 -39 17zM700 1215q-9 17 5 42l90 150q20 35 59 35h45q31 0 38.5 -18t-11.5 -44l-107 -149 q-26 -33 -61 -33h-19q-30 0 -39 17z" />
<glyph unicode="&#x152;" horiz-adv-x="1912" d="M102 721q0 205 94.5 374t263.5 267t378 98q44 0 128 -10t115 -10h662q49 0 49 -51v-25q0 -51 -49 -51h-621v-525h498q49 0 49 -49v-26q0 -51 -49 -51h-498v-535h658q49 0 49 -51v-25q0 -51 -49 -51h-697q-29 0 -114.5 -10t-130.5 -10q-209 0 -378 97.5t-263.5 267 t-94.5 376.5zM250 721q0 -129 43 -241.5t119.5 -194.5t186.5 -129t239 -47q35 0 70.5 4t53.5 8l19 4v1190q-65 16 -143 16q-129 0 -239 -47t-186.5 -128.5t-119.5 -194t-43 -240.5z" />
<glyph unicode="&#x153;" horiz-adv-x="2054" d="M88 512q0 160 74 285t196 191.5t269 66.5q154 0 277 -74t188 -203h4q62 132 177.5 204.5t264.5 72.5q203 0 317.5 -134.5t114.5 -357.5q0 -22 -15.5 -36.5t-37.5 -14.5h-741q5 -131 61.5 -226t143.5 -140.5t194 -45.5q152 0 268 95q46 28 70 -13l12 -22q24 -44 -12 -70 q-56 -43 -145 -79t-199 -36q-159 0 -283 75t-186 206h-4q-65 -132 -188.5 -206.5t-280.5 -74.5q-147 0 -269 65t-196 189t-74 283zM231 512q0 -182 115.5 -297t282.5 -115q169 0 285 116.5t116 303.5q0 182 -118 296t-283 114q-167 0 -282.5 -117t-115.5 -301zM1182 616h645 q-6 154 -88.5 238t-202.5 84q-134 0 -232 -85t-122 -237z" />
<glyph unicode="&#x154;" d="M201 51v1338q0 51 49 51h389q175 0 262 -41q99 -47 156 -140t57 -221q0 -146 -75 -254.5t-197 -142.5v-4q14 -18 37 -57l280 -521q14 -26 4 -42.5t-39 -16.5h-53q-41 0 -59 35l-307 571h-363v-555q0 -51 -49 -51h-43q-49 0 -49 51zM342 733h342q130 0 207.5 82.5 t77.5 218.5q0 86 -40 153t-112 99q-61 27 -188 27h-287v-580zM569.5 1557q-9.5 17 5.5 40l91 152q20 35 59 35h47q32 0 40 -18t-11 -44l-109 -149q-23 -33 -61 -33h-23q-29 0 -38.5 17z" />
<glyph unicode="&#x155;" horiz-adv-x="692" d="M158 51v928q0 51 51 51h37q49 0 49 -51v-139q0 -20 -2 -40.5t-4 -31.5l-2 -10h4q39 120 127 199t205 79q53 0 53 -49v-37q0 -24 -15.5 -37.5t-42.5 -13.5q-78 0 -141 -41.5t-101.5 -109.5t-58.5 -148.5t-20 -163.5v-385q0 -51 -49 -51h-39q-51 0 -51 51zM391.5 1213 q-9.5 17 5.5 40l90 152q20 35 60 35h47q32 0 40 -18t-11 -44l-109 -149q-23 -33 -61 -33h-23q-29 0 -38.5 17z" />
<glyph unicode="&#x156;" horiz-adv-x="1245" d="M201 51v1338q0 51 49 51h389q175 0 262 -41q99 -47 156 -140t57 -221q0 -146 -75 -254.5t-197 -142.5v-4q14 -18 37 -57l280 -521q14 -26 4 -42.5t-39 -16.5h-53q-41 0 -59 35l-307 571h-363v-555q0 -51 -49 -51h-43q-49 0 -49 51zM342 733h342q130 0 207.5 82.5 t77.5 218.5q0 86 -40 153t-112 99q-61 27 -188 27h-287v-580zM571 -389q0 5 10.5 42.5t10.5 86.5q0 34 -4 57t-4 39q0 35 45 35h30q60 0 60 -104q0 -64 -25 -126.5t-65 -62.5h-13q-45 0 -45 33z" />
<glyph unicode="&#x157;" horiz-adv-x="692" d="M154 -389q0 5 10 42.5t10 86.5q0 34 -4 57t-4 39q0 35 45 35h31q59 0 59 -104q0 -64 -25 -126.5t-65 -62.5h-12q-45 0 -45 33zM158 51v928q0 51 51 51h37q49 0 49 -51v-139q0 -20 -2 -40.5t-4 -31.5l-2 -10h4q39 120 127 199t205 79q53 0 53 -49v-37q0 -24 -15.5 -37.5 t-42.5 -13.5q-78 0 -141 -41.5t-101.5 -109.5t-58.5 -148.5t-20 -163.5v-385q0 -51 -49 -51h-39q-51 0 -51 51z" />
<glyph unicode="&#x158;" d="M201 51v1338q0 51 49 51h389q175 0 262 -41q99 -47 156 -140t57 -221q0 -146 -75 -254.5t-197 -142.5v-4q14 -18 37 -57l280 -521q14 -26 4 -42.5t-39 -16.5h-53q-41 0 -59 35l-307 571h-363v-555q0 -51 -49 -51h-43q-49 0 -49 51zM342 733h342q130 0 207.5 82.5 t77.5 218.5q0 86 -40 153t-112 99q-61 27 -188 27h-287v-580zM393.5 1766q7.5 18 36.5 18h31q37 0 57 -33l90 -131h4l90 131q20 33 56 33h33q29 0 36 -18t-12 -44l-104 -149q-26 -33 -64 -33h-76q-38 0 -61 33l-107 149q-17 26 -9.5 44z" />
<glyph unicode="&#x159;" horiz-adv-x="692" d="M158 51v928q0 51 51 51h37q49 0 49 -51v-139q0 -20 -2 -40.5t-4 -31.5l-2 -10h4q39 120 127 199t205 79q53 0 53 -49v-37q0 -24 -15.5 -37.5t-42.5 -13.5q-78 0 -141 -41.5t-101.5 -109.5t-58.5 -148.5t-20 -163.5v-385q0 -51 -49 -51h-39q-51 0 -51 51zM215.5 1422 q7.5 18 36.5 18h31q37 0 57 -33l90 -131h4l90 131q20 33 56 33h32q29 0 36.5 -18t-11.5 -44l-105 -149q-26 -33 -63 -33h-76q-38 0 -61 33l-107 149q-17 26 -9.5 44z" />
<glyph unicode="&#x15a;" horiz-adv-x="1077" d="M115 199l24 30q29 37 72 7q33 -27 72 -51.5t112.5 -49t147.5 -24.5q130 0 211.5 67t81.5 178q0 73 -39.5 130t-103 94.5t-139.5 71t-152.5 70.5t-140 81.5t-103 115t-39.5 160.5q0 173 128.5 279t321.5 106q114 0 205.5 -35t145.5 -77q37 -26 12 -68l-19 -33 q-24 -42 -71 -14q-134 92 -277 92q-128 0 -214.5 -65.5t-86.5 -176.5q0 -70 39.5 -123.5t103 -89t139.5 -68t152.5 -69t140 -82t103 -118t39.5 -166.5q0 -171 -119 -283.5t-319 -112.5q-97 0 -190.5 30t-142.5 59.5t-89 62.5q-33 33 -6 72zM502.5 1557q-9.5 17 5.5 40 l90 152q20 35 59 35h48q32 0 39.5 -18t-11.5 -44l-108 -149q-23 -33 -62 -33h-22q-29 0 -38.5 17z" />
<glyph unicode="&#x15b;" horiz-adv-x="882" d="M94 164l17 20q26 36 69 9q122 -95 273 -95q90 0 149.5 43.5t59.5 122.5q0 41 -23.5 74t-62.5 54t-88.5 42.5t-101 39.5t-101 45t-88.5 58t-62.5 79.5t-23.5 109.5q0 92 49 158.5t127 98.5t174 32q165 0 282 -84q41 -24 15 -68l-15 -22q-22 -41 -69 -15q-95 66 -221 66 q-88 0 -145.5 -40t-57.5 -120q0 -48 30.5 -84.5t78.5 -60.5t106.5 -45.5t117.5 -47.5t107 -58.5t78.5 -86t30.5 -123.5q0 -128 -97.5 -209.5t-250.5 -81.5q-119 0 -207 37t-142 82q-37 27 -8 70zM406 1215q-9 17 6 40l90 152q20 35 59 35h47q32 0 40 -18t-11 -44l-109 -149 q-23 -33 -61 -33h-23q-29 0 -38 17z" />
<glyph unicode="&#x15c;" horiz-adv-x="1077" d="M115 199l24 30q29 37 72 7q33 -27 72 -51.5t112.5 -49t147.5 -24.5q130 0 211.5 67t81.5 178q0 73 -39.5 130t-103 94.5t-139.5 71t-152.5 70.5t-140 81.5t-103 115t-39.5 160.5q0 173 128.5 279t321.5 106q114 0 205.5 -35t145.5 -77q37 -26 12 -68l-19 -33 q-24 -42 -71 -14q-134 92 -277 92q-128 0 -214.5 -65.5t-86.5 -176.5q0 -70 39.5 -123.5t103 -89t139.5 -68t152.5 -69t140 -82t103 -118t39.5 -166.5q0 -171 -119 -283.5t-319 -112.5q-97 0 -190.5 30t-142.5 59.5t-89 62.5q-33 33 -6 72zM326 1558q-7 18 10 44l106 149 q23 33 62 33h76q37 0 63 -33l105 -149q19 -26 12 -44t-35 -18h-35q-35 0 -55 35l-90 131h-4l-90 -131q-20 -35 -58 -35h-31q-29 0 -36 18z" />
<glyph unicode="&#x15d;" horiz-adv-x="882" d="M94 164l17 20q26 36 69 9q122 -95 273 -95q90 0 149.5 43.5t59.5 122.5q0 41 -23.5 74t-62.5 54t-88.5 42.5t-101 39.5t-101 45t-88.5 58t-62.5 79.5t-23.5 109.5q0 92 49 158.5t127 98.5t174 32q165 0 282 -84q41 -24 15 -68l-15 -22q-22 -41 -69 -15q-95 66 -221 66 q-88 0 -145.5 -40t-57.5 -120q0 -48 30.5 -84.5t78.5 -60.5t106.5 -45.5t117.5 -47.5t107 -58.5t78.5 -86t30.5 -123.5q0 -128 -97.5 -209.5t-250.5 -81.5q-119 0 -207 37t-142 82q-37 27 -8 70zM234 1216q-7 18 10 44l106 149q23 33 62 33h75q38 0 64 -33l104 -149 q19 -26 12.5 -44t-34.5 -18h-35q-35 0 -55 35l-90 131h-4l-91 -131q-11 -19 -23.5 -27t-33.5 -8h-31q-29 0 -36 18z" />
<glyph unicode="&#x15e;" horiz-adv-x="1081" d="M115 199l24 30q29 37 72 7q33 -27 72 -51.5t112.5 -49t147.5 -24.5q130 0 211.5 67t81.5 178q0 73 -39.5 130t-103 94.5t-139.5 71t-152.5 70.5t-140 81.5t-103 115t-39.5 160.5q0 173 128.5 279t321.5 106q114 0 205.5 -35t145.5 -77q37 -26 12 -68l-19 -33 q-24 -42 -71 -14q-134 92 -277 92q-128 0 -214.5 -65.5t-86.5 -176.5q0 -70 39.5 -123.5t103 -89t139.5 -68t152.5 -69t140 -82t103 -118t39.5 -166.5q0 -161 -106.5 -271.5t-288.5 -122.5l-17 -90q64 -9 104 -47t40 -98q0 -83 -56.5 -122.5t-140.5 -39.5q-98 0 -98 49 q0 22 8.5 37t24.5 15q7 0 22.5 -3.5t30.5 -3.5q43 0 71.5 16.5t28.5 53.5q0 32 -27.5 50.5t-72.5 21.5q-18 2 -28.5 15.5t-6.5 37.5l25 108q-121 9 -218.5 55t-154.5 95q-33 33 -6 72z" />
<glyph unicode="&#x15f;" horiz-adv-x="886" d="M94 164l17 20q26 36 69 9q122 -95 273 -95q90 0 149.5 43.5t59.5 122.5q0 41 -23.5 74t-62.5 54t-88.5 42.5t-101 39.5t-101 45t-88.5 58t-62.5 79.5t-23.5 109.5q0 92 49 158.5t127 98.5t174 32q165 0 282 -84q41 -24 15 -68l-15 -22q-22 -41 -69 -15q-95 66 -221 66 q-88 0 -145.5 -40t-57.5 -120q0 -48 30.5 -84.5t78.5 -60.5t106.5 -45.5t117.5 -47.5t107 -58.5t78.5 -86t30.5 -123.5q0 -120 -87 -200t-225 -89l-16 -90q64 -9 103.5 -47t39.5 -98q0 -83 -56 -122.5t-140 -39.5q-99 0 -99 49q0 22 8.5 37t24.5 15q7 0 23 -3.5t31 -3.5 q43 0 71.5 16.5t28.5 53.5q0 32 -27.5 50.5t-72.5 21.5q-18 2 -28.5 15.5t-6.5 37.5l24 108q-177 17 -293 117q-37 27 -8 70z" />
<glyph unicode="&#x160;" horiz-adv-x="1077" d="M115 199l24 30q29 37 72 7q33 -27 72 -51.5t112.5 -49t147.5 -24.5q130 0 211.5 67t81.5 178q0 73 -39.5 130t-103 94.5t-139.5 71t-152.5 70.5t-140 81.5t-103 115t-39.5 160.5q0 173 128.5 279t321.5 106q114 0 205.5 -35t145.5 -77q37 -26 12 -68l-19 -33 q-24 -42 -71 -14q-134 92 -277 92q-128 0 -214.5 -65.5t-86.5 -176.5q0 -70 39.5 -123.5t103 -89t139.5 -68t152.5 -69t140 -82t103 -118t39.5 -166.5q0 -171 -119 -283.5t-319 -112.5q-97 0 -190.5 30t-142.5 59.5t-89 62.5q-33 33 -6 72zM326 1766q7 18 36 18h31 q38 0 58 -33l90 -131h4l90 131q20 33 55 33h33q29 0 36.5 -18t-11.5 -44l-105 -149q-26 -33 -63 -33h-76q-39 0 -62 33l-106 149q-17 26 -10 44z" />
<glyph unicode="&#x161;" horiz-adv-x="882" d="M94 164l17 20q26 36 69 9q122 -95 273 -95q90 0 149.5 43.5t59.5 122.5q0 41 -23.5 74t-62.5 54t-88.5 42.5t-101 39.5t-101 45t-88.5 58t-62.5 79.5t-23.5 109.5q0 92 49 158.5t127 98.5t174 32q165 0 282 -84q41 -24 15 -68l-15 -22q-22 -41 -69 -15q-95 66 -221 66 q-88 0 -145.5 -40t-57.5 -120q0 -48 30.5 -84.5t78.5 -60.5t106.5 -45.5t117.5 -47.5t107 -58.5t78.5 -86t30.5 -123.5q0 -128 -97.5 -209.5t-250.5 -81.5q-119 0 -207 37t-142 82q-37 27 -8 70zM234 1424q7 18 36 18h31q37 0 57 -33l91 -131h4l90 131q20 33 55 33h33 q29 0 36 -18t-12 -44l-104 -149q-26 -33 -64 -33h-75q-39 0 -62 33l-106 149q-17 26 -10 44z" />
<glyph unicode="&#x162;" horiz-adv-x="1200" d="M12 1364v25q0 51 51 51h1074q51 0 51 -51v-25q0 -51 -51 -51h-467v-1262q0 -39 -29 -49l-20 -115q64 -9 103.5 -47t39.5 -98q0 -83 -56.5 -122.5t-140.5 -39.5q-98 0 -98 49q0 22 8.5 37t24.5 15q7 0 22.5 -3.5t30.5 -3.5q43 0 71.5 16.5t28.5 53.5q0 32 -27.5 50.5 t-72.5 21.5q-18 2 -28.5 15.5t-6.5 37.5l31 137q-23 13 -23 45v1262h-465q-51 0 -51 51z" />
<glyph unicode="&#x163;" horiz-adv-x="659" d="M66 954v17q0 51 49 51h88v242q0 51 51 51h37q49 0 49 -51v-242h209q51 0 51 -51v-17q0 -49 -51 -49h-209v-516q0 -259 225 -270q31 -3 43.5 -14t12.5 -37v-27q0 -49 -58 -49q-54 0 -119 14l-20 -119q64 -9 103.5 -47t39.5 -98q0 -83 -56 -122.5t-140 -39.5q-99 0 -99 49 q0 22 8.5 37t24.5 15q7 0 22.5 -3.5t30.5 -3.5q43 0 72 16.5t29 53.5q0 32 -28 50.5t-73 21.5q-18 2 -28 15.5t-6 37.5l38 170q-78 43 -119.5 128.5t-41.5 203.5v534h-86q-49 0 -49 49z" />
<glyph unicode="&#x164;" horiz-adv-x="1200" d="M12 1364v25q0 51 51 51h1074q51 0 51 -51v-25q0 -51 -51 -51h-467v-1262q0 -51 -49 -51h-41q-52 0 -52 51v1262h-465q-51 0 -51 51zM381.5 1766q7.5 18 36.5 18h31q37 0 57 -33l90 -131h4l90 131q20 33 55 33h33q29 0 36.5 -18t-11.5 -44l-105 -149q-26 -33 -63 -33h-76 q-38 0 -61 33l-107 149q-17 26 -9.5 44z" />
<glyph unicode="&#x165;" horiz-adv-x="655" d="M63 954v17q0 51 50 51h88v242q0 51 51 51h37q49 0 49 -51v-242h209q51 0 51 -51v-17q0 -49 -51 -49h-209v-516q0 -259 225 -270q31 -3 43 -14t12 -37v-27q0 -49 -57 -49q-170 0 -266 99.5t-96 279.5v534h-86q-50 0 -50 49zM465 1178q0 5 10 42.5t10 86.5q0 33 -4 57 t-4 39q0 35 45 35h31q59 0 59 -105q0 -64 -25 -126t-65 -62h-12q-45 0 -45 33z" />
<glyph unicode="&#x166;" horiz-adv-x="1204" d="M14 1364v25q0 51 49 51h1076q51 0 51 -51v-25q0 -51 -51 -51h-467v-533h289q51 0 51 -49v-16q0 -51 -51 -51h-289v-613q0 -51 -49 -51h-41q-52 0 -52 51v613h-280q-49 0 -49 51v16q0 49 49 49h280v533h-467q-49 0 -49 51z" />
<glyph unicode="&#x167;" horiz-adv-x="661" d="M63 621v16q0 51 50 51h86v221h-86q-50 0 -50 49v13q0 51 50 51h88v242q0 51 51 51h37q49 0 49 -51v-242h209q51 0 51 -51v-13q0 -49 -49 -49h-211v-221h209q51 0 51 -51v-16q0 -23 -13 -36.5t-36 -13.5h-211v-186q0 -67 16.5 -117.5t39 -77.5t56 -43.5t58.5 -21.5t55 -6 q31 -3 43 -14t12 -37v-27q0 -49 -57 -49q-169 0 -265.5 99.5t-96.5 279.5v200h-86q-50 0 -50 50z" />
<glyph unicode="&#x168;" horiz-adv-x="1464" d="M180 502v887q0 51 51 51h41q52 0 52 -51v-885q0 -185 110 -290t297 -105q188 0 299 106t111 293v881q0 51 51 51h41q49 0 49 -51v-887q0 -238 -151.5 -382.5t-397.5 -144.5q-247 0 -400 144.5t-153 382.5zM416 1599q0 82 50.5 134.5t129.5 52.5q39 0 72 -15t56 -37 t43.5 -44t44 -37t48.5 -15q37 0 57.5 30.5t22.5 72.5q0 39 47 39h17q43 0 43 -47q0 -89 -49 -141t-132 -52q-39 0 -72 15t-56 36.5t-43.5 43t-44 36.5t-48.5 15q-38 0 -59 -31t-21 -74q-3 -35 -47 -35h-14q-45 0 -45 53z" />
<glyph unicode="&#x169;" horiz-adv-x="1187" d="M145 375v604q0 51 50 51h38q52 0 52 -51v-567q0 -55 4 -95t17.5 -82t37 -68.5t65 -43.5t99.5 -17q114 0 202.5 61.5t133.5 159t45 210.5v442q0 51 51 51h39q49 0 49 -51v-928q0 -51 -49 -51h-37q-49 0 -49 51v119l6 74h-4q-16 -41 -49 -85t-82.5 -86.5t-122 -70 t-152.5 -27.5q-180 0 -262 98t-82 302zM270 1257q0 82 51 134.5t130 52.5q39 0 72 -15t56 -37t43.5 -44t44 -37t48.5 -15q37 0 57.5 30.5t22.5 72.5q0 39 47 39h16q43 0 43 -47q0 -89 -48.5 -141t-131.5 -52q-39 0 -72 15t-56 36t-43.5 42.5t-44 36.5t-48.5 15 q-38 0 -59 -30.5t-21 -73.5q-3 -35 -47 -35h-15q-45 0 -45 53z" />
<glyph unicode="&#x16a;" horiz-adv-x="1464" d="M180 502v887q0 51 51 51h41q52 0 52 -51v-885q0 -185 110 -290t297 -105q188 0 299 106t111 293v881q0 51 51 51h41q49 0 49 -51v-887q0 -238 -151.5 -382.5t-397.5 -144.5q-247 0 -400 144.5t-153 382.5zM479 1657v14q0 49 51 49h404q49 0 49 -49v-14q0 -49 -49 -49 h-404q-51 0 -51 49z" />
<glyph unicode="&#x16b;" horiz-adv-x="1187" d="M145 375v604q0 51 50 51h38q52 0 52 -51v-567q0 -55 4 -95t17.5 -82t37 -68.5t65 -43.5t99.5 -17q114 0 202.5 61.5t133.5 159t45 210.5v442q0 51 51 51h39q49 0 49 -51v-928q0 -51 -49 -51h-37q-49 0 -49 51v119l6 74h-4q-16 -41 -49 -85t-82.5 -86.5t-122 -70 t-152.5 -27.5q-180 0 -262 98t-82 302zM334 1315v14q0 49 51 49h403q50 0 50 -49v-14q0 -49 -50 -49h-403q-51 0 -51 49z" />
<glyph unicode="&#x16c;" horiz-adv-x="1464" d="M180 502v887q0 51 51 51h41q52 0 52 -51v-885q0 -185 110 -290t297 -105q188 0 299 106t111 293v881q0 51 51 51h41q49 0 49 -51v-887q0 -238 -151.5 -382.5t-397.5 -144.5q-247 0 -400 144.5t-153 382.5zM494 1745q0 39 47 39h20q41 0 47 -37q6 -60 38.5 -88.5 t82.5 -28.5q51 0 84 28.5t39 88.5q7 37 47 37h21q47 0 47 -39q0 -88 -70.5 -149.5t-167.5 -61.5q-93 0 -164 60t-71 151z" />
<glyph unicode="&#x16d;" horiz-adv-x="1187" d="M145 375v604q0 51 50 51h38q52 0 52 -51v-567q0 -55 4 -95t17.5 -82t37 -68.5t65 -43.5t99.5 -17q114 0 202.5 61.5t133.5 159t45 210.5v442q0 51 51 51h39q49 0 49 -51v-928q0 -51 -49 -51h-37q-49 0 -49 51v119l6 74h-4q-16 -41 -49 -85t-82.5 -86.5t-122 -70 t-152.5 -27.5q-180 0 -262 98t-82 302zM348 1403q0 39 47 39h21q41 0 47 -37q6 -60 38.5 -88.5t82.5 -28.5q51 0 84 28.5t39 88.5q7 37 47 37h20q47 0 47 -39q0 -88 -70.5 -149.5t-166.5 -61.5q-93 0 -164.5 60t-71.5 151z" />
<glyph unicode="&#x16e;" horiz-adv-x="1464" d="M180 502v887q0 51 51 51h41q52 0 52 -51v-885q0 -185 110 -290t297 -105q188 0 299 106t111 293v881q0 51 51 51h41q49 0 49 -51v-887q0 -238 -151.5 -382.5t-397.5 -144.5q-247 0 -400 144.5t-153 382.5zM575 1663q0 63 45 104t109 41q65 0 110.5 -41t45.5 -104 t-45.5 -104t-110.5 -41q-64 0 -109 41t-45 104zM664 1663q0 -30 18 -49t47 -19q30 0 49 19t19 49q0 31 -18.5 50.5t-49.5 19.5q-29 0 -47 -19.5t-18 -50.5z" />
<glyph unicode="&#x16f;" horiz-adv-x="1187" d="M145 375v604q0 51 50 51h38q52 0 52 -51v-567q0 -55 4 -95t17.5 -82t37 -68.5t65 -43.5t99.5 -17q114 0 202.5 61.5t133.5 159t45 210.5v442q0 51 51 51h39q49 0 49 -51v-928q0 -51 -49 -51h-37q-49 0 -49 51v119l6 74h-4q-16 -41 -49 -85t-82.5 -86.5t-122 -70 t-152.5 -27.5q-180 0 -262 98t-82 302zM430 1321q0 63 45 104t109 41t109.5 -41t45.5 -104t-45.5 -104t-109.5 -41t-109 41t-45 104zM518 1321q0 -29 18.5 -48.5t47.5 -19.5q30 0 48.5 19t18.5 49q0 31 -18.5 50.5t-48.5 19.5q-29 0 -47.5 -19.5t-18.5 -50.5z" />
<glyph unicode="&#x170;" horiz-adv-x="1464" d="M180 502v887q0 51 51 51h41q52 0 52 -51v-885q0 -185 110 -290t297 -105q188 0 299 106t111 293v881q0 51 51 51h41q49 0 49 -51v-887q0 -238 -151.5 -382.5t-397.5 -144.5q-247 0 -400 144.5t-153 382.5zM528 1557q-10 17 4 42l82 148q18 37 60 37h31q30 0 39 -17.5 t-7 -42.5l-84 -147q-21 -37 -59 -37h-27q-29 0 -39 17zM802.5 1557q-9.5 17 4.5 42l90 150q20 35 59 35h45q31 0 38.5 -18t-11.5 -44l-106 -149q-26 -33 -62 -33h-18q-30 0 -39.5 17z" />
<glyph unicode="&#x171;" horiz-adv-x="1187" d="M145 375v604q0 51 50 51h38q52 0 52 -51v-567q0 -55 4 -95t17.5 -82t37 -68.5t65 -43.5t99.5 -17q114 0 202.5 61.5t133.5 159t45 210.5v442q0 51 51 51h39q49 0 49 -51v-928q0 -51 -49 -51h-37q-49 0 -49 51v119l6 74h-4q-16 -41 -49 -85t-82.5 -86.5t-122 -70 t-152.5 -27.5q-180 0 -262 98t-82 302zM383 1215q-10 17 4 42l82 148q18 37 59 37h31q30 0 39 -17.5t-6 -42.5l-84 -147q-21 -37 -59 -37h-27q-29 0 -39 17zM657 1215q-9 17 5 42l90 150q20 35 59 35h45q31 0 38.5 -18t-11.5 -44l-107 -149q-26 -33 -61 -33h-19 q-30 0 -39 17z" />
<glyph unicode="&#x172;" horiz-adv-x="1464" d="M180 502v887q0 51 51 51h41q52 0 52 -51v-885q0 -185 110 -290t297 -105q188 0 299 106t111 293v881q0 51 51 51h41q49 0 49 -51v-887q0 -92 -21.5 -167t-62 -129.5t-83 -91.5t-99.5 -73q-92 -55 -156.5 -120t-64.5 -126q0 -68 94 -98q38 -12 29 -51l-5 -23 q-9 -44 -53 -37q-23 4 -46 11.5t-50.5 22t-48 34t-34 50t-13.5 67.5q0 108 110 206q-171 -9 -306.5 52t-213.5 184t-78 289z" />
<glyph unicode="&#x173;" horiz-adv-x="1187" d="M145 375v604q0 51 50 51h38q52 0 52 -51v-567q0 -55 4 -95t17.5 -82t37 -68.5t65 -43.5t99.5 -17q114 0 202.5 61.5t133.5 159t45 210.5v442q0 51 51 51h39q49 0 49 -51v-928q0 -22 -16 -45t-39 -44.5t-46 -45t-39 -55t-16 -66.5q0 -69 95 -98q35 -11 26 -51l-2 -23 q-9 -44 -53 -37q-30 5 -59.5 16.5t-61.5 31.5t-52 56t-20 81q0 73 51 138.5t109 104.5q-12 12 -12 37v119l6 74h-4q-16 -41 -49 -85t-82.5 -86.5t-122 -70t-152.5 -27.5q-180 0 -262 98t-82 302z" />
<glyph unicode="&#x174;" horiz-adv-x="1904" d="M88 1384q-6 26 5.5 41t39.5 15h45q43 0 55 -45l269 -1073l33 -154h4q14 80 34 154l297 1075q12 43 56 43h47q43 0 55 -43l295 -1075q10 -33 19.5 -71.5t13.5 -60.5l4 -22h4q13 80 31 154l280 1073q12 45 56 45h45q27 0 38.5 -15t4.5 -41l-357 -1341q-12 -43 -57 -43h-78 q-45 0 -57 43l-266 971q-12 41 -25 94.5t-20 87.5l-7 33h-6q-24 -123 -51 -215l-268 -971q-12 -43 -56 -43h-79q-44 0 -56 45zM750 1558q-7 18 10 44l106 149q23 33 62 33h76q37 0 63 -33l104 -149q19 -26 12.5 -44t-34.5 -18h-35q-35 0 -55 35l-90 131h-4l-91 -131 q-11 -19 -23.5 -27t-33.5 -8h-31q-29 0 -36 18z" />
<glyph unicode="&#x175;" horiz-adv-x="1630" d="M47 973q-8 26 3.5 41.5t39.5 15.5h43q46 0 57 -43l236 -725l31 -110h4q17 61 33 110l239 723q11 41 58 41h49q46 0 57 -41l240 -723l32 -110h5q12 59 30 110l236 725q11 43 57 43h43q27 0 38 -15t3 -42l-315 -930q-11 -43 -58 -43h-63q-47 0 -58 43l-239 690l-31 111h-4 q-15 -60 -33 -111l-237 -690q-11 -43 -58 -43h-63q-46 0 -60 43zM596.5 1216q-7.5 18 9.5 44l107 149q23 33 61 33h76q37 0 63 -33l105 -149q19 -26 12 -44t-35 -18h-34q-36 0 -56 35l-90 131h-4l-90 -131q-11 -19 -23.5 -27t-33.5 -8h-31q-29 0 -36.5 18z" />
<glyph unicode="&#x176;" horiz-adv-x="1134" d="M40 1422.5q10 17.5 40 17.5h51q41 0 59 -35l287 -487q19 -34 41 -77t34 -69l13 -27h4q45 97 88 173l287 487q18 35 57 35h54q29 0 39.5 -17.5t-4.5 -42.5l-451 -762v-567q0 -51 -51 -51h-41q-49 0 -49 51v567l-453 762q-15 25 -5 42.5zM350.5 1558q-7.5 18 9.5 44 l107 149q23 33 61 33h76q38 0 64 -33l104 -149q19 -26 12.5 -44t-34.5 -18h-35q-36 0 -56 35l-90 131h-4l-90 -131q-11 -19 -23.5 -27t-33.5 -8h-31q-29 0 -36.5 18z" />
<glyph unicode="&#x177;" horiz-adv-x="1005" d="M19 -365.5q-6 18.5 4 37.5l12 23q19 37 61 24q60 -26 90 -26q119 0 193 170l61 145l-405 963q-10 26 0.5 42.5t38.5 16.5h47q43 0 57 -39l289 -712l37 -109h4q15 58 35 109l282 710q14 41 58 41h45q28 0 39 -15.5t2 -43.5l-486 -1180q-41 -102 -118.5 -161.5 t-178.5 -59.5q-65 0 -141 37q-20 9 -26 27.5zM291.5 1213.5q-7.5 17.5 9.5 43.5l107 150q23 33 61 33h76q37 0 63 -33l105 -150q19 -26 12 -43.5t-35 -17.5h-35q-35 0 -55 35l-90 131h-4l-90 -131q-20 -35 -58 -35h-30q-29 0 -36.5 17.5z" />
<glyph unicode="&#x178;" horiz-adv-x="1134" d="M40 1422.5q10 17.5 40 17.5h51q41 0 59 -35l287 -487q19 -34 41 -77t34 -69l13 -27h4q45 97 88 173l287 487q18 35 57 35h54q29 0 39.5 -17.5t-4.5 -42.5l-451 -762v-567q0 -51 -51 -51h-41q-49 0 -49 51v567l-453 762q-15 25 -5 42.5zM340 1657v76q0 51 49 51h27 q49 0 49 -51v-76q0 -49 -49 -49h-27q-49 0 -49 49zM649 1657v76q0 51 49 51h27q51 0 51 -51v-76q0 -49 -51 -49h-27q-49 0 -49 49z" />
<glyph unicode="&#x179;" horiz-adv-x="1177" d="M68 51v15q0 34 20 63l725 1053q23 35 48 67.5t39 48.5l13 15v4q-34 -4 -106 -4h-649q-49 0 -49 51v25q0 51 49 51h880q52 0 52 -49v-17q0 -33 -21 -63l-725 -1053q-23 -35 -48 -67.5t-38 -48.5l-14 -15v-4q34 4 106 4h697q49 0 49 -51v-25q0 -51 -49 -51h-928 q-51 0 -51 51zM572 1557q-9 17 6 40l90 152q20 35 59 35h47q32 0 40 -18t-11 -44l-109 -149q-23 -33 -61 -33h-23q-29 0 -38 17z" />
<glyph unicode="&#x17a;" horiz-adv-x="1005" d="M70 45v14q0 34 20 60l553 694q18 23 38.5 46.5t32.5 35.5l11 12v4q-34 -4 -102 -4h-480q-49 0 -49 49v23q0 51 49 51h721q49 0 49 -45v-14q0 -34 -20 -60l-555 -694q-17 -23 -38 -46.5t-34 -35.5l-12 -12v-4q36 4 104 4h527q49 0 49 -49v-23q0 -51 -49 -51h-766 q-49 0 -49 45zM457.5 1215q-9.5 17 5.5 40l90 152q20 35 59 35h47q32 0 40 -18t-11 -44l-108 -149q-23 -33 -62 -33h-22q-29 0 -38.5 17z" />
<glyph unicode="&#x17b;" horiz-adv-x="1177" d="M68 51v15q0 34 20 63l725 1053q23 35 48 67.5t39 48.5l13 15v4q-34 -4 -106 -4h-649q-49 0 -49 51v25q0 51 49 51h880q52 0 52 -49v-17q0 -33 -21 -63l-725 -1053q-23 -35 -48 -67.5t-38 -48.5l-14 -15v-4q34 4 106 4h697q49 0 49 -51v-25q0 -51 -49 -51h-928 q-51 0 -51 51zM545 1661v72q0 51 49 51h35q49 0 49 -51v-72q0 -51 -49 -51h-35q-49 0 -49 51z" />
<glyph unicode="&#x17c;" horiz-adv-x="1005" d="M70 45v14q0 34 20 60l553 694q18 23 38.5 46.5t32.5 35.5l11 12v4q-34 -4 -102 -4h-480q-49 0 -49 49v23q0 51 49 51h721q49 0 49 -45v-14q0 -34 -20 -60l-555 -694q-17 -23 -38 -46.5t-34 -35.5l-12 -12v-4q36 4 104 4h527q49 0 49 -49v-23q0 -51 -49 -51h-766 q-49 0 -49 45zM434 1319v72q0 51 49 51h35q49 0 49 -51v-72q0 -51 -49 -51h-35q-49 0 -49 51z" />
<glyph unicode="&#x17d;" horiz-adv-x="1177" d="M68 51v15q0 34 20 63l725 1053q23 35 48 67.5t39 48.5l13 15v4q-34 -4 -106 -4h-649q-49 0 -49 51v25q0 51 49 51h880q52 0 52 -49v-17q0 -33 -21 -63l-725 -1053q-23 -35 -48 -67.5t-38 -48.5l-14 -15v-4q34 4 106 4h697q49 0 49 -51v-25q0 -51 -49 -51h-928 q-51 0 -51 51zM393.5 1766q7.5 18 36.5 18h31q37 0 57 -33l90 -131h4l90 131q20 33 56 33h33q29 0 36 -18t-12 -44l-104 -149q-26 -33 -64 -33h-76q-38 0 -61 33l-107 149q-17 26 -9.5 44z" />
<glyph unicode="&#x17e;" horiz-adv-x="1005" d="M70 45v14q0 34 20 60l553 694q18 23 38.5 46.5t32.5 35.5l11 12v4q-34 -4 -102 -4h-480q-49 0 -49 49v23q0 51 49 51h721q49 0 49 -45v-14q0 -34 -20 -60l-555 -694q-17 -23 -38 -46.5t-34 -35.5l-12 -12v-4q36 4 104 4h527q49 0 49 -49v-23q0 -51 -49 -51h-766 q-49 0 -49 45zM285.5 1424q7.5 18 36.5 18h30q38 0 58 -33l90 -131h4l90 131q20 33 55 33h33q29 0 36.5 -18t-11.5 -44l-105 -149q-26 -33 -63 -33h-76q-39 0 -62 33l-106 149q-17 26 -9.5 44z" />
<glyph unicode="&#x17f;" horiz-adv-x="491" d="M63 954v17q0 51 50 51h82v47q0 78 18 141t49 103t67 68.5t77 42.5t73.5 20t61.5 6h22q49 0 49 -51v-25q0 -25 -13 -36t-42 -13q-32 -1 -57.5 -6t-58.5 -21t-54.5 -42t-37 -74.5t-15.5 -114.5v-1016q0 -51 -51 -51h-39q-49 0 -49 51v854h-82q-50 0 -50 49z" />
<glyph unicode="&#x192;" horiz-adv-x="716" d="M-158 -135q0 25 14.5 37.5t37.5 9.5q54 -6 79 -6q28 0 55 4.5t62 21.5t61 44t47 77.5t27 116.5l49 578h-133q-49 0 -49 49v16q0 51 49 51h144l20 219q6 70 25 127.5t44.5 96t60 68t67.5 46t70.5 27t66 13.5t57.5 3q21 0 43.5 -1.5t45 -3.5t32.5 -3q47 -6 47 -53v-25 q0 -25 -11.5 -36.5t-33.5 -8.5q-66 8 -121 8q-28 0 -55 -5t-61.5 -21.5t-60.5 -43.5t-47 -77t-28 -117l-20 -213h207q49 0 49 -51v-16q0 -49 -49 -49h-217l-51 -584q-9 -97 -42 -169.5t-74 -112t-95 -63t-94.5 -30t-82.5 -6.5q-53 0 -88 6q-47 3 -47 53v23z" />
<glyph unicode="&#x218;" horiz-adv-x="1077" d="M115 199l24 30q29 37 72 7q33 -27 72 -51.5t112.5 -49t147.5 -24.5q130 0 211.5 67t81.5 178q0 73 -39.5 130t-103 94.5t-139.5 71t-152.5 70.5t-140 81.5t-103 115t-39.5 160.5q0 173 128.5 279t321.5 106q114 0 205.5 -35t145.5 -77q37 -26 12 -68l-19 -33 q-24 -42 -71 -14q-134 92 -277 92q-128 0 -214.5 -65.5t-86.5 -176.5q0 -70 39.5 -123.5t103 -89t139.5 -68t152.5 -69t140 -82t103 -118t39.5 -166.5q0 -171 -119 -283.5t-319 -112.5q-97 0 -190.5 30t-142.5 59.5t-89 62.5q-33 33 -6 72zM457 -389q0 5 10 42.5t10 86.5 q0 34 -4 57t-4 39q0 35 45 35h31q59 0 59 -104q0 -64 -25 -126.5t-65 -62.5h-12q-45 0 -45 33z" />
<glyph unicode="&#x219;" horiz-adv-x="882" d="M94 164l17 20q26 36 69 9q122 -95 273 -95q90 0 149.5 43.5t59.5 122.5q0 41 -23.5 74t-62.5 54t-88.5 42.5t-101 39.5t-101 45t-88.5 58t-62.5 79.5t-23.5 109.5q0 92 49 158.5t127 98.5t174 32q165 0 282 -84q41 -24 15 -68l-15 -22q-22 -41 -69 -15q-95 66 -221 66 q-88 0 -145.5 -40t-57.5 -120q0 -48 30.5 -84.5t78.5 -60.5t106.5 -45.5t117.5 -47.5t107 -58.5t78.5 -86t30.5 -123.5q0 -128 -97.5 -209.5t-250.5 -81.5q-119 0 -207 37t-142 82q-37 27 -8 70zM365 -389q0 5 10 42.5t10 86.5q0 34 -4 57t-4 39q0 35 45 35h31q59 0 59 -104 q0 -64 -25 -126.5t-65 -62.5h-12q-45 0 -45 33z" />
<glyph unicode="&#x21a;" horiz-adv-x="1202" d="M12 1364v25q0 51 51 51h1074q51 0 51 -51v-25q0 -51 -51 -51h-467v-1262q0 -51 -49 -51h-41q-52 0 -52 51v1262h-465q-51 0 -51 51zM522 -389q0 5 10.5 42.5t10.5 86.5q0 34 -4 57t-4 39q0 35 45 35h30q60 0 60 -104q0 -64 -25 -126.5t-65 -62.5h-13q-45 0 -45 33z" />
<glyph unicode="&#x21b;" horiz-adv-x="655" d="M63 954v17q0 51 50 51h88v242q0 51 51 51h37q49 0 49 -51v-242h209q51 0 51 -51v-17q0 -49 -51 -49h-209v-516q0 -259 225 -270q31 -3 43 -14t12 -37v-27q0 -49 -57 -49q-170 0 -266 99.5t-96 279.5v534h-86q-50 0 -50 49zM276 -389q0 5 10.5 42.5t10.5 86.5q0 34 -4 57 t-4 39q0 35 45 35h31q59 0 59 -104q0 -64 -25 -126.5t-65 -62.5h-12q-46 0 -46 33z" />
<glyph unicode="&#x2c6;" horiz-adv-x="1032" d="M299.5 1558q-7.5 18 9.5 44l107 149q23 33 61 33h76q37 0 63 -33l105 -149q19 -26 12 -44t-35 -18h-34q-36 0 -56 35l-90 131h-4l-90 -131q-11 -19 -23.5 -27t-33.5 -8h-31q-29 0 -36.5 18z" />
<glyph unicode="&#x2da;" horiz-adv-x="1034" d="M362 1663q0 63 45 104t109 41q65 0 110.5 -41t45.5 -104t-45.5 -104t-110.5 -41q-64 0 -109 41t-45 104zM451 1663q0 -30 18 -49t47 -19q30 0 49 19t19 49q0 31 -18.5 50.5t-49.5 19.5q-29 0 -47 -19.5t-18 -50.5z" />
<glyph unicode="&#x2dc;" horiz-adv-x="1032" d="M201 1599q0 82 50.5 134.5t129.5 52.5q39 0 72 -15t56 -37t43.5 -44t44 -37t48.5 -15q37 0 57.5 30.5t22.5 72.5q0 39 47 39h16q43 0 43 -47q0 -89 -48.5 -141t-131.5 -52q-39 0 -72 15t-56 36.5t-43.5 43t-44 36.5t-48.5 15q-38 0 -59 -31t-21 -74q-3 -35 -47 -35h-14 q-45 0 -45 53z" />
<glyph unicode="&#x2000;" horiz-adv-x="904" />
<glyph unicode="&#x2001;" horiz-adv-x="1808" />
<glyph unicode="&#x2002;" horiz-adv-x="904" />
<glyph unicode="&#x2003;" horiz-adv-x="1808" />
<glyph unicode="&#x2004;" horiz-adv-x="602" />
<glyph unicode="&#x2005;" horiz-adv-x="452" />
<glyph unicode="&#x2006;" horiz-adv-x="301" />
<glyph unicode="&#x2007;" horiz-adv-x="301" />
<glyph unicode="&#x2008;" horiz-adv-x="226" />
<glyph unicode="&#x2009;" horiz-adv-x="40" />
<glyph unicode="&#x200a;" horiz-adv-x="100" />
<glyph unicode="&#x2010;" horiz-adv-x="866" d="M143 567v27q0 51 50 51h481q49 0 49 -51v-27q0 -49 -49 -49h-481q-50 0 -50 49z" />
<glyph unicode="&#x2011;" horiz-adv-x="866" d="M143 567v27q0 51 50 51h481q49 0 49 -51v-27q0 -49 -49 -49h-481q-50 0 -50 49z" />
<glyph unicode="&#x2012;" horiz-adv-x="866" d="M143 567v27q0 51 50 51h481q49 0 49 -51v-27q0 -49 -49 -49h-481q-50 0 -50 49z" />
<glyph unicode="&#x2013;" horiz-adv-x="1310" d="M143 571v19q0 51 52 51h921q51 0 51 -51v-19q0 -49 -51 -49h-921q-52 0 -52 49z" />
<glyph unicode="&#x2014;" horiz-adv-x="1720" d="M143 571v19q0 51 52 51h1331q51 0 51 -51v-19q0 -49 -51 -49h-1331q-52 0 -52 49z" />
<glyph unicode="&#x2018;" horiz-adv-x="411" d="M106 1098l101 319q14 41 57 41h15q53 0 40 -55l-75 -318q-9 -43 -54 -43h-43q-28 0 -39 15t-2 41z" />
<glyph unicode="&#x2019;" horiz-adv-x="407" d="M109 1098l75 317q9 43 56 43h41q28 0 39 -14.5t4 -40.5l-103 -320q-11 -41 -57 -41h-12q-56 0 -43 56z" />
<glyph unicode="&#x201a;" horiz-adv-x="452" d="M88 -195l78 318q9 45 53 45h43q28 0 39 -15.5t2 -41.5l-100 -320q-15 -41 -58 -41h-14q-52 0 -43 55z" />
<glyph unicode="&#x201c;" horiz-adv-x="673" d="M106 1098l101 319q14 41 57 41h15q52 0 43 -55l-78 -318q-9 -43 -54 -43h-43q-28 0 -39 15t-2 41zM367 1098l102 319q11 41 55 41h15q52 0 43 -55l-76 -318q-9 -43 -55 -43h-43q-26 0 -37 15t-4 41z" />
<glyph unicode="&#x201d;" horiz-adv-x="669" d="M109 1098l75 317q9 43 56 43h43q27 0 38.5 -14.5t2.5 -40.5l-103 -320q-11 -41 -55 -41h-14q-56 0 -43 56zM371 1098l75 317q9 43 54 43h43q28 0 39 -14.5t2 -40.5l-101 -320q-14 -41 -57 -41h-14q-54 0 -41 56z" />
<glyph unicode="&#x201e;" horiz-adv-x="712" d="M88 -195l78 318q9 45 53 45h43q28 0 39 -15.5t2 -41.5l-100 -320q-15 -41 -58 -41h-14q-26 0 -37.5 14.5t-5.5 40.5zM350 -195l76 318q9 45 55 45h41q28 0 39.5 -15.5t3.5 -41.5l-102 -320q-12 -41 -57 -41h-13q-56 0 -43 55z" />
<glyph unicode="&#x2020;" horiz-adv-x="819" d="M98 963v16q0 51 52 51h188v359q0 51 51 51h35q51 0 51 -51v-359h199q49 0 49 -51v-16q0 -52 -49 -52h-199v-962q0 -51 -51 -51h-35q-51 0 -51 51v962h-188q-52 0 -52 52z" />
<glyph unicode="&#x2021;" horiz-adv-x="843" d="M111 416v18q0 51 49 51h190v426h-190q-49 0 -49 52v16q0 51 49 51h190v359q0 51 49 51h37q49 0 49 -51v-359h199q51 0 51 -51v-16q0 -52 -51 -52h-199v-426h199q51 0 51 -51v-18q0 -49 -51 -49h-199v-418q0 -51 -49 -51h-37q-49 0 -49 51v418h-190q-49 0 -49 49z" />
<glyph unicode="&#x2022;" horiz-adv-x="811" d="M113 596q0 122 85.5 207.5t207.5 85.5q121 0 205.5 -85.5t84.5 -207.5t-84.5 -207.5t-205.5 -85.5q-122 0 -207.5 85.5t-85.5 207.5z" />
<glyph unicode="&#x2026;" horiz-adv-x="1409" d="M141 51v70q0 49 49 49h66q49 0 49 -49v-70q0 -51 -49 -51h-66q-49 0 -49 51zM623 51v70q0 49 49 49h65q49 0 49 -49v-70q0 -51 -49 -51h-65q-49 0 -49 51zM1104 51v70q0 49 49 49h66q49 0 49 -49v-70q0 -51 -49 -51h-66q-49 0 -49 51z" />
<glyph unicode="&#x202f;" horiz-adv-x="361" />
<glyph unicode="&#x2030;" horiz-adv-x="2134" d="M106 1180q0 117 84.5 200.5t204.5 83.5q118 0 202.5 -83.5t84.5 -200.5q0 -118 -84 -201.5t-203 -83.5q-120 0 -204.5 83.5t-84.5 201.5zM157 17.5q-9 17.5 11 43.5l1026 1348q22 31 61 31h31q33 0 42 -18t-11 -44l-1026 -1347q-22 -31 -62 -31h-32q-31 0 -40 17.5z M229 1180q0 -71 48 -120.5t118 -49.5t118 49.5t48 120.5q0 70 -48 120t-118 50t-118 -50t-48 -120zM799 258q0 119 84 203t204 84q119 0 204 -84.5t85 -202.5q0 -117 -85 -200t-204 -83q-120 0 -204 83t-84 200zM922 260q0 -71 47.5 -120.5t117.5 -49.5t118 49.5t48 120.5 q0 70 -48 120t-118 50t-117.5 -50t-47.5 -120zM1489 258q0 119 83.5 203t203.5 84q119 0 203.5 -84.5t84.5 -202.5q0 -117 -84.5 -200t-203.5 -83q-120 0 -203.5 83t-83.5 200zM1610 260q0 -71 48 -120.5t118 -49.5t118 49.5t48 120.5q0 70 -48 120t-118 50t-118 -50 t-48 -120z" />
<glyph unicode="&#x2039;" horiz-adv-x="641" d="M102 543q-30 35 0 69l283 359q22 28 61 28h35q32 0 40.5 -17.5t-11.5 -43.5l-287 -360l287 -359q20 -26 13 -43.5t-38 -17.5h-39q-39 0 -61 28z" />
<glyph unicode="&#x203a;" horiz-adv-x="641" d="M119.5 981.5q7.5 17.5 40.5 17.5h37q36 0 61 -28l283 -359q30 -34 0 -69l-283 -357q-25 -28 -61 -28h-35q-32 0 -40.5 17.5t11.5 43.5l285 359l-285 360q-21 26 -13.5 43.5z" />
<glyph unicode="&#x2044;" horiz-adv-x="323" d="M-216.5 16.5q-8.5 16.5 3.5 42.5l641 1342q17 39 59 39h19q28 0 36.5 -17t-5.5 -43l-641 -1341q-14 -39 -58 -39h-20q-26 0 -34.5 16.5z" />
<glyph unicode="&#x205f;" horiz-adv-x="452" />
<glyph unicode="&#x20ac;" horiz-adv-x="1218" d="M86 596q0 28 11 40.5t38 12.5h64q-5 27 -4.5 78.5t6.5 87.5h-66q-49 0 -49 51q0 29 11 41.5t38 12.5h84q59 241 247 392.5t439 151.5q45 0 144 -12q51 -9 38 -61l-10 -35q-12 -45 -55 -39q-58 12 -119 12q-194 0 -336.5 -111.5t-195.5 -297.5h569q57 0 45 -56 q-8 -49 -57 -49h-580q-13 -67 -2 -166h545q57 0 45 -55q-6 -28 -18.5 -38.5t-38.5 -10.5h-510q46 -194 192.5 -314t345.5 -120q58 0 135 14q51 10 60 -35l8 -37q13 -47 -37 -59q-88 -19 -168 -19q-259 0 -448 158.5t-242 411.5h-80q-27 0 -38 12t-11 39z" />
<glyph unicode="&#x2122;" horiz-adv-x="1951" d="M84 1382v9q0 49 51 49h656q51 0 51 -49v-9q0 -49 -51 -49h-271v-741q0 -49 -51 -49h-14q-52 0 -52 49v741h-268q-51 0 -51 49zM920 596l65 797q3 47 51 47h15q42 0 59 -39l219 -475q8 -17 15.5 -38t10.5 -34l3 -12h4q11 45 29 84l219 475q14 39 59 39h14q49 0 52 -47 l65 -797q0 -53 -49 -53h-14q-48 0 -51 47l-48 561l2 59h-4l-213 -460q-13 -39 -57 -39h-12q-44 0 -60 39l-211 460h-4l2 -59l-49 -561q-3 -47 -51 -47h-12q-52 0 -49 53z" />
<glyph unicode="&#x25fc;" horiz-adv-x="1034" d="M0 0v1034h1034v-1034h-1034z" />
</font>
</defs>
</svg>
